<svg height="240" viewBox="0 0 240 240" width="240" xmlns="http://www.w3.org/2000/svg"><g><path d="m201.11203,123.8662c-0.73183,-0.0685 -1.33796,0.56906 -1.09402,1.34889c-0.07281,-0.01054 -0.14323,-0.03161 -0.2086,-0.0764l-3.40695,-2.30523c-0.22109,-0.15017 -0.28858,-0.45578 -0.16821,-0.69815c0.64148,-0.02635 1.3361,-0.35566 1.24788,-1.12232c0.26254,0.32932 3.92778,2.26571 3.6299,2.85322l0,0zm-12.52368,-11.72637c-0.20036,0.24765 -0.61969,0.77192 -0.61969,0.77192c-3.77419,-4.2706 -16.51073,-9.17349 -22.0143,-8.37259c0,0 0.0675,-0.63229 0.10284,-0.97478l-0.0396,0.02108l2.09184,-1.31991l-1.78864,-1.46744c0.0178,-0.20549 -1.14398,-7.38991 -1.14398,-7.38991l3.15477,-0.09484c0,0 -1.12644,1.312 -1.17507,2.34738c0.17857,0.12382 0.33004,0.30034 0.4358,0.51901c0.63111,-0.26609 1.30793,-1.56229 1.30793,-1.56229l0.30001,4.24689c0,0 -0.87718,-1.22507 -1.51441,-1.44373c-0.0489,0.15544 -0.11745,0.30034 -0.22933,0.41889c0.9112,2.81896 5.06326,2.98494 5.06857,0.56906c-0.14217,-1.25404 -1.53939,-1.04592 -1.46259,0.27663c-2.2744,-1.79149 0.80039,-4.64734 2.06447,-1.77041c-0.16183,-1.65713 -0.01966,-2.59503 1.2779,-3.41174c0.85645,1.0749 0.73688,2.08393 -0.19212,3.691c2.79231,-2.56869 3.85843,1.78886 1.23645,2.43169c1.27976,-2.29206 -2.40302,-1.57019 -1.05044,0.82988c1.23725,1.87053 4.23709,1.59654 5.28966,-0.43733c-0.07467,-0.12382 -0.12888,-0.25555 -0.15678,-0.39255c-1.04539,-0.19759 -2.60656,0.68498 -2.60656,0.68498l1.45541,-3.91494c0,0 0.60401,1.67557 1.48013,2.19721c0.15785,-0.14754 0.35821,-0.25028 0.57504,-0.30297c0.16715,-1.03011 -0.88223,-2.64772 -0.88223,-2.64772l4.84855,1.85472c0,0 -1.91726,0.48212 -2.53163,1.34362c0.12038,0.17915 0.19398,0.38728 0.20222,0.59804c1.01005,0.20022 2.64589,-0.61912 2.64589,-0.61912l-1.73762,3.80956c0,0 -0.50436,-1.67557 -1.40652,-2.22092c-0.11825,0.08167 -0.25005,0.14226 -0.39222,0.17915c-0.69037,2.21039 1.3276,4.35491 3.5345,3.81483c2.67167,-0.81144 0.55113,-3.82273 -0.17352,-1.2962c-1.44478,-2.21566 2.44553,-4.65261 2.6334,-0.95107c0.47247,-1.78359 1.10677,-2.59503 2.49549,-2.80843c0.36033,1.449 -0.20648,2.22619 -1.50617,3.32217c2.99879,-1.25404 3.13696,2.87166 0.23677,2.65299c1.00792,-0.92472 0.11931,-1.98382 -0.86575,-1.16711c-1.73257,1.79413 1.50829,4.35754 4.04417,3.07978c-0.00638,-0.16071 0.03933,-0.31615 0.11108,-0.45578c-0.63005,-0.43733 -2.12293,-0.48212 -2.12293,-0.48212l3.10694,-2.28415c0,0 -0.36964,1.38314 -0.07387,2.10501c0.22853,-0.03688 0.46423,-0.01054 0.68107,0.0764c0.66646,-0.66654 0.70578,-2.4554 0.70578,-2.4554l2.31798,2.86375c0,0 -5.82006,2.65826 -6.84898,3.43018l-1.6191,-0.15807l0.79906,2.25781l-0.04969,0.0079l0.00001,0.00001zm-17.11899,-20.85245c0.96753,0.34249 1.8851,0.84832 2.86592,-0.11592c-0.94149,-0.00263 -1.22795,-0.656 -1.49873,-1.28039c-0.45786,-3.1799 4.77574,-2.05758 6.72408,-1.83101c4.90993,2.96123 13.26189,1.0749 10.35956,-5.96725c2.27121,1.39104 1.49049,5.25065 -0.23358,6.75498c-4.53817,2.43432 -8.83772,0.60331 -13.36871,5.36394c-0.69011,-2.17614 -3.29773,-2.05495 -4.23285,0.34249c-0.86363,0.05796 -1.08791,0.04479 -1.91114,0.09748c-0.15041,-1.26458 0.88223,-2.1735 1.29545,-3.36432l0,0zm12.12721,-12.2164c-1.45222,0.98532 -2.75484,2.43959 -4.23418,0.46895c-0.34253,0.0685 -0.62474,0.12382 -0.97577,0.19232c2.19229,-3.36695 2.01186,-2.78735 5.20994,-0.66127zm4.9389,-7.69815c1.07834,1.18818 1.54975,2.47384 1.54869,3.93338c-1.03901,-0.3583 -1.49155,-1.48325 -1.54869,-3.93338zm-45.20367,19.08467l5.48817,-1.93903l2.0084,4.01768l-3.80847,2.40271l-3.68809,-4.48136l0,0zm-3.52706,-0.95107c-0.69861,4.15468 -10.09994,2.36055 -9.19273,-1.75461c0.69861,-4.15205 10.09888,-2.36055 9.19273,1.75461zm-18.69053,1.8073l-5.86789,-4.10199l5.87613,-4.11253l5.86789,4.10199l-5.87613,4.11253zm-13.45879,0.50847c-5.95612,1.19609 -7.21834,-5.30335 -1.23938,-6.38351c5.95612,-1.19609 7.21834,5.30335 1.23938,6.38351zm-12.43147,3.11667l-3.80847,-2.40271l2.00973,-4.01768l5.48683,1.93903l-3.68809,4.48136l0,0zm72.3373,-13.05682c0.47141,-0.05006 0.86044,-0.09221 1.38792,-0.14754c-0.9104,-0.656 -0.01966,-1.55702 0.73369,-0.91682c1.80512,1.38841 -1.81229,3.65939 -2.1216,1.06436zm36.37632,46.60779l-0.50675,-0.0606l-1.34301,-3.61987c0.62899,-0.8009 0.96833,-2.08393 -0.02391,-2.73466c-1.31298,-0.51374 -5.01463,-4.71057 -6.11184,-1.99435c-0.47221,0.16598 -3.40376,0.33459 -3.63202,0.87467c-1.40758,-2.20775 -2.597,-4.5525 -3.47312,-7.1607c0.56973,-3.02973 8.65702,-6.80504 8.65702,-6.80504c0,0 -2.29725,-3.27474 -3.21376,-5.11893c-0.40684,0.90102 -0.77966,0.51637 -1.66508,0.91682c4.49273,-7.91155 5.44644,-18.32328 -0.49719,-25.79749c-0.60932,-1.2962 -0.32898,-3.00602 -0.92687,-4.2785c-1.03077,-1.34625 -1.74294,-4.00188 -3.56453,-4.28377c-0.00824,2.35002 -0.25218,4.64998 0.8926,6.82875c1.21971,1.5175 -1.66269,2.80316 -2.5606,1.60444c1.72088,-0.19759 2.01265,-0.53745 1.41795,-1.50169c-7.41977,-1.64923 -11.56678,3.51712 -18.64509,4.32856c-0.62261,-0.00527 -1.17905,0.2134 -1.52982,0.77983c-4.36066,5.82499 5.42572,1.84682 6.27792,5.70906c-1.63398,1.33835 -1.86012,0.45841 -3.39127,0.07113c-2.20478,0.08167 -4.341,0.76666 -1.5912,2.61347c-1.67863,2.61347 -1.59652,3.53556 -5.01064,3.75686c1.48039,2.07339 1.16151,5.06887 1.54869,7.41889c-2.43198,0.45314 -4.08563,1.61498 -4.13426,4.19157c-1.09508,0.24238 -2.27546,-0.32405 -3.05379,0.84569c-1.53115,-1.25668 -3.2895,-1.48589 -5.12491,-1.51486c-0.88542,-0.656 -3.05698,-2.20512 -5.38825,-3.39066c0.46078,-1.70982 0.89897,-3.31163 1.31405,-4.81069c0.6832,-0.43206 3.13378,-1.97855 3.7702,-2.379c-0.32818,-0.656 -1.6215,-3.24313 -1.97226,-3.94655c4.37103,-14.91418 5.7911,-15.74669 8.00305,-16.07074l0.11931,-0.41363l-8.08915,-2.56869l-0.14111,0.52427c2.04162,1.47008 2.70595,3.9123 1.77589,6.77079c-2.16093,-0.92472 -3.39207,-2.95333 -3.15849,-4.7659c-0.04172,-0.01317 -0.53465,-0.15281 -0.53465,-0.15281l-2.70728,8.90741c0,0 0.39036,0.11592 0.43182,0.12909c1.06399,-1.5254 2.918,-2.38163 5.0614,-2.0286c-2.49947,7.89574 -13.76093,5.43244 -11.74509,-1.26985c1.43442,-2.76364 4.15924,-0.99059 2.84732,1.90478c6.31725,-2.19458 2.59089,-11.20737 -2.81304,-5.83289c1.78652,-3.62777 2.80161,-6.47572 0.55857,-9.98494c-2.90977,1.85472 -3.65381,5.2085 -3.09658,9.67933c-3.56453,-8.08543 -9.78532,0.24502 -4.72817,4.45502c-0.92076,-5.99887 6.54897,-2.03387 1.49474,2.80052c-4.81852,3.38276 -10.74328,-0.5032 -10.91468,-6.47045c2.78195,0.24502 4.9078,1.8837 5.19426,3.92811c0.04863,0.00263 0.51074,0.01844 0.51074,0.01844l0.34572,-10.18516c0,0 -0.58142,-0.02635 -0.63111,-0.02635c-0.43288,2.06022 -2.6916,3.80956 -5.55141,3.86225c0.19505,-3.14038 2.01053,-5.58787 4.36066,-5.98833c0,-0.05533 0,-0.58224 0,-0.58224l-11.85298,0c0,0 0,0.52691 0,0.58224c2.34987,0.40045 4.16535,2.84794 4.36066,5.98833c-2.85981,-0.05269 -5.11853,-1.80203 -5.55141,-3.86225c-0.04969,0 -0.63111,0.02635 -0.63111,0.02635l0.34572,10.18516c0,0 0.46184,-0.01581 0.51074,-0.01844c0.28646,-2.04441 2.41232,-3.6831 5.19426,-3.92811c-0.16715,5.96462 -6.09935,9.85584 -10.91574,6.47045c-5.0521,-4.83703 2.4163,-8.79676 1.49554,-2.80052c5.06033,-4.22318 -1.17081,-12.53518 -4.72817,-4.45502c0.55751,-4.47083 -0.18681,-7.82461 -3.09631,-9.67933c-2.24304,3.50922 -1.22688,6.35716 0.55857,9.98494c-5.41243,-5.37711 -9.12311,3.64885 -2.81304,5.83289c-1.31219,-2.89537 1.41157,-4.66842 2.84625,-1.90478c2.01691,6.70756 -9.2488,9.16032 -11.74429,1.26985c2.14472,-0.35303 3.9974,0.5032 5.0614,2.0286c0.04146,-0.01317 0.43182,-0.12909 0.43182,-0.12909l-2.70701,-8.90741c0,0 -0.4932,0.13963 -0.53465,0.15281c0.23358,1.81257 -0.99756,3.84117 -3.15876,4.7659c-0.93006,-2.85849 -0.26573,-5.30071 1.77615,-6.77079l-0.14111,-0.52427l-8.08941,2.56869l0.11931,0.41363c2.21222,0.32405 3.63202,1.15656 8.00332,16.07074c-0.35821,0.71923 -1.63797,3.27738 -1.97226,3.94655c0.62288,0.39255 3.10162,1.95747 3.76994,2.379c0.37894,1.36733 0.77647,2.8216 1.19367,4.36281c0.01568,-0.0079 0.03242,-0.01317 0.04783,-0.02371c-0.0186,0.05533 -0.03534,0.07113 -0.04783,0.02371c-10.88438,5.04516 -8.41706,8.47271 -16.79081,7.48739c-0.75043,1.71773 -1.45116,3.41964 -3.15451,4.58675c-0.31569,-2.63191 -1.49899,-4.67369 -3.05911,-6.53632c-0.77328,-0.89311 -1.83196,0.09484 -2.98736,0.18442c-2.27121,4.9108 -3.84169,0.47422 -7.8452,3.0429c0.15758,2.28942 0.50755,4.56567 1.77482,6.67858c-2.97806,-0.20813 -5.43608,-1.0064 -7.40409,-2.39217c-8.90096,9.85848 -18.1944,19.32441 -25.80709,30.16821c-4.06384,5.32442 -14.93493,2.22883 -12.06689,-5.10839c1.31511,-5.35603 9.11886,-4.21528 8.62486,1.09861c3.8571,-4.24952 1.37835,-8.48061 -4.51559,-7.53481c5.4103,-2.3184 8.65622,2.07076 13.53373,-3.96236c-3.7245,0.08958 -6.88512,-1.0828 -10.59713,-0.23184c4.70027,-2.78999 11.1557,1.35152 15.16852,-6.34926c-3.49703,0.37147 -6.65871,1.82047 -10.27745,2.35265c21.71748,-20.52577 0.82217,-21.54007 3.47843,-30.41322c-1.69697,1.42793 -2.67486,2.85849 -1.89015,4.7738c-4.86423,-2.0128 -12.07619,-1.42002 -14.04633,-7.28189c-0.47646,8.34625 3.222,7.74821 9.57671,9.46593c-2.93342,-0.34776 -5.82856,-0.36884 -8.57517,-1.37523c0.56681,3.74106 3.42954,4.53669 6.79796,4.17839c-3.29667,1.81521 -2.54731,6.47045 0.80756,8.06962c-2.1402,-12.0715 16.09352,-7.93262 7.76655,3.15619c-3.8656,5.7117 -9.45846,9.95859 -14.15847,14.94843c-0.88648,-1.5175 -1.81149,-3.0429 -3.86454,-2.82687c3.57994,4.09672 -0.46104,8.55174 -1.40864,12.78019c-1.3826,5.22431 3.27169,9.67143 8.26161,10.28264c-1.98794,2.33421 -2.14764,4.41287 -0.61676,6.32292c1.50325,-7.67444 12.7283,-5.94354 13.78697,-14.24764c0.19106,-0.97742 0.66221,-1.74143 1.76366,-2.18931c-5.05821,5.66955 7.10514,17.67518 -4.3224,19.07676c-1.63053,0.04479 -2.03657,1.74671 -1.12936,2.95596c-4.72285,-0.23447 -6.02574,1.54648 -6.74587,5.95671c2.08307,-0.53481 4.01813,-1.03011 5.97472,-1.53067c-2.05624,5.34023 -6.72222,-0.31088 -5.95399,9.1893c1.90663,-0.90629 3.69952,-1.86526 5.44644,-2.93752c1.6866,5.33233 -8.55631,3.0271 -0.86682,11.53932c0.49001,-1.58863 2.54305,-4.84494 3.59057,-5.56944c-0.94972,2.67933 -0.72359,5.7802 2.30841,6.98155c0.14137,-0.71396 0.2668,-1.34625 0.39249,-1.97855c0.13791,-0.00263 0.11426,-0.00263 0.25324,-0.00527c0.435,1.76778 0.49825,4.24426 2.22976,5.26382c0.57292,0.22657 0.88223,0.54008 1.07223,1.13813c0.31543,0.98795 1.2415,1.25141 2.14233,1.36996c1.13255,0.23184 1.41901,-1.04065 2.25155,-1.55438c0.23756,1.40421 1.91194,1.62815 2.73306,2.82424c0.63111,-6.92359 -8.6331,-4.41023 -6.50937,-8.98644c0.82005,2.78999 3.4492,2.18141 5.28568,3.3248c0.71084,1.1592 2.44766,2.11818 3.33387,0.50847c0.86363,0.64283 1.64435,1.22243 2.40514,1.78886c-1.80804,-8.22506 -6.10865,-3.13775 -8.81672,-7.45577c1.8859,0.08431 3.90174,2.85849 5.93725,0.96425c1.09614,1.11705 1.94224,2.42906 2.7684,3.74896c0.33323,-2.62928 -0.65583,-4.63417 -2.74341,-6.09634c-2.35412,-1.43056 -5.55034,1.10914 -7.563,-1.74407c-2.75059,-3.36695 -2.67193,-8.0907 -1.24044,-11.98719c1.31325,-2.99548 4.97317,-4.11516 6.6619,-6.95521c-0.47008,2.50809 -0.23331,6.86827 2.63048,7.67971c-0.69542,-4.65525 2.64271,-8.84945 3.31846,-13.34926c0.87107,-1.13549 0.91359,-2.02333 0.12463,-3.25103c-1.42114,-2.3105 -1.81043,-5.09521 -3.38303,-7.37146c-2.43703,-3.38803 -5.44006,-3.48287 -0.46902,-7.05532c-3.01871,4.64471 -0.55431,2.95333 2.05012,7.32931c0.48151,-1.47535 2.70196,-3.39857 -0.07387,-3.39066c-4.38139,-2.13135 5.70287,-7.67444 7.98046,-7.81671c2.24623,-0.17388 5.39861,0.0764 7.10089,-2.12608c-1.06506,-2.00489 -2.09875,-2.28942 -0.2854,-4.37335c-1.22476,-0.70869 -2.30549,-1.55438 -2.51728,-3.15092c-1.16656,0.40308 -2.19521,0.75875 -3.40562,1.17501c1.10226,-1.23824 4.34525,-3.73579 4.69708,-0.96688c0.07573,1.55438 1.63266,1.83364 2.84413,2.22092c-0.8833,1.27512 -2.35332,2.55814 -1.0143,4.0493c0.93644,0.97478 1.51866,2.81106 2.95839,3.05081c0.39036,-1.44373 0.76398,-2.82951 1.14903,-4.2548c3.18985,3.3169 -3.20313,5.16635 5.55965,8.14602c-0.31968,-1.79413 -0.60401,-3.52502 -0.36937,-5.37975c4.22354,3.49868 -1.81655,5.69326 7.91057,6.83665c-1.08366,-1.27512 -1.33371,-2.68724 -1.73337,-4.11253c1.62229,0.26345 2.93448,1.80203 3.98279,2.9586c1.00181,1.50959 1.73975,2.33685 4.0285,0.8615c0.10284,0.26345 0.12782,0.62702 0.3218,0.77456c1.02759,0.77456 0.6157,1.71509 0.59391,2.74783l0.28114,0c1.35257,-1.35416 1.44797,-2.90591 1.02652,-4.60255c-0.93936,-3.19307 -4.8714,-0.65073 -6.24869,-3.9123c1.85587,1.25404 3.70351,1.98645 5.74645,0.9379c1.14079,1.06436 1.61831,1.84419 2.1705,3.35378c0.93325,-3.44072 -0.14031,-6.95257 -3.80555,-5.91983c-1.13973,0.40308 -1.60768,0.31088 -2.75378,-0.67445c1.70228,0.58487 2.82659,-0.27926 3.91237,-1.05118c0.2357,0.30034 0.37362,0.64283 0.53253,0.65337c1.03077,0.05796 1.70015,0.67445 2.33446,1.42793c0.34359,-2.94279 -2.60763,-5.32179 -5.57825,-4.57357c-0.74113,3.6067 -3.79704,1.56492 -6.21893,1.08543c-3.76276,-2.18404 -5.73901,-6.36507 -9.06704,-9.09183c0.33217,-4.04667 -3.06522,-7.26872 -7.15085,-7.03424c3.68305,-1.5939 8.05301,1.54384 8.33947,5.3534c0.13791,1.55702 1.09721,2.5397 2.09158,3.70418c12.44263,-24.80954 52.60776,-31.2958 75.66931,-15.5491l-0.00213,0c1.96402,1.78359 4.10024,3.24049 6.13682,5.11893c0.79401,-2.36846 0.32287,-5.18742 3.88739,-3.7516l0.66725,-0.44787c-0.72758,-2.00225 0.78284,-4.26797 2.90126,-4.4155l0,1.56229c-0.92794,0.15017 -1.64834,1.04328 -1.49873,1.99962c0.71003,-0.15017 1.35763,0.77719 0.97152,1.38577c0.66539,0.3741 1.60582,0.2213 2.12054,-0.31615c0.59285,0.02898 1.18357,0.08694 1.77403,0.1449c-0.81155,1.91268 -3.62671,2.56342 -5.20967,1.16184l-0.00638,0.00527c0.30533,0.41626 -1.0608,4.63154 -1.119,5.1321c-0.16077,0.61648 -0.739,1.01957 -1.35656,0.99059c0.25324,0.41363 0.4629,0.75348 0.69223,1.12759c1.00899,-0.55852 2.41976,-0.52427 2.28902,-1.94166c0.19079,-0.80354 -0.3311,-4.50771 0.82829,-4.17839c0.47008,1.40421 -0.4164,3.03236 0.63537,4.41814c3.3267,-0.81408 1.8673,-3.80165 5.90297,-4.58148c1.60396,-0.14226 4.98062,-0.91155 5.84504,0.67445c-3.52493,-0.9379 -8.07985,0.02371 -8.85206,4.01505c-3.66949,0.85886 -6.74906,3.45389 -10.65426,3.45126c-3.10269,0.16861 -3.93602,3.86225 -4.06783,6.39405c-0.51605,2.90591 -0.67469,5.91983 -1.98076,8.61497c-0.64041,1.03011 -0.10257,2.21302 0.24819,3.16936c1.18968,0.61912 2.03657,4.70794 2.2069,6.16748c-0.00744,2.66616 4.60354,3.55664 6.48014,5.21641c0.52216,-3.3406 -5.85939,-2.39217 -4.96361,-7.05796c1.13441,3.08769 3.61236,3.72525 6.32761,5.24539c-0.84901,-3.12721 -1.10544,-8.32781 -5.50464,-7.67444c-1.69803,-2.33948 0.78497,-2.47121 -0.01435,-5.25856c1.26223,0.38991 1.86119,0.82461 2.19627,1.60444c-0.39222,-0.12646 -0.73475,-0.23447 -1.27551,-0.40572c0.14722,1.97855 1.87447,2.44486 3.2042,3.80429c-0.22322,-3.23786 -0.51472,-5.2849 -3.5531,-6.863c-1.72301,-1.56492 0.2636,-5.16108 0.14855,-7.32141c-0.05607,-0.63756 4.0657,-2.67143 4.69602,-2.48965c3.05485,0.39518 6.25613,-0.08958 9.2124,0.67445c2.94776,0.92209 0.4172,-5.42717 5.18177,-2.08656c-3.45159,-1.0064 -1.34965,2.72676 -3.84169,2.91908c-1.74081,0.01844 -3.22014,-0.14754 -5.03349,-0.20813c6.26251,13.81821 20.15311,9.76891 23.97407,22.10122c3.19596,-2.79789 1.02147,-2.75047 0.12755,-5.67745c7.21728,4.77116 -6.71903,10.29845 -1.48544,18.65523c-0.3311,-0.9379 2.94511,-4.85547 3.31767,-5.65374c0.59683,-0.8773 1.6098,-0.93527 2.26483,-0.29507l1.0422,-2.14979c-1.94117,-1.05382 1.57154,-5.57207 1.82903,-6.85773c0.36432,-0.77456 1.18968,-1.14076 1.84152,-0.81934l0.97045,-2.67933c-1.83515,-0.49003 -0.45972,-4.90817 -0.60507,-6.1385c-2.58052,-2.3105 -4.69602,-5.21114 -6.69724,-7.89311l1.23618,-0.21076c-0.14004,0.60595 0.07998,1.26458 0.5979,1.61761c0.88754,0.34776 4.28068,3.59352 5.34679,2.8216l0.53253,1.43583c-0.85752,0.22921 -1.00792,1.42529 -1.01616,2.22883c0.45653,0.38201 0.94866,0.74031 1.39403,1.13813c0.06431,-0.28717 0.01541,-1.6018 0.27822,-1.79676c0.40152,0.52691 1.13654,0.52954 1.58084,0.10802c0.41614,0.21603 -0.1039,3.06925 -0.05288,3.43018c0.49825,0.53745 0.97258,1.09334 1.41981,1.67294c-0.18681,-1.312 1.43788,-6.32028 -0.81155,-6.56529"/><path d="m159.99718,107.45033c-0.26042,-0.30561 -0.32393,-0.74821 -0.0954,-1.0749c-0.41215,-0.08431 -1.10146,3.71998 -1.2415,3.93602c0.27716,0.26872 0.52429,0.52427 0.75362,0.79036c0.35714,0.10275 0.96939,0.31088 1.09614,-0.21076l0.87399,-3.35641c-0.40684,0.3662 -1.0608,0.40045 -1.38685,-0.08431"/><path d="m108.74412,202.50219c-9.62641,-3.78058 -16.62898,5.46669 -8.76703,7.02898c-8.62593,0.37147 -6.96085,-11.66578 -10.52139,-10.95182c3.12129,3.3327 3.11943,9.54497 5.99465,11.2627c5.79827,2.44223 11.82508,2.84268 18.0355,2.55551c-3.12766,-2.75047 -3.88845,-6.22017 -4.74172,-9.89536"/><path d="m138.15109,209.39944c7.84547,-1.54384 0.89472,-10.80692 -8.76703,-7.02898c-0.85327,3.67783 -1.61406,7.14489 -4.74066,9.898c6.20936,0.28717 12.23723,-0.11328 18.03443,-2.55551c2.87655,-1.71773 2.87336,-7.92999 5.99465,-11.2627c-3.55921,-0.71396 -1.89547,11.32065 -10.52139,10.94918"/><path d="m201.27386,134.73898c-0.01541,0.18705 0.05713,0.35566 0.17033,0.47422c0.43899,-0.36884 1.12617,-0.21603 1.44372,0.22394c0.50356,-0.14226 0.33748,-1.68611 0.44138,-2.05495c-0.57,-0.61122 -1.17214,-1.19345 -1.80618,-1.74143l-0.24926,3.09823"/><path d="m198.85437,146.19136c0.05076,-0.43997 2.47768,-4.41814 1.84232,-4.76853c-0.4358,0.08694 -0.94547,-0.15017 -1.1283,-0.56379c-0.59152,-0.24238 -2.1309,4.09146 -2.3977,4.36281c0.77434,-0.47158 1.75224,0.31088 1.49049,1.19609c0.0768,-0.05796 0.14748,-0.12909 0.19319,-0.22657"/><path d="m226.3866,127.85227c-2.01691,0.60858 -2.84599,2.27098 -3.60333,4.15732c-5.06405,-7.83251 -14.69152,-13.23597 -16.1573,-22.81255c1.13361,-7.66127 11.36935,-5.90929 9.29238,2.07339c5.30826,-2.83214 2.74129,-8.09596 -2.25766,-9.02596c5.43502,0.43206 8.4051,4.98457 12.12003,-2.58449c-3.21536,1.15656 -8.11227,0.33459 -9.79807,0.08694c6.76607,-0.90892 10.44645,-0.84569 10.23919,-9.17613c-2.3039,4.98983 -8.68545,5.08468 -13.32434,6.69966c0.29815,-2.21302 -0.40046,-3.57245 -2.20053,-4.29168c1.83833,12.17425 -21.4443,8.20662 4.14064,34.4757c-3.13882,-1.71509 -6.78866,-1.13813 -9.82996,-3.05081c2.36767,6.32555 6.36721,5.23485 11.60186,7.43469c-5.61758,-0.02898 -7.35945,5.40346 -3.20021,8.01166c-1.08472,-4.19684 4.72817,-7.0843 7.63581,-3.80429c6.64356,8.4569 -5.51288,20.20698 -16.29601,-0.99059c0.0768,1.17237 -0.74724,2.22356 -1.8952,1.86789l-1.21466,3.35378c2.46732,0.90892 -1.32122,5.63266 -1.5819,6.99473c-0.42969,0.90892 -1.38792,1.18028 -2.10805,0.68498l-1.19181,2.4554c1.49581,1.35679 -2.5202,5.2085 -2.97487,6.40458c-0.46609,0.69025 -1.2997,0.92472 -1.89122,0.55852l-0.43075,0.89048c0.08928,0.11328 0.14934,0.18179 0.16183,0.17651c2.72481,3.19834 3.97455,5.66165 3.24166,9.06021c2.21089,-1.88107 3.19915,-7.09221 1.42937,-9.93225c2.00017,2.07339 4.9078,3.55137 6.05258,6.19382c1.15221,4.80805 0.26573,9.57922 -3.02456,13.37033c-1.39616,1.39631 -1.02466,2.12608 -1.20217,3.83327c-0.929,2.71095 -4.20069,2.93489 -5.43289,5.23221c-0.86682,2.01016 -2.29619,3.65675 -2.91694,5.76703c3.71095,-0.57697 3.07585,-5.70906 6.5883,-6.75235c-1.42512,2.15243 -2.8056,4.11253 -3.7803,6.61008c2.93129,-0.75611 8.46914,-1.54121 7.54307,-5.64584c-0.69648,-1.89424 1.1554,-3.13775 1.06293,-4.94505c2.32329,-0.82725 1.78439,-1.75724 2.89621,-3.55401c0.51472,1.08807 0.5397,2.00489 0.47646,3.18517c-0.28646,-0.59014 -0.46503,-0.95634 -0.67177,-1.3805c-1.63983,2.21302 -0.26972,4.36281 -0.50011,6.72863c8.09553,-7.19232 -2.65838,-7.13963 5.74645,-23.07601c1.93267,-3.17463 -5.49747,-2.81633 -6.05072,-9.98757c-0.52004,-3.10086 2.22551,-5.64057 2.80985,-8.59917c3.23768,5.70906 14.54697,5.51411 13.00014,12.80654c2.2744,-1.70192 2.17688,-4.82122 1.28109,-7.15807c11.66564,-4.16522 2.46068,-14.80616 6.21547,-22.34624"/><path d="m191.65676,155.25947c0.26042,0.10802 0.48682,0.2898 0.58116,0.56379c0.18681,0.02898 0.39568,-0.06586 0.52535,-0.25819c0.09035,-0.27399 2.96557,-4.00978 2.63872,-4.2706c-0.32074,-0.10011 -0.61251,-0.31615 -0.71003,-0.65337c-0.27317,-0.25819 -0.67283,-0.38464 -0.94149,0.01581c-0.10709,0.47422 -3.30916,4.05984 -2.48725,4.51562c0.13393,-0.00263 0.26892,0.02371 0.39355,0.08694"/><path d="m189.9752,155.99715c0.04757,0.08167 0.09646,0.16334 0.14535,0.24502l0.04969,-0.10275l-0.19505,-0.14226"/><path d="m77.07525,172.20489c1.16789,0.21076 2.4644,0.4347 3.59482,-0.07377c-1.76154,-2.97177 -3.49411,-5.89612 -5.29391,-8.93375c-3.13591,3.82536 -8.57411,1.49116 -11.99222,-0.85886c-2.78407,-2.0365 3.22731,-5.2006 1.29545,-11.98193c2.67699,4.2785 -2.18618,7.98005 5.32394,10.37748c-2.17263,-3.20361 -1.87766,-7.33195 -2.69373,-10.9966c-0.09752,-0.63229 -0.41002,-1.26195 0.10284,-1.89687c0.25324,-0.8773 0.31357,-2.06548 -0.89153,-2.19458c-8.39235,-4.77644 -6.70149,-2.45803 -14.87063,-3.56718c-2.00043,3.51185 2.25766,6.6417 1.58403,10.07715c-0.60002,1.68348 1.97226,1.61234 1.9441,3.25103c0.57186,2.55814 0.28965,6.14376 -2.65519,7.12909c-1.46365,0.8773 -0.29071,2.72939 0.98719,3.16146c-2.60125,4.65261 -0.6072,5.39556 3.37028,7.72186c0.02391,-1.79413 0.05607,-3.36168 0.8057,-4.88445c5.48896,3.61197 -2.69054,4.21528 8.19198,8.59126c-1.10252,-1.80466 -1.07436,-3.77004 -1.23831,-5.57734c1.02546,0.23974 2.02913,0.47422 3.05485,0.71396c1.17799,4.99247 3.90281,5.42981 8.70671,4.98983c-1.71583,-1.69401 -2.20478,-3.89913 -3.45239,-5.65638c1.44611,0.48476 2.88479,-0.49793 4.12602,0.60858"/><path d="m175.08996,144.39196c-1.49155,0.23711 -1.82797,0.85886 -1.55692,2.29732c-1.65976,3.55137 -1.70441,7.86939 -4.53631,10.87015c6.09855,-1.70719 4.7481,-3.99661 6.23035,-8.59126c-0.30214,6.23334 0.02471,6.15167 2.30336,10.41701c-4.70346,3.27738 -12.38364,0.52954 -14.95991,6.88934c0.71615,0.81408 1.63797,-0.01317 2.59195,0.20813c-0.6157,0.73504 -0.8615,1.6018 -1.84046,2.242c0.21179,-0.61385 0.34465,-0.99586 0.47539,-1.37523c-1.76048,-0.58487 -3.20632,3.40647 -4.51745,4.69213c12.55477,-2.50546 -1.51972,-6.15694 23.23295,-9.01806c4.37421,-2.04178 -4.13771,-5.24012 4.45101,-10.6304c0.76504,-2.94279 1.22688,-5.98042 2.83881,-8.63868c0.38425,-0.87204 -0.22109,-2.10237 -1.02865,-2.71358c-3.76383,2.62928 -5.55114,-1.61234 -13.68414,3.35115"/><path d="m48.3079,93.21323c0.05394,-0.82725 0.10682,-1.62025 0.16502,-2.50019c-0.94255,-0.16071 -1.81335,-0.31088 -2.78514,-0.47949c1.13973,-0.85096 2.51941,-1.05909 3.63734,-0.63229c-0.96036,4.02295 0.7576,6.85246 5.09036,7.07376c1.32441,-1.95483 2.5109,-2.25254 3.80023,-0.87204c-5.7236,-0.58487 -1.47508,5.40873 1.44691,3.38013c0.77753,-1.11441 3.24698,-2.09183 2.53269,-3.66202c-4.54109,-3.29055 -4.22461,1.56492 -5.06963,-6.55739c-0.18787,-0.01581 -0.3986,-0.03425 -0.57717,-0.05006c-0.42437,1.54384 -1.9534,2.7373 -3.20526,1.28039c-0.43394,-0.48739 -0.81287,-0.93527 -1.52397,-1.05909c3.10906,-2.46067 6.80221,1.08807 6.57899,-4.69213c3.46302,4.30222 3.76596,-0.47685 7.19257,-0.54799c-0.15891,3.40911 -0.86682,3.14829 -3.82734,2.95333c0.96434,0.7324 4.66067,4.38389 2.50691,4.72901c-0.90004,-2.28415 -2.40913,-4.50771 -4.966,-4.96349c-2.06128,2.04178 -1.0523,4.3312 -0.72863,6.68648c1.83222,-0.61648 3.39738,-1.79413 5.33537,-1.64396c0.64679,1.87843 -2.39663,2.91908 -0.67044,4.78171c2.95308,0.47422 6.16153,0.49266 5.22004,-3.65148c-0.96222,-0.56906 -1.91699,-0.95897 -2.91561,0.08958c0.05288,-1.60971 1.64116,-1.88634 2.87947,-1.58073c2.72774,-2.87956 1.8176,-6.68385 -1.11076,-8.99698c0.77328,-1.12759 1.58934,-1.91005 2.99772,-2.18667c-0.47646,0.97478 -1.47189,1.33308 -1.6959,2.22092c0.65184,0.79036 1.2601,1.53331 1.86012,2.26307c1.5734,-0.68762 1.97944,-3.12721 0.86443,-5.62212c-1.93692,0.49793 -5.34573,2.09183 -5.34573,2.09183c-1.66694,-0.62966 -0.95185,0.18442 -0.7111,0.98532c-5.33537,0.96951 -10.5679,2.35792 -14.80393,5.86714c-0.75893,0.54799 -1.10677,0.21603 -1.35577,-0.85096c-0.50542,-0.76929 -0.73794,0.55589 -0.80862,0.88257c0,0 -3.20446,0.77456 -4.60142,1.95747c0.98799,1.61234 2.37803,4.15468 4.59424,3.30636"/><path d="m69.23615,91.61406c0.49001,2.39217 -0.19292,4.38916 -1.77589,6.26759c2.37378,4.20474 6.38899,7.39518 8.16488,11.94504c3.96233,-7.33722 -0.26866,-9.80315 -5.71722,-13.82084c3.49597,1.24614 7.02303,2.43169 8.96527,5.73278c0.41428,-6.29393 -2.3977,-9.43695 -8.55843,-10.40646c0.0186,-0.08431 0.03853,-0.17124 0.05713,-0.25555c2.56909,-0.11856 5.12039,-0.11328 7.52447,1.4411c-0.63404,-1.94957 -2.23056,-4.83439 -4.55783,-4.58675c0.83467,-1.7309 0.8243,-2.87956 -0.0186,-3.92284c-0.39568,1.21189 -1.17002,1.96537 -2.43118,2.01016c0.27211,2.17877 -0.45467,3.9887 -1.65259,5.59578"/><path d="m49.63231,105.95127c0.7297,1.75724 1.82159,3.79902 3.62671,4.53406c-0.93192,-3.46706 1.4315,-6.48889 2.53083,-9.624c0.02073,7.22393 -4.12204,11.14414 5.87294,13.79976c-2.66237,-4.25216 -0.89977,-9.41588 -2.58451,-13.78396c-1.60688,-0.91419 -3.42024,-1.14339 -4.50708,-2.47911c-0.29895,-0.62966 -0.84503,-0.8615 -1.4222,-0.98532c-1.87766,-0.40572 -3.61316,-1.0222 -4.55465,-2.57132c-1.37224,0.4268 -2.20584,0.3741 -3.46488,-0.14754c-0.11108,1.54121 1.21333,3.09296 2.95839,2.50282c-1.39828,2.0207 -0.62181,3.83327 -0.11108,5.91983c0.99942,-2.08129 2.53057,-3.33534 4.24321,-4.39179c-1.31086,2.21829 -3.64744,4.45239 -2.5877,7.22657"/><path d="m89.77537,179.73969c1.35257,-1.24614 -0.48576,-1.97328 -1.20616,-2.93489c-12.06157,-11.13097 -16.55616,-25.592 -15.49961,-41.65747c-0.29151,-0.14754 -0.65609,-0.32668 -1.25399,-0.62175c-2.02195,17.03499 4.60886,34.22278 17.95976,45.21411"/><path d="m197.46858,87.15641c-1.14398,2.19194 2.16412,3.10086 2.20584,5.17425c-0.87399,-0.68762 -1.61937,-1.27512 -2.4559,-1.93376c-1.05256,4.05984 3.78243,5.3613 5.27,8.55701c1.94516,-5.91456 0.8894,-9.50809 -5.01994,-11.79751"/><path d="m64.94405,104.61292c-3.19596,0.19232 -2.7288,-3.78848 -3.66524,-6.01468c-0.58009,0.65073 -1.06399,1.19345 -1.5819,1.77305c0.65901,2.21039 1.32042,4.43131 2.02302,6.78659c0.53359,-0.37938 0.97789,-0.69288 1.45329,-1.03011c2.22976,1.56229 4.27031,0.48739 5.00533,-1.9522c0.66114,0.16598 1.26542,0.44787 1.73975,-0.02898c-1.04433,-2.14189 -2.05012,-4.2021 -3.07771,-6.30974c-0.64254,0.12909 -1.24256,-0.76402 -2.00335,-0.05533c0.71402,1.97328 3.35487,5.91192 0.10682,6.83139"/><path d="m196.85394,77.2426c-0.01647,0.08694 -0.03402,0.17651 -0.05076,0.26609c-1.00261,-0.05533 -2.00548,-0.10802 -3.05485,-0.16598c1.12113,3.58562 5.31969,1.85209 7.9616,3.48287c-1.51972,-2.87166 -2.60949,-5.68008 -6.13788,-6.23334c0.37787,-1.70982 -0.0861,-3.31953 -1.15726,-3.95446c0.01754,1.49642 -0.61145,2.58712 -1.99007,3.15356c-0.67762,2.97177 2.44154,2.8216 4.42922,3.45126"/><path d="m195.94168,97.87902c-0.08318,0.01581 -0.16502,0.03161 -0.24819,0.04742c-0.72545,3.16409 1.49687,5.9409 2.88479,8.63868c2.407,-4.24952 2.31266,-9.07602 -1.54364,-12.44034c-1.17905,2.25781 0.46184,4.41287 1.04433,6.54685c-0.07998,0.03161 -0.15997,0.06586 -0.24075,0.09484c-0.63218,-0.96161 -1.26435,-1.92322 -1.89653,-2.88747"/><path d="m195.05308,80.02732c1.37649,3.25367 3.58233,2.47384 5.01888,4.60255c-1.20935,-0.39518 -2.25872,-0.73768 -3.30703,-1.07753c-0.06856,3.45916 4.32638,3.828 6.75942,5.15581c-0.39249,-5.60895 -3.13696,-7.72976 -8.47127,-8.68083"/><path d="m182.38616,74.15754c1.50298,0 3.66418,0.95371 4.90355,0.09221c0.03109,-4.72638 -5.7818,-4.09936 -9.08564,-4.19947c0.98826,1.76778 2.24092,3.51449 4.18209,4.10726"/><path d="m165.85684,141.51504c-1.24044,-0.09748 -2.40806,-0.18969 -3.75958,-0.29507c0.05288,0.66127 0.09114,1.15393 0.13286,1.68348c0.75043,0.18442 1.39297,0.34249 2.07802,0.51374c0.20753,3.89123 -1.95552,3.95709 -4.8807,2.32894c-0.86894,4.93714 7.15085,4.43921 6.42939,-4.23109"/><path d="m163.0802,125.76307c-4.42922,5.37448 -4.46669,6.15694 2.28264,8.46744c-0.06457,-0.61122 -0.10603,-1.0064 -0.15359,-1.46744c-1.3175,-0.38728 -2.61586,-0.8694 -3.78987,-1.65977c0.85114,-1.04592 1.64409,-2.01806 2.4652,-3.0271c-0.23863,-0.68498 -0.48682,-1.39895 -0.80437,-2.31313"/><path d="m142.4485,106.18047c0.739,-0.05796 1.3919,-0.10802 2.03869,-0.16071c0.71003,-2.62137 -0.79295,-2.91117 -2.60231,-4.32066c-0.73395,2.17614 -2.66768,3.23522 -3.76702,5.07414c1.77722,-0.12119 2.79948,-0.69025 3.81777,-2.06285c0.18176,0.51901 0.34572,0.99322 0.51286,1.47008"/><path d="m152.63879,118.08073c0.63935,-1.72563 3.96632,-5.98042 2.17263,-7.31614c-0.8243,0.48212 -2.56405,0.27926 -2.40009,1.57809c-0.01143,1.88897 -0.00399,3.78058 -0.00399,5.67218c0.0768,0.02108 0.15359,0.04479 0.23145,0.06586"/><path d="m185.79099,69.71043c0.06936,-0.09484 0.13791,-0.18969 0.20753,-0.28453c-1.87474,-2.65035 -2.67699,-3.19307 -5.98535,-3.20888c0.05607,3.20624 3.41094,3.21415 5.77781,3.49341"/><path d="m177.34257,61.7699c-0.12888,2.26307 1.78439,3.56981 4.96175,3.4012c-0.82749,-2.28942 -2.46759,-3.53029 -4.96175,-3.4012"/><path d="m169.90314,85.3254c-2.59009,-1.19609 -4.69495,0.32405 -7.29328,-0.23974c0.73714,3.57508 5.03137,0.97215 7.29328,0.23974"/><path d="m174.83061,58.1553c0.66725,2.28152 1.56835,2.76891 3.93815,2.43432c-0.75362,-1.87316 -1.97439,-2.62665 -3.93815,-2.43432"/><path d="m176.1032,56.97502c-0.91678,-1.94693 -1.39323,-2.19721 -3.33015,-1.98908c0.7972,1.92322 1.95366,2.63982 3.33015,1.98908"/><path d="m164.26856,120.24369c0.61464,1.04328 1.22821,2.08656 1.82186,3.09559c2.38335,0 0.36113,-1.97064 -0.18681,-2.81633c-0.3125,-0.32932 -0.97577,-0.32932 -1.48119,-0.47949c-0.05102,0.06586 -0.10284,0.13173 -0.15386,0.20022"/><path d="m157.40736,122.97045c1.21439,-0.69288 2.47476,-1.23034 3.56665,-2.0971c-0.2575,-0.36357 -0.44537,-0.62702 -0.72758,-1.02484c-1.04326,1.01957 -3.50554,1.34362 -2.83908,3.12194"/><path d="m173.21841,53.81883c0.34147,-1.23824 -1.43655,-2.87956 -2.70701,-2.37636c0.17007,1.3647 1.61618,2.56342 2.70701,2.37636"/><path d="m145.97052,122.44354c0,-0.00527 -0.00425,-0.00527 -0.00425,-0.0079l0,0.01581c0,-0.00263 0.00425,-0.0079 0.00425,-0.0079"/><path d="m53.74291,74.95845c0.65689,-0.60858 -0.33748,-1.60707 -0.97364,-0.98532c-0.66221,0.61385 0.32791,1.61761 0.97364,0.98532"/><path d="m54.61053,76.76311c0.65715,-0.60595 -0.33721,-1.60444 -0.97471,-0.98532c-0.66114,0.61385 0.32924,1.62025 0.97471,0.98532"/><path d="m50.06306,68.62763l-0.00319,0.00527l-1.5734,0.11328l0.82085,2.04441l1.10651,-1.28039c0.06564,0.03688 0.13393,0.0685 0.20674,0.08694c0.00106,0.01317 0.16077,2.72149 0.16183,2.73466l0,0c0.28141,2.39217 3.95994,0.91946 2.48911,-0.99586l-1.76871,-2.08656c0.04039,-0.06323 0.06856,-0.13173 0.09035,-0.20286l1.69191,0.17651l-0.82111,-2.04441l-1.22157,0.98795c-0.06351,-0.03688 -0.131,-0.06586 -0.20143,-0.08694l-0.14111,-1.97591c-0.50356,0.20022 -1.51653,0.59804 -2.02009,0.79563l1.26648,1.53331c-0.03428,0.06323 -0.06537,0.12646 -0.08318,0.19496"/><path d="m45.56235,79.31599c1.02121,0.02898 1.04007,-1.55175 0.02073,-1.55175c-1.005,-0.02371 -1.03184,1.55438 -0.02073,1.55175"/><path d="m45.39733,81.33932c1.02121,0.02898 1.04007,-1.55175 0.02073,-1.55175c-1.00393,-0.02371 -1.03184,1.55438 -0.02073,1.55175"/><path d="m48.66185,74.421c1.02121,0.02635 1.04007,-1.55438 0.02073,-1.55438c-1.00393,-0.02371 -1.03184,1.55438 -0.02073,1.55438"/><path d="m46.20994,77.47444c1.02147,0.02635 1.04007,-1.55438 0.02073,-1.55438c-1.00367,-0.02371 -1.03184,1.55438 -0.02073,1.55438"/><path d="m55.70773,79.40556c-0.05288,-0.77456 0.51605,-2.30523 0.51605,-2.30523c-0.79109,0.31351 -2.41046,0.95107 -3.20553,1.26458c0,0 1.47402,0.7245 1.97226,1.32518c-0.67576,0.24238 -1.32972,0.3504 -2.2659,-0.07377l1.24549,2.45803c0.26892,-1.08807 0.83679,-1.7309 1.26116,-1.81521c1.35045,2.05231 -2.00628,4.31539 -3.45558,2.55814c-0.42225,-0.73504 0.0768,-1.52804 0.94042,-0.92209c-0.12861,-1.52014 -1.46152,-1.51486 -1.86411,-0.38464c0.03321,-1.56229 -0.36432,-2.50809 -2.01691,-2.96914c-0.42862,1.55702 0.09752,2.49755 1.67225,3.16673c-0.89578,-0.11328 -1.86544,0.76138 -0.64785,1.85472c0.01143,-0.98269 0.84104,-1.0907 1.28933,-0.4268c0.71429,1.82311 -1.44399,2.52126 -3.21589,0.67445c0.39461,-0.1449 0.81394,-0.08431 1.37755,0.04215l-1.69085,-2.11291c0.08716,0.74558 0.03003,1.28039 -0.12144,1.61761c-0.36246,-0.42153 -0.47965,-0.78246 -0.63324,-1.59654l-1.28827,1.12232c1.23008,0.76402 2.60975,1.97328 4.30486,4.36808c2.24304,-2.18667 11.28617,-5.93564 14.77815,-5.83026c-0.42676,-2.89273 -0.26254,-4.71057 0.10178,-6.10425l-1.71291,0.06323c0.45254,0.69552 0.61676,1.03801 0.64573,1.58863c-0.34465,-0.14226 -0.75574,-0.49003 -1.21041,-1.09334l0.23677,2.68988c0.3218,-0.47949 0.58434,-0.80881 0.97045,-0.97215c-0.00611,2.55024 -2.06049,3.51185 -2.80268,1.70192c-0.13393,-0.78773 0.54183,-1.27512 1.2322,-0.56906c0.12675,-1.62288 -1.18331,-1.59654 -1.75516,-0.90629c0.67974,-1.55702 0.41109,-2.6003 -0.98002,-3.44072c-0.88223,1.46217 -0.51472,2.41851 0.59285,3.53293c-1.07754,-0.54799 -2.04799,0.35566 -1.08791,1.54912c0.20541,-1.03011 1.119,-0.793 1.32042,0.02898c0.16608,2.26571 -3.84381,2.90327 -4.28307,0.49529c0.36644,-0.22921 1.22609,-0.14754 2.17369,0.46105l-0.7972,-2.63455c-0.38717,0.94317 -0.93617,1.30937 -1.59652,1.5939"/><path d="m98.08907,162.77057c1.21014,0.69815 2.55953,1.46744 3.79386,2.16296c-3.02377,3.64358 2.39663,5.21641 2.10194,1.6624c2.02514,0.8615 9.99312,3.28792 6.79902,-1.43319c-10.45389,0.34249 -15.7789,-10.53292 -9.99923,-18.84229c3.51776,1.58863 15.86819,-4.36808 14.84166,1.69401c0.64865,0.67708 0.83227,0.73768 2.29805,0.72713c3.57383,-8.14339 -8.73275,-5.70906 -13.15054,-4.75536c-3.93735,1.15393 -7.56087,-4.5525 -11.03931,-1.42793c-1.38685,1.21453 -0.48363,3.91757 1.39616,4.00451c1.66587,0.04742 2.13941,-2.22356 0.65609,-2.93225c3.24273,-1.08543 1.68261,4.07565 0.50941,5.39819c-3.72025,-1.90478 -4.33356,4.03876 -0.6537,2.47911c0.16289,1.06436 0.20966,2.11291 -0.04571,3.13248c-4.02026,-0.85886 -2.95122,4.85811 0.06324,2.55814c0.86788,0.81671 1.2694,2.0892 1.36905,3.30636c-4.0285,0.5717 -0.81048,5.69589 1.06,2.26571"/><path d="m109.76347,168.98283c-0.16821,-0.06323 -0.34253,-0.10802 -0.56256,-0.17915c-0.28141,0.75085 -0.71322,2.11818 -0.04146,2.5924l3.38596,1.43846l4.35136,-3.20097l1.17613,-17.30371l-1.28295,0.09484c-0.34572,0.03952 -2.71445,19.98568 -3.9509,18.81858c0.24713,-1.31727 3.13909,-18.81594 3.13909,-18.81594c0,0 -0.86044,-0.12119 -1.28083,-0.17915c-0.07068,0.40308 -0.16316,0.92472 -0.16316,0.92472l-4.79965,-6.25178l-0.63111,0.2977l5.13926,6.69966l-0.33031,1.18554c-0.47327,-0.30297 -5.43289,-7.12909 -5.92795,-7.76401l-1.01111,-0.07377l6.68396,8.64132l-0.35502,1.15656l-7.49258,-9.76364l-0.95903,-0.01317l8.112,10.60142l-0.42862,1.52804l-8.90627,-12.01091l-1.17905,0.03425l9.85387,12.89348l-0.36033,1.19082l-10.87508,-14.08693l-0.18495,1.08016c0,0 10.12173,13.19909 10.74567,14.06322c-0.5211,1.62552 -0.12144,1.76515 0.59046,3.10876c0.39036,1.50169 -0.65689,3.84381 -2.45483,3.29318"/><path d="m110.78494,163.49244l-10.40925,-13.68121c0,0 -0.20036,0.64283 -0.28858,0.92736c0.77753,1.0064 9.97425,13.10688 9.97425,13.10688l0.72359,-0.35303"/><path d="m100.34965,154.42169c2.40302,3.02183 4.76351,6.10425 7.10541,9.15769c0.3497,0.04215 0.99835,0.17915 0.99835,0.17915l-8.48987,-11.17312c0,0 -0.14828,1.14339 0.38611,1.83628"/><path d="m118.49622,149.33701c-1.15195,-0.09221 -2.37485,-0.31878 -3.49916,-0.4268c-2.19123,1.88897 0.27211,2.96914 1.90796,2.82424c1.40333,0.3662 3.27594,-1.47271 1.5912,-2.39744"/><path d="m118.14545,198.15518c-0.34147,1.54384 2.11124,2.04178 2.40727,0.48739c0.34147,-1.54384 -2.11151,-2.03914 -2.40727,-0.48739"/><path d="m120.35023,188.87894c0.42358,-1.91268 -2.61799,-2.52917 -2.98417,-0.60331c-0.42358,1.91268 2.61772,2.52917 2.98417,0.60331"/><path d="m109.96277,183.77319c0.42464,-1.91532 -2.61772,-2.5318 -2.98417,-0.60595c-0.42358,1.91268 2.61772,2.52917 2.98417,0.60595"/><path d="m128.129,200.63693c-1.73231,0.17388 -2.62915,1.33572 -3.54353,2.5239c-0.81181,-0.50056 -1.87899,-1.00113 -2.87761,-1.00113c-0.53545,0 -1.05256,0.1449 -1.49767,0.50847c3.17523,1.24351 2.03657,5.99096 -1.04645,6.0094c-3.08382,-0.01844 -4.22168,-4.7659 -1.04619,-6.0094c-0.44643,-0.36357 -0.96222,-0.50847 -1.49899,-0.50847c-0.99862,0 -2.06554,0.50056 -2.87735,1.00113c-0.91438,-1.18818 -1.81123,-2.35002 -3.5438,-2.5239c0.94866,8.71245 4.9575,13.06736 8.96527,13.06736c4.00883,0 8.01766,-4.35491 8.96633,-13.06736l0,0zm-1.4501,1.88107c-1.23512,6.90515 -4.55783,10.02446 -7.51623,10.02446c-2.95733,0 -6.28004,-3.11931 -7.51411,-10.02446c0.37787,0.34249 0.73794,0.79827 1.16151,1.34625l0.64679,0.84042l0.90402,-0.55852c0.3893,-0.23974 0.7661,-0.43206 1.11793,-0.56906c-0.39754,0.79827 -0.53146,1.74143 -0.34678,2.72412c0.39249,2.07076 2.04694,3.52502 4.03806,3.53556c1.97731,-0.01054 3.63202,-1.46481 4.02425,-3.53556c0.18468,-0.98269 0.05102,-1.92585 -0.34572,-2.72412c0.35103,0.137 0.72784,0.32932 1.11687,0.56906l0.90535,0.55852l0.64546,-0.84042c0.42358,-0.54799 0.78391,-1.00376 1.16258,-1.34625"/><path d="m99.46742,177.80857c1.32361,-1.58073 -3.32989,-3.64885 -4.01096,-4.53669c-0.55007,-0.32932 -1.24336,-0.24502 -1.61087,0.22657c-1.3276,1.50696 3.24884,3.61197 3.87703,4.44975c0.56574,0.43206 1.34726,0.37147 1.7448,-0.13963"/><path d="m98.87377,181.17552c5.14218,0.02371 4.47386,-8.06699 -0.59391,-7.20812c2.34907,1.26195 4.38777,4.59202 0.73289,5.56153c-1.37543,0.2819 -2.78593,-1.19082 -3.79811,-1.91532c0.03641,1.97064 1.66189,3.56191 3.65913,3.56191"/><path d="m91.56402,182.51914c1.13148,2.13398 7.74662,7.92999 9.5435,5.19006c-3.23236,-1.62025 -8.70272,-5.61686 -6.60504,-10.69363c-4.74571,-2.88747 -0.55219,-7.50056 3.14626,-3.58299c3.94134,-2.41588 8.31874,-0.68762 12.19976,1.98645c1.39509,-2.99021 -5.38001,-5.05306 -6.96298,-5.9409c-1.99193,-0.6639 -8.27915,0.74821 -10.3872,0.84042c-1.42937,0.18179 -2.46015,1.45164 -2.33153,2.87429c0.31861,1.52014 0.27291,8.11177 1.39722,9.3263"/><path d="m149.84436,68.32202l2.92412,0.92736c-4.62427,-9.65825 -13.09341,-16.91116 -23.28796,-19.5141c-0.24899,0.67445 -0.47646,1.39631 -0.68293,2.16296c8.9549,2.23146 16.51073,8.27512 21.04677,16.42377"/><path d="m89.47563,69.24938l2.92385,-0.92736c4.53631,-8.14866 12.09187,-14.19231 21.04703,-16.42377c-0.20674,-0.76666 -0.43288,-1.48852 -0.6832,-2.16296c-10.19428,2.60293 -18.66342,9.85584 -23.28769,19.5141"/><path d="m143.15136,53.62124c2.09051,0.02898 2.09051,-3.22469 0,-3.19571c-2.09051,-0.02898 -2.09051,3.22732 0,3.19571"/><path d="m135.7595,49.44812c2.09051,0.03161 2.09051,-3.22469 0,-3.19307c-2.08945,-0.03161 -2.08945,3.22469 0,3.19307"/><path d="m131.75385,48.00702c2.08945,0.02898 2.08945,-3.22469 -0.00106,-3.19571c-2.08945,-0.02898 -2.08945,3.22469 0.00106,3.19571"/><path d="m139.56903,51.32919c2.09051,0.02898 2.09051,-3.22469 0,-3.19571c-2.09051,-0.02898 -2.09051,3.22469 0,3.19571"/><path d="m146.45734,56.2795c2.09051,0.03161 2.09051,-3.22469 0,-3.19307c-2.08945,-0.03161 -2.08945,3.22469 0,3.19307"/><path d="m154.81541,68.28777c-0.03003,2.07339 3.25309,2.07339 3.222,0c0.03109,-2.07339 -3.25203,-2.07339 -3.222,0"/><path d="m152.86812,64.53091c-0.03109,2.07339 3.25309,2.07339 3.222,0c0.03003,-2.07076 -3.25309,-2.07076 -3.222,0"/><path d="m149.46356,59.27498c2.09051,0.02898 2.09051,-3.22732 0,-3.19571c-2.08972,-0.02898 -2.09078,3.22469 0,3.19571"/><path d="m150.53686,60.97427c-0.03135,2.07339 3.25309,2.07339 3.222,0c0.03109,-2.07076 -3.25336,-2.07076 -3.222,0"/><path d="m99.09274,53.62124c2.09051,0.02898 2.09051,-3.22469 0,-3.19571c-2.09051,-0.02898 -2.09051,3.22732 0,3.19571"/><path d="m95.78677,56.2795c2.09051,0.03161 2.09051,-3.22469 0,-3.19307c-2.09078,-0.03161 -2.09078,3.22469 0,3.19307"/><path d="m85.81756,69.88431c2.08945,0.03161 2.08945,-3.22469 0,-3.19307c-2.09051,-0.03161 -2.09051,3.22469 0,3.19307"/><path d="m102.6748,51.32919c2.09078,0.02898 2.09078,-3.22469 0,-3.19571c-2.09051,-0.02898 -2.09051,3.22469 0,3.19571"/><path d="m90.09611,62.57344c2.09078,0.02898 2.09078,-3.22732 0,-3.19571c-2.09051,-0.03161 -2.09051,3.22469 0,3.19571"/><path d="m87.76485,66.13008c2.09051,0.02898 2.09051,-3.22732 0,-3.19571c-2.09051,-0.03161 -2.09051,3.22469 0,3.19571"/><path d="m110.49025,48.00702c2.09051,0.02898 2.09051,-3.22469 0,-3.19571c-2.09078,-0.02898 -2.09078,3.22469 0,3.19571"/><path d="m92.77947,59.27498c2.09051,0.02898 2.09051,-3.22732 0,-3.19571c-2.08945,-0.02898 -2.08945,3.22469 0,3.19571"/><path d="m106.48434,49.44812c2.09078,0.03161 2.09078,-3.22469 -0.00106,-3.19307c-2.08945,-0.03161 -2.08945,3.22469 0.00106,3.19307"/><path d="m123.89616,64.28853l2.14764,0c0.00399,-6.73918 0.98294,-12.5747 2.76016,-16.43168c0.59577,-1.24351 -1.38579,-2.15506 -1.95366,-0.88521c-2.56378,5.56417 -2.95202,13.2228 -2.95414,17.31688"/><path d="m116.2003,64.28853l2.14871,0c-0.00213,-4.09409 -0.39142,-11.75272 -2.95414,-17.31688c-0.56787,-1.26722 -2.55049,-0.36093 -1.95472,0.88521c1.77722,3.85698 2.75697,9.6925 2.76016,16.43168"/><path d="m121.12245,64.26218c2.26404,0.03161 2.26404,-3.49604 -0.00106,-3.4618c-2.26377,-0.03425 -2.26377,3.49341 0.00106,3.4618"/><path d="m121.12245,59.92571c2.26404,0.03161 2.26404,-3.49604 -0.00106,-3.4618c-2.26377,-0.03425 -2.26377,3.49341 0.00106,3.4618"/><path d="m121.12245,55.58661c2.26404,0.03425 2.26404,-3.49341 -0.00106,-3.4618c-2.26377,-0.03161 -2.26377,3.49604 0.00106,3.4618"/><path d="m119.88733,51.35553c0.73794,-0.38728 1.73231,-0.38728 2.46945,0c2.50267,-3.82273 -4.97317,-3.82009 -2.46945,0"/><path d="m122.51037,47.71459c1.9441,-3.58825 -4.72206,-3.58562 -2.77663,0c0.80969,-0.49529 1.96695,-0.49529 2.77663,0"/><path d="m120.06802,33.14027c-0.2846,2.21302 -1.45329,3.92547 -2.90445,4.18893l0,0.56379l2.8327,0c-0.13393,0.10011 -0.25112,0.21603 -0.35395,0.34776c-5.05103,1.11968 -5.56895,8.75724 -0.74219,10.55663c-1.8851,-1.80466 -0.43713,-5.27173 2.22231,-5.18216c2.65732,-0.08958 4.10636,3.37749 2.22152,5.18216c4.82888,-1.7994 4.30672,-9.43959 -0.74219,-10.55663c-0.10284,-0.13173 -0.22003,-0.24765 -0.35289,-0.34776l2.83164,0l0,-0.56379c-1.45116,-0.26345 -2.62012,-1.97591 -2.90445,-4.18893c2.23268,0.2819 3.95914,1.4411 4.22674,2.87956l0.56787,0l0,-7.85095l-0.56787,0c-0.26759,1.4411 -1.99405,2.6003 -4.22674,2.88219c0.28433,-2.21302 1.45329,-3.92547 2.90445,-4.19157l0,-0.56379l-7.91695,0l0,0.56379c1.45116,0.26609 2.61985,1.97855 2.90445,4.19157c-2.23295,-0.2819 -3.95808,-1.4411 -4.227,-2.88219l-0.5676,0l0,7.85095l0.5676,0c0.26892,-1.43846 1.99405,-2.59767 4.227,-2.87956"/><path d="m189.96484,155.99188l0.01036,0.00527c-0.18176,-0.30561 -0.35502,-0.61122 -0.50675,-0.90102c0.04385,0.36093 0.20993,0.68762 0.49639,0.89574"/><path d="m189.55986,162.01973c-0.24394,0.27136 -1.83196,4.7659 -2.36342,4.58938c-0.21817,-0.36357 -0.7111,-0.59541 -1.1283,-0.47422c-0.24394,-0.11592 -0.33642,-0.45051 -0.20674,-0.73768c0.30214,-0.30561 1.77934,-4.89762 2.4737,-4.57884c0.1807,0.4268 0.71721,0.70606 1.17081,0.58487c0.12356,0.15807 0.15147,0.40045 0.05394,0.61648zm-4.31708,15.66239c0.14642,-1.13286 -1.33265,-1.75724 -1.9255,-0.793c0.15466,-0.42943 -0.41215,-4.73692 0.3986,-4.72901c0.33934,0.24238 0.78364,0.28453 1.14398,0.02898c0.24607,0.03952 0.44218,0.2819 0.44218,0.57697l0.00717,4.64471c0,0.10275 -0.0279,0.18969 -0.06643,0.27136l0,0zm2.33153,8.09596c-1.38367,7.90628 -11.62896,0.0764 -4.29237,-3.26157c0.33854,0.76138 1.50404,0.79563 1.84152,0.01844c1.4137,0.41363 2.45084,1.70982 2.45084,3.24313l0,0zm1.05549,-26.46404c-2.23906,-1.38841 -3.47843,4.75536 -4.3107,5.80654c-0.40179,0.90102 -0.04358,1.87053 0.77726,2.15769l-1.6494,3.4012c-0.88754,-0.1449 -1.65764,0.52164 -1.6587,1.54648c0.33429,1.31991 -0.99331,7.07376 1.364,7.13963l0,1.58863c-5.6872,1.01167 -4.84137,9.89273 1.01111,9.7531c5.8097,0.14226 6.71159,-8.65976 1.0794,-9.73466l0,-1.53594c0.88754,0.1449 1.65764,-0.52164 1.6587,-1.54648c-0.31037,-1.28302 0.89791,-6.82348 -1.18224,-7.11328l1.25612,-2.58712c2.13622,1.14866 3.38277,-4.8423 4.19033,-5.8645c0.37575,-0.84042 0.08424,-1.79413 -0.65689,-2.09973l0.95185,-1.9601c-0.2668,-0.34776 -0.81713,-1.1592 -1.34009,-2.02333l-1.49076,3.07188"/><path d="m74.65682,149.36599l0.49931,1.91795l8.88634,-1.09334l-0.43075,-1.73617c-0.45148,-0.09221 -5.99146,0.91946 -5.99146,0.91946c0,0 5.26282,-6.08844 5.12996,-6.81294l-8.96739,1.00113l0.19106,1.53331c0.43474,-0.0606 5.27398,-0.72713 5.27398,-0.72713c0,0 -4.38458,4.90553 -4.59105,4.99774"/><path d="m78.32525,156.11306c1.88192,-3.38803 8.15771,-1.36733 5.56363,2.48965c-1.95047,3.28265 -8.11306,1.43056 -5.56363,-2.48965zm-0.5025,4.55513c4.29423,4.07565 11.05498,-2.4554 6.6069,-6.64697c-4.29742,-4.12043 -11.16367,2.45013 -6.6069,6.64697"/><path d="m83.79242,170.28693l1.50085,2.05495c1.59227,-1.94166 4.87565,-4.29695 7.23402,-5.19006l-1.50112,-2.05495c-0.57797,0.94317 -1.86092,1.86789 -2.85742,2.55551l-2.30336,-3.15356c0.97364,-0.7245 2.25553,-1.64396 3.34238,-1.89424l-1.50112,-2.05495c-1.5912,1.94166 -4.87432,4.29695 -7.23269,5.19006l1.49979,2.05495c0.57717,-0.94053 1.84763,-1.85736 2.84094,-2.54497l2.30257,3.15619c-0.96859,0.72187 -2.24331,1.62815 -3.32484,1.88107"/><path d="m82.94314,139.55493l0.12356,-1.8837c-2.53774,0.47158 -6.63187,0.47158 -9.16138,-0.02108l-0.1225,1.8837c2.53801,-0.47158 6.63081,-0.47158 9.16031,0.02108"/><path d="m147.44772,177.61361c5.43502,-2.35792 4.22248,-7.71659 -1.91407,-5.26382c-2.57335,-0.7245 0.67762,-3.31953 2.38308,-2.74783l0.04172,-0.03425l-1.29146,-1.51486c-1.93373,0.83515 -5.01038,3.41174 -3.37134,5.59578c1.13654,1.43846 3.42848,-0.09748 4.92853,-0.0764c2.48699,0.44261 -0.18893,3.01129 -1.72726,2.86375l-0.02498,0.03425"/><path d="m162.34519,158.90042l1.54364,-5.19533c-0.77966,0.05533 -7.84016,-1.98118 -8.46622,-2.44223l-1.46445,4.93187l1.47189,1.24087l0.0279,-0.01844c-0.11214,-1.13549 0.04252,-2.41061 0.4629,-3.82536l2.67725,0.77192c-0.2668,0.77192 -0.7382,2.52653 -1.10651,2.99021l1.33796,0.19759l0.85433,-2.87429l2.56378,0.74031c-0.30612,0.95107 -0.7297,1.69665 -1.27153,2.23673l1.36905,1.24614"/><path d="m158.78066,165.8082l0.83147,-1.60707l-6.96404,-4.62627l-0.76717,1.44373c0.26174,0.33722 4.80603,2.99548 4.80603,2.99548c0,0 -7.4862,0.97215 -7.83909,1.54648l6.96298,4.73428l0.81287,-1.1592c-0.34465,-0.22394 -4.18023,-2.69251 -4.18023,-2.69251c0,0 6.13362,-0.69552 6.33718,-0.63492"/><path d="m139.54618,182.73781l4.84748,-2.77945c-0.61756,-0.46895 -4.39388,-6.58374 -4.52861,-7.33195l-4.59956,2.63718l0.20541,1.87053l0.03135,0.00527c0.72863,-0.90102 1.75197,-1.7309 3.0724,-2.48701l1.4315,2.3184c-0.7475,0.38728 -2.34907,1.35943 -2.95122,1.45427l0.85034,1.0222l2.68097,-1.53594l1.37224,2.22092c-0.90508,0.49266 -1.75091,0.75875 -2.53668,0.79827l0.12436,1.8073"/><path d="m85.48859,122.01674c-1.44611,-1.13549 -3.31023,0.89048 -4.77175,1.22243c-2.52366,0.14754 -0.53067,-2.97177 0.99835,-3.1878l0.01674,-0.03952l-1.21865,-0.88521c-2.28583,1.15393 -4.01601,6.05419 -0.32898,6.15957c0.78152,0.03952 2.78274,-1.33308 3.43671,-1.48589c1.73576,-0.32142 1.18437,1.98645 0.14429,2.53444c0.51499,-0.02108 1.0515,-0.09484 1.54762,0.03688c0.96328,-1.34625 1.58004,-3.30109 0.17565,-4.35491"/><path d="m87.28015,119.3822c-4.04311,-0.26082 -4.88814,-7.18968 0,-6.14113l0,-1.6782c-6.33505,-0.37674 -6.24152,9.58975 0,9.37899l0,-1.55965"/><path d="m97.31871,107.12101c0.01674,-0.0079 2.77477,0 2.79125,-0.00527c-1.05363,-1.6545 -1.90264,-3.01392 -1.90264,-3.01392c0.96647,-0.56116 3.02775,-1.3805 3.94559,-1.31991l-2.19548,-1.65713l-6.74614,3.99661l0.77222,2.56869l0.03853,0.01317c0.54608,-1.06172 1.36693,-1.92059 2.26802,-2.41588c0.20143,0.36884 0.57292,1.03011 1.02865,1.83364"/><path d="m111.87285,104.61819c3.37666,-1.3041 0.44935,-6.48099 -2.54332,-5.26119c-3.34238,1.26722 -0.4629,6.48889 2.54332,5.26119zm5.14218,1.33835l0.01461,0.03952c-1.34221,1.07753 -3.05592,0.63229 -4.50097,-0.13173c-4.19671,2.33421 -8.72956,-3.13775 -5.36114,-6.65223c3.5446,-4.19157 10.57932,0.56379 7.18088,5.18742c1.10757,0.84042 1.99724,1.35943 2.66662,1.55702"/><path d="m118.28151,102.2471c-0.03003,-1.43583 0.17432,-3.965 -0.44324,-5.20323l2.99666,0c-0.48044,1.33835 -1.34939,7.47158 1.21147,7.15807c1.00792,0.01844 2.01265,-0.67445 1.9898,-1.723c-0.04146,-1.46217 0.19505,-4.16786 -0.44324,-5.43507l2.99772,0c-0.70153,2.30787 -0.70153,6.3519 0,8.65976l-2.54199,0c0.05607,-0.17651 0.08397,-0.46105 0.08397,-0.85623c-2.59487,1.82838 -6.09084,0.91682 -5.85115,-2.6003"/><path d="m130.9827,106.52297c0.52934,-2.13135 1.28295,-5.76439 2.47768,-7.56906l-2.32835,-0.77192c0.02498,2.29206 -1.21227,5.85924 -1.99299,8.04328c0.89472,0.11592 0.89472,0.11592 1.84365,0.2977"/><path d="m125.57559,124.70135l0,-0.0079l0.00106,0c-0.00425,0.01054 0.00319,0.22394 0.00106,0.23447c0.04039,-0.44261 0.75362,-0.12119 0.39647,0.18179l0.1132,0.10538c0.72146,0.08431 0.82616,-0.98532 0.09434,-1.02748l0,-0.02108l0.87001,-0.37674l0,-0.25819l-0.87001,-0.37938l0,-0.02635c0.73289,-0.04479 0.62606,-1.11178 -0.09434,-1.03011l-0.1132,0.10802c0.35714,0.30034 -0.35821,0.62175 -0.39647,0.18179c0.00106,0.02898 -0.00717,0.24238 0.00611,0.26609l-0.00824,0c0,-0.02371 0,-9.28415 0,-9.31576l0.74432,0l0,-0.69552l8.09446,0c0.45148,0.0764 0.06962,0.68762 -0.21817,0.3662l-0.11506,0.10802c-0.08822,0.70079 1.119,0.75085 1.10863,0.04479l0.00106,0l0.4265,0.85623l0.27822,0l0.41428,-0.85359c-0.00638,0.70343 1.19473,0.65337 1.11156,-0.04742l-0.11719,-0.10802c-0.2854,0.32142 -0.66965,-0.28717 -0.21896,-0.3662l8.10669,0l0,0.69552l0.74644,0c-0.08397,-0.16071 0.2947,11.43131 -0.39142,8.86789l-0.11612,-0.10802c-0.71535,-0.08431 -0.81899,0.99059 -0.09141,1.03011l0,0.02635l-0.87399,0.37938l0,0.25819l0.87399,0.3741l0,0.02371c-0.72758,0.03952 -0.62394,1.11178 0.09141,1.02748l0.11612,-0.10538c0.68506,-2.63455 0.30825,9.21302 0.39142,8.8837l-0.74644,0l0,0.69288l-8.09233,0c-0.4629,-0.06323 -0.0954,-0.69815 0.2078,-0.36884l0.114,-0.10802c0.08822,-0.68498 -1.0794,-0.76138 -1.10651,-0.07377l-0.0186,0l-0.41002,-0.82988l-0.27716,0l-0.40498,0.82988l-0.01754,0c-0.0279,-0.68235 -1.18011,-0.61385 -1.10544,0.07377l0.11506,0.10802c0.30533,-0.32932 0.6739,0.30824 0.20674,0.36884l-8.08303,0l0,-0.69288l-0.74432,0l0,-9.29205l-0.00001,0zm11.24392,-12.06096l0.00186,0c-0.00106,0 -0.00186,0.00263 -0.00186,0.00263l0,-0.00263zm9.11779,10.01128c0,-0.00263 0.00106,-0.00527 0.00106,-0.00527l0,0.00527l-0.00106,0zm-11.28112,12.03461l-0.01143,0c0.00425,0 0.00717,0 0.01143,0zm2.19946,0l-0.01143,0l0,0c0.00425,0 0.00744,0 0.01143,0zm8.33628,0.69552l1.49182,0c0,-1.32255 0,-22.11703 0,-23.43694c-6.67971,0 -15.18632,0 -21.85035,0l0,22.04853l0,1.38841l1.48651,0l18.87202,0"/><path d="m136.69806,111.04122l10.9261,0l0,25.24688l-23.73438,0l0,-12.70643l0.00425,-0.00263l-0.00425,0.00263l0,-12.54045c2.49549,0 10.44991,0 12.80828,0zm13.20768,25.2416c0.01143,-0.48476 -0.53678,-0.84569 -1.00579,-0.68498l0,0.10802c-0.86363,3.86752 -0.44324,-12.04252 -0.5211,-11.46029l0.79295,0.32405c0,-0.46105 0,-1.38577 0,-1.84945l-0.79215,0.32142l0.00319,-11.72374c0.11108,-0.59014 1.03609,-0.08694 0.52748,0.29243l0,0.10802c1.09083,0.34249 1.40732,-1.38577 0.24288,-1.40421l0.72758,-1.24877l-0.17246,-0.16598c-0.01329,0.00263 -1.30049,0.71133 -1.31511,0.70079c-0.01647,-1.07226 -1.8487,-0.80881 -1.50192,0.23184l0.11108,0c0.38717,-0.46631 0.95292,0.3662 0.32287,0.49003l-10.91069,0l0.33854,-0.72713c-0.49639,0 -1.48651,0 -1.98262,0l0.33934,0.72977l-10.90033,0c-0.65583,-0.09484 -0.10364,-0.96951 0.30001,-0.49266l0.11001,0c0.35714,-1.03801 -1.48332,-1.30674 -1.4966,-0.23184c-0.01249,0.01581 -1.30687,-0.70079 -1.3183,-0.70079l-0.17459,0.16598l0.7289,1.24877c-1.16683,0.01844 -0.84609,1.74671 0.24474,1.40421l0,-0.10802c0.85247,-3.85698 0.44537,11.97139 0.5203,11.42604l-0.77461,-0.31615c0,0.46368 0,1.38841 0,1.84945l0.77461,-0.31351c-0.07494,-0.27926 0.33217,15.21715 -0.5203,11.44974l0,-0.10802c-1.09083,-0.33722 -1.41263,1.38841 -0.24368,1.40421l-0.72997,1.24877l0.17459,0.16598c0.01435,-0.00263 1.30262,-0.71396 1.3183,-0.70079c0.01036,1.07226 1.85693,0.80617 1.4966,-0.23184l-0.11001,0c-0.17007,0.25292 -0.61969,0.12119 -0.61118,-0.18179c0,-0.15807 0.1318,-0.28453 0.2947,-0.30824l10.92398,0l-0.34651,0.74031c0.49612,0 1.48624,0 1.98262,0l-0.34067,-0.74031l10.89926,0c0.16396,0.02371 0.29284,0.15017 0.29284,0.30824c0.01036,0.30297 -0.44138,0.4347 -0.60932,0.18179l-0.11639,0c-0.34572,1.04328 1.49049,1.30147 1.50404,0.23184c0.01143,-0.01317 1.2997,0.70079 1.31006,0.70079l0.17963,-0.16598l-0.72784,-1.24877c0.41959,-0.00263 0.76106,-0.32142 0.76106,-0.71923"/><path d="m145.91763,124.92792l0,0.01581c0.00399,-0.0079 0.00319,-0.01054 0,-0.01581"/><path d="m145.91763,122.36977l0,0.01581c0.00319,-0.0079 0.00319,-0.01054 0,-0.01581"/><path d="m125.60774,124.94373l0,-0.01581c-0.00824,0.0079 -0.01036,0.00527 0,0.01581"/><path d="m125.60774,122.38558l0,-0.01581c-0.01036,0.0079 -0.00824,0.00527 0,0.01581"/><path d="m46.7135,80.54106l0.52615,-0.43206c0.20567,-2.16033 1.23326,-4.08882 2.89913,-5.27437c-0.11214,-0.15544 -0.22508,-0.2977 -0.33828,-0.42943c-1.89228,1.3647 -3.00091,3.63041 -3.08701,6.13586"/><path d="m51.83708,77.49815l0.50649,-0.16598c-0.33721,-0.92472 -1.05762,-2.62137 -2.11868,-3.67783c-0.23756,-0.24238 -0.63111,0.11592 -0.38797,0.3504c0.73581,0.7324 1.44585,1.97328 2.00017,3.49341"/><path d="m47.26357,75.79096c1.02147,0.02898 1.04007,-1.55175 0.02073,-1.55175c-1.00367,-0.02371 -1.03184,1.55438 -0.02073,1.55175"/><path d="m62.15705,72.45299c-0.69542,0.74031 -1.84657,-0.35303 -1.13255,-1.0749c0.68612,-0.72713 1.84259,0.3583 1.13255,1.0749"/><path d="m63.72965,73.75183c-0.69542,0.74294 -1.84657,-0.3504 -1.13255,-1.07226c0.68612,-0.72713 1.84152,0.3583 1.13255,1.07226"/><path d="m56.46029,71.21476c-0.69542,0.74294 -1.84657,-0.3504 -1.13229,-1.07226c0.68718,-0.72713 1.84232,0.3583 1.13229,1.07226"/><path d="m60.37585,71.62047c-0.69462,0.74031 -1.84577,-0.35303 -1.13148,-1.07226c0.68612,-0.72977 1.84152,0.3583 1.13148,1.07226"/><path d="m62.23279,74.1233l-0.68001,0.07113c-1.70015,-1.36996 -3.80741,-1.99172 -5.8283,-1.64132c-0.03216,-0.18969 -0.05607,-0.37147 -0.07068,-0.54272c2.30762,-0.38201 4.71462,0.41889 6.57899,2.11291"/><path d="m56.32237,75.61972l-0.47433,0.23974c-0.42889,-0.88521 -1.1461,-2.58186 -1.16364,-4.07301c-0.00744,-0.33985 0.52509,-0.3662 0.52402,-0.02898c0.01249,1.03274 0.40816,2.40271 1.11395,3.86225"/><path d="m58.4275,71.18841c-0.69462,0.74031 -1.84577,-0.35303 -1.13148,-1.07226c0.68612,-0.72977 1.84152,0.35566 1.13148,1.07226"/><path d="m142.55852,154.47174c2.2651,-0.04215 7.5258,-2.51072 3.7059,-4.55513c-2.13941,-0.35566 -4.26739,0.67971 -6.32681,1.15656c-8.28446,3.2642 -3.4306,-0.72713 -8.57305,-0.29243c1.7355,4.35491 6.11928,2.10764 9.40558,1.0907c0.10071,0.47949 -0.50649,0.59541 -0.42676,1.0749c1.10544,-0.22921 2.16226,-0.44524 3.20021,-0.65864c0.45148,-2.13662 4.38564,-2.15769 2.58478,-0.01844c-4.53419,1.9601 -9.88497,1.59654 -14.632,2.93225c-3.17311,8.24087 -8.6913,2.63455 -8.63735,4.9951c-1.24124,0.11592 -1.22263,1.29883 0.05102,1.19872c0.02684,2.39744 6.14399,-0.38201 7.27654,-1.11705c0.27397,-0.5796 0.52402,-1.11178 0.78258,-1.65713c1.86012,0.89838 3.16806,-1.75461 4.77999,-2.22619c1.60582,-0.31878 3.69952,-1.8758 5.06671,-0.4347c1.52265,1.6703 3.80103,-0.8773 5.14537,0.80881c-0.50755,1.30147 0.15971,0.72713 0.38505,1.54121c-0.02285,0.7324 1.20722,0.72187 1.22795,-0.01317c-0.00505,-0.32142 0.03321,-0.52164 0.35289,-0.65337c0.68001,-1.02484 -0.76584,-2.15769 -1.27153,-3.01129c-1.11474,-1.06699 -2.96663,0.96425 -4.09706,-0.16071"/><path d="m122.07536,150.84661c0.36964,0.12119 0.22933,0.55326 0.40285,0.77456c1.95154,0.13173 3.90493,-0.38201 5.87401,-0.62439c1.47082,0 1.41688,-1.28302 2.49549,-1.46481c2.60019,0.13436 4.21956,-2.14189 6.66828,-2.50809c1.96376,-0.55062 4.61072,-1.27249 6.34541,0.09484c0.42039,0.46105 1.02546,0.55062 1.65232,0.4347c0.82935,-0.1449 1.81655,-0.32142 2.25261,0.63492c-0.14111,0.1449 -0.27822,0.28717 -0.47141,0.48739c0.08424,0.17651 0.18282,0.38464 0.28035,0.59277c0.4079,-0.02635 0.46609,0.2977 0.62793,0.56116c0.22029,0.3583 0.73714,0.3662 0.82111,-0.00527c0.10496,-0.45578 0.57823,-0.22657 0.72572,-0.62439c0.07892,-1.19082 -0.18495,-2.66353 -1.38367,-3.26157c-0.59072,-0.55062 -2.92305,0.57433 -2.98949,-0.56906c1.73656,0.38991 5.07282,-1.85736 2.77982,-3.30636c-3.87809,-0.89838 -8.14017,0.95897 -12.07646,1.39895c-1.54656,0.34249 -0.77115,-2.15769 -4.19139,-1.48589c2.20159,4.55513 6.94942,1.33045 10.63752,1.29093c0.02285,0.41099 -0.69861,0.38464 -0.52429,0.89574c1.07143,-0.33195 2.89515,0.23711 3.51059,-0.82461c0.33323,-1.2962 3.08515,-0.98795 2.27546,0.50584c-2.06049,1.30674 -5.13394,0.70869 -7.55582,0.97742c-2.96344,0.24765 -6.199,0.31351 -8.97244,1.34098c-0.54927,1.70455 -1.31219,3.4618 -3.29375,3.87015c-1.38765,-1.33835 -3.4027,0.23974 -4.88894,-1.11178c-0.48789,0.09748 -0.58036,0.38464 -0.77434,0.75085c-0.7297,0.27399 -0.97789,0.68498 -0.22747,1.17501"/><path d="m143.91535,162.81799c-3.87809,-0.49529 -3.29375,2.15243 -5.2017,1.52804c0.34465,-0.41889 1.29464,-0.656 0.98533,-1.29093c-2.84121,1.23034 -5.83069,2.11027 -8.6634,3.37749c-1.43974,1.51486 -0.96647,4.53933 -4.21743,4.81596c-0.11745,1.57282 -2.34296,2.63455 -3.71626,1.93112c-0.55405,0.51374 -0.31543,0.6481 -0.23039,1.12495c-0.46503,0.42153 -1.11262,1.39104 -0.09752,1.3805c0.31755,-0.06586 0.56362,-0.53481 0.89365,-0.38464c-0.02365,0.20549 -0.0465,0.40836 -0.07361,0.63756c0.26786,-0.00263 0.62686,0.08694 0.72146,-0.02898c0.44643,-0.55589 1.08578,-0.09748 1.58722,-0.53481c1.67013,-1.11178 4.05135,-2.13398 3.92247,-4.44712c2.94803,-1.28302 4.65562,-6.01204 8.49731,-4.347c1.89733,1.01693 2.4155,-2.03124 4.11566,-2.0971c0.48469,1.11441 0.71216,1.0222 1.32441,0.656c1.07143,0.81144 0.88648,-0.47158 1.30607,-1.06963c0.05076,-0.58224 -0.54821,-1.26195 -1.15328,-1.25141"/><path d="m126.37491,144.31029c-0.6165,1.74407 0.01966,4.06511 1.65551,5.03462c1.87474,-0.83515 3.07585,-3.2642 2.42082,-5.30071c0.44616,-0.3741 0.99942,-0.55852 0.83333,-1.18554c-0.29576,-0.70343 -1.40652,-0.17915 -1.69404,-1.00113c-0.70472,-0.95634 -1.63797,-0.17651 -2.21089,0.46631c-0.43182,0.05006 -0.85327,-0.16334 -1.25293,0.03425c-0.40896,0.74558 0.72465,1.19082 0.24819,1.9522"/><path d="m125.89313,168.78788c1.82399,4.32856 4.5674,-1.17764 3.88341,-3.52239c1.2601,-1.03011 0.90934,-1.63869 -0.61145,-1.7388c-0.53571,-1.14076 -1.69298,-1.25668 -2.4923,-0.29507c-0.28247,0.3504 -0.7018,0.22657 -1.06904,0.26082c-0.77966,0.36093 -0.34784,1.20662 0.33509,1.39631c-0.37362,1.30937 -0.56681,2.61874 -0.04571,3.89913"/><path d="m130.90484,152.72504c-0.35395,-0.20286 -0.79932,-0.2134 -1.19287,-0.18179c-0.64653,-1.68348 -1.81946,-1.04855 -2.76733,-0.04215c-1.41263,-0.55589 -1.20084,0.70079 -0.45467,1.38577c-0.70578,1.71246 -0.21684,4.24952 1.61831,4.98457c1.93506,-0.8009 2.46945,-3.13248 2.35226,-5.01091c0.60401,-0.09221 1.08977,-0.76402 0.4443,-1.13549"/><path d="m144.79545,158.38931c-3.46993,-1.15393 -8.9278,6.33082 -11.23435,4.12834c-0.56149,-1.20662 -2.28264,-1.0749 -3.36629,-0.74558c1.30262,0.93 2.01478,2.97704 3.99209,2.3105c2.23401,-0.43206 3.98598,-2.21829 5.91573,-3.04027c0.05182,0.64283 -0.6072,0.91946 -0.87931,1.53067c1.32467,-0.41363 2.51409,-0.78246 3.49092,-1.62025c-0.16715,-3.61987 5.05821,-1.0828 0.04464,1.14603c0.89074,0.01844 1.51334,0.41889 2.11044,-0.30824c1.15195,-1.01957 1.21121,-2.49228 -0.07387,-3.4012"/><path d="m136.91171,166.76981c-1.01935,0.25555 -2.03763,0.34249 -2.66981,1.37523c0.25537,0.33985 0.49639,0.66127 0.75893,1.01167c-0.48576,1.25141 -1.74187,1.03801 -2.91588,1.09334c0.10895,0.39255 0.16927,0.60858 0.24182,0.87467c-0.50011,0.26082 -0.69117,0.69815 -0.5886,1.31727c0.13207,0.04479 0.28858,0.09484 0.4443,0.14754c0.32818,-0.40308 0.91757,-0.81408 1.05788,-0.05533c2.13303,-0.69025 4.04205,-1.97855 5.05608,-3.95182c-0.6072,-0.46368 -1.12299,-1.01167 -1.38473,-1.81257"/><path d="m134.09974,159.31668c-0.45042,-0.00263 -0.55219,0.57433 -0.23969,0.84042c0.30506,0.33722 0.60507,-0.02898 0.95292,0.0685c0.01143,0.19232 0.02073,0.3504 0.03003,0.5032c1.86012,0.10802 4.68034,-1.53858 5.66859,-3.0271c-0.39541,-0.60858 -0.76903,-1.18291 -1.15726,-1.78096c-1.01217,0.32405 -2.16333,0.30034 -2.76733,1.20135c0.36325,0.38464 0.68081,0.71923 1.03157,1.0907c-0.68293,0.3741 -1.47082,1.00903 -2.21196,0.40045c-0.30214,-0.27399 -1.1469,-0.14754 -0.94149,0.38201c0.02923,0.07903 -0.01647,0.18705 -0.02897,0.2819c-0.12968,0.01581 -0.23252,0.02898 -0.33642,0.03952"/><path d="m126.1788,170.56356c-0.69037,-1.33572 -1.77296,-2.55551 -2.28051,-3.95709c0.61756,-0.85359 0.33828,-1.94957 -0.80862,-1.25141c-0.28965,-0.57697 -0.71933,-0.68762 -1.25293,-0.54008c-0.15173,0.36884 -0.23358,0.7245 0.16901,1.00903c0.02498,0.01844 -0.00505,0.11065 -0.01036,0.16861c-0.12755,0.04215 -0.2543,0.08694 -0.3715,0.12382c-0.28646,0.73504 0.44643,1.16184 0.71216,1.73353c0.80118,1.26195 1.9898,4.30485 3.84275,2.71358"/><path d="m126.17773,148.56509c-0.10071,-1.84682 -2.25474,-3.03236 -1.6029,-4.88972c0.1714,-0.34249 0.11214,-0.74821 -0.24182,-1.03011c-0.62686,0.16598 -0.62686,0.16598 -1.10119,-0.12909c-0.80969,-0.40045 -0.92182,0.48739 -0.85114,1.05118c-0.15891,0.07377 -0.30851,0.14226 -0.52641,0.23974c0.5607,1.586 2.23481,5.56153 4.32346,4.75799"/><path d="m122.02355,154.83531c0.79082,1.19609 1.01005,3.10086 2.35731,3.79375c0.61358,0 1.56224,0.55589 1.92337,-0.16598c-0.39328,-1.42793 -2.1705,-2.25254 -1.91726,-3.87805c0.08636,-0.37674 -0.05501,-0.75348 -0.37575,-1.0907c-0.68612,0.20286 -2.12878,-1.34625 -1.6005,0.49529c-0.42676,0.1449 -0.68001,0.44261 -0.38717,0.84569"/><path d="m91.2361,117.89631c0.2947,0.01844 0.59258,-0.32405 0.89977,-0.01844c-0.02684,0.15544 -0.05501,0.30824 -0.08504,0.47685c1.89015,0.81408 3.97243,-0.10802 5.84504,-0.61122c0.74325,-0.22657 1.16869,-0.96951 1.98581,-0.95371c1.93984,0.13963 3.04555,-1.47535 4.7093,-1.93903c2.05942,-0.38728 4.14701,-0.71133 6.25001,-0.67445c2.41338,3.26684 2.84838,0.49266 5.01357,1.6018c-0.06218,0.31615 -0.12356,0.62439 -0.18893,0.96425c0.2171,0.07113 0.39435,0.13173 0.56362,0.18969c-0.21179,0.81144 1.00393,1.28566 1.16895,0.25555c0.02179,-0.12119 -0.03428,-0.2819 0.14323,-0.30297c1.28801,-0.69552 -0.68931,-4.07038 -2.05438,-3.18517c-0.69648,0.32405 -1.61299,0.64547 -2.15801,-0.17915c1.19898,-0.48476 2.68443,-0.36357 3.50129,-1.47798c0.61145,-0.73768 0.55751,-2.21302 -0.60932,-2.60557c-3.02483,-0.83252 -6.22504,0.68498 -9.28494,0.9458c-5.73928,1.54384 -1.64435,-1.21716 -6.19607,-1.19609c1.62973,4.62363 6.52611,1.65186 9.92456,1.31464c-0.24288,0.54272 -0.80145,0.75085 -1.02759,1.23824c1.19978,-0.22921 2.78381,0.21867 3.67747,-0.70343c0.46503,-1.26985 3.50341,-1.41738 2.7862,0.30824c-2.86592,2.77418 -11.8458,0.17388 -15.84028,1.95747c-0.59683,1.8073 -1.65551,3.00865 -3.40243,3.50131c-1.42937,-0.8773 -2.0751,0.12119 -3.50129,-0.26872c-0.39754,-0.43733 -0.80145,-0.92472 -1.42114,-0.44524c0.00319,0.18442 0.00638,0.39782 0.01036,0.65073c-0.67469,-0.19232 -1.43442,0.73504 -0.70977,1.15656"/><path d="m96.20795,110.84363c-1.05867,1.92585 -0.75043,3.65939 0.51074,5.27173c2.35545,0.08431 3.31448,-3.1035 2.93049,-5.03199c0.2458,-0.17124 0.47539,-0.32932 0.71933,-0.49529c-0.06856,-0.25292 -0.12569,-0.46368 -0.19,-0.70079c-0.42783,-0.01581 -0.815,-0.03161 -1.18437,-0.04742c-0.85433,-1.08543 -1.36719,-1.10914 -2.38335,-0.13173c-0.69329,-0.25819 -0.69329,-0.25819 -1.16045,0.34776c0.17033,0.35303 0.39328,0.61385 0.7576,0.78773"/><path d="m107.70086,114.97723c-0.10576,0.53745 0.39142,0.77192 0.48071,1.19082c-0.63111,0.40572 -1.31298,0.4268 -1.98475,0.51637c-0.35395,-0.35303 -0.49719,-0.98269 -1.11474,-0.79827c-0.3497,0.08167 -0.15466,0.45051 -0.41614,0.59541c-0.6832,-0.05796 -0.6832,-0.05796 -0.78683,0.62702c0.2086,0.12382 0.42756,0.25555 0.6351,0.37674c-0.51472,2.41325 6.12326,-0.09484 7.1062,-0.81408c-0.32074,-0.54008 -0.73581,-0.91155 -0.8615,-1.53858c-0.27397,-1.05909 -2.24411,-0.19232 -3.05804,-0.15544"/><path d="m95.28931,115.27494c-0.07148,-0.84569 -0.28327,-1.83364 -0.95584,-2.42115c-0.75468,-0.77192 -0.99862,-1.82838 -0.23039,-2.65299c-0.38531,-0.36093 -0.89605,-0.06586 -1.27179,-0.5796c-0.48151,-0.54799 -0.76903,0.08167 -0.88435,0.65864c-1.35337,0.19496 -0.57186,0.63229 -0.26866,1.34889c0.44829,1.2356 2.04587,4.19947 3.61103,3.64622"/><path d="m115.3263,124.27982c-0.70286,0.32932 -1.62761,0.65337 -2.17581,-0.17915c1.20828,-0.48739 2.70621,-0.3662 3.52945,-1.49116c0.6165,-0.74294 0.56149,-2.23146 -0.61464,-2.62665c-3.04874,-0.83779 -6.27473,0.69288 -9.36094,0.95634c-5.78578,1.55438 -1.65657,-1.2277 -6.2455,-1.20662c1.64302,4.66052 6.57766,1.66767 10.00428,1.32518c-0.24394,0.54799 -0.80756,0.75611 -1.03582,1.24614c1.21014,-0.22921 2.80773,0.22394 3.70882,-0.70606c0.46795,-1.28302 3.53131,-1.43056 2.80879,0.31088c-2.88983,2.79526 -11.94333,0.17388 -15.96996,1.97064c-0.60188,1.82311 -1.66906,3.035 -3.4306,3.53029c-1.22183,-0.74821 -1.8766,-0.14226 -2.92412,-0.17915c0.04146,0.33985 0.14429,0.66654 0.22933,1.00113c0.08742,0.33722 0.12569,0.68498 0.14855,1.03274c1.21546,-0.13173 2.4434,-0.59541 3.5935,-0.90365c0.74857,-0.22921 1.17825,-0.98005 2.00149,-0.96425c1.95552,0.13963 3.07027,-1.48589 4.74784,-1.95483c2.0759,-0.38991 4.17997,-0.7166 6.30077,-0.67708c2.43198,3.29055 2.87203,0.49529 5.05396,1.61234c-0.06218,0.31878 -0.1233,0.63229 -0.18973,0.97215c0.21896,0.07377 0.39754,0.13436 0.56867,0.19232c-0.21392,0.81934 1.01111,1.2962 1.17825,0.25555c0.02179,-0.12119 -0.03534,-0.2819 0.14429,-0.30561c1.29836,-0.70079 -0.69542,-4.10199 -2.07085,-3.21152"/><path d="m95.88934,121.4029c-1.06692,1.94166 -0.75654,3.68837 0.51499,5.31652c2.37378,0.08167 3.34131,-3.12984 2.9552,-5.07678c0.24713,-0.16861 0.47858,-0.32932 0.72439,-0.49793c-0.06936,-0.25555 -0.12649,-0.46631 -0.19186,-0.70606c-0.43075,-0.01581 -0.82111,-0.03161 -1.19367,-0.04742c-0.86177,-1.09334 -1.37862,-1.11968 -2.40302,-0.13173c-0.69861,-0.26082 -0.69861,-0.26082 -1.17002,0.3504c0.17246,0.35566 0.39754,0.61648 0.76398,0.793"/><path d="m107.47685,125.57075c-0.10815,0.54272 0.39328,0.77719 0.48363,1.19872c-0.63643,0.41099 -1.32335,0.43206 -2.00123,0.52164c-0.35608,-0.35566 -0.50037,-0.99059 -1.12325,-0.80617c-0.35289,0.08431 -0.15572,0.45578 -0.41932,0.60067c-0.68931,-0.05796 -0.68931,-0.05796 -0.79401,0.63492c0.21073,0.12382 0.43182,0.25555 0.64041,0.37938c-0.51897,2.43169 6.17402,-0.09748 7.16547,-0.82198c-0.32393,-0.54272 -0.74325,-0.91946 -0.86894,-1.55175c-0.27716,-1.06699 -2.26377,-0.19232 -3.08276,-0.15544"/><path d="m94.96353,125.86846c-0.07281,-0.85096 -0.2854,-1.84682 -0.96434,-2.43959c-0.75973,-0.77719 -1.00686,-1.84419 -0.23145,-2.67407c-0.38824,-0.36357 -0.90322,-0.0685 -1.28189,-0.58487c-0.48576,-0.55062 -0.77647,0.08431 -0.89179,0.6639c-1.36507,0.19759 -0.57717,0.63756 -0.27184,1.35943c0.4536,1.24877 2.06341,4.23635 3.64132,3.6752"/><path d="m115.5628,134.19626c-0.70153,0.32932 -1.62548,0.65073 -2.17236,-0.17915c1.20616,-0.48476 2.70196,-0.36357 3.52387,-1.48852c0.6157,-0.74031 0.56176,-2.22883 -0.61331,-2.62401c-3.04449,-0.83779 -6.26649,0.69288 -9.34845,0.95634c-5.77861,1.55175 -1.65471,-1.2277 -6.23753,-1.20399c1.6401,4.65261 6.56969,1.6624 9.99099,1.31991c-0.24394,0.54799 -0.8065,0.75611 -1.03396,1.24877c1.20828,-0.23184 2.80268,0.2213 3.70377,-0.70869c0.46716,-1.28039 3.526,-1.42793 2.8048,0.31088c-2.88585,2.79262 -11.92791,0.17388 -15.94817,1.96801c-0.60215,1.82047 -1.668,3.02973 -3.42662,3.52502c-1.43974,-0.87994 -2.08839,0.12382 -3.52493,-0.26872c-0.14031,-0.15281 -0.28141,-0.31351 -0.43182,-0.4347c-0.04066,-0.01844 -0.07892,-0.04215 -0.10603,-0.07903c-0.05501,-0.03688 -0.11108,-0.06586 -0.16794,-0.08694c0.00717,0.02108 0.01435,0.03952 0.01541,0.06586c0.02498,0.83515 -0.17963,1.64923 -0.50649,2.41061c1.87155,0.73504 3.92061,-0.16071 5.76718,-0.65864c0.7475,-0.22657 1.17719,-0.97478 1.9991,-0.95897c1.95366,0.13963 3.06655,-1.48589 4.74172,-1.9522c2.07404,-0.38991 4.17491,-0.7166 6.29253,-0.67971c2.42906,3.28792 2.86805,0.49529 5.04678,1.61234c-0.06218,0.31878 -0.12356,0.62966 -0.19,0.96951c0.21896,0.07377 0.39754,0.13436 0.56893,0.19232c-0.21392,0.81934 1.01005,1.29356 1.17613,0.25819c0.02285,-0.12382 -0.03428,-0.28453 0.14429,-0.30561c1.2965,-0.70079 -0.69462,-4.09936 -2.06793,-3.20888"/><path d="m96.15215,131.32197c-1.06612,1.93903 -0.75574,3.68573 0.51366,5.31125c2.37086,0.08167 3.33733,-3.12721 2.95122,-5.07151c0.24686,-0.16861 0.47832,-0.32668 0.72332,-0.49529c-0.06936,-0.25555 -0.12649,-0.46631 -0.19106,-0.70343c-0.43075,-0.01844 -0.82085,-0.03425 -1.19261,-0.05006c-0.86044,-1.09334 -1.37623,-1.11705 -2.39876,-0.13173c-0.69861,-0.26082 -0.69861,-0.26082 -1.16895,0.3504c0.1714,0.35303 0.39674,0.61648 0.76318,0.79036"/><path d="m107.72265,135.48456c-0.10682,0.54272 0.39461,0.77719 0.48496,1.19872c-0.63643,0.40836 -1.32255,0.42943 -1.99937,0.51901c-0.35608,-0.35303 -0.50037,-0.98795 -1.12192,-0.80354c-0.35209,0.08431 -0.15572,0.45314 -0.41853,0.60067c-0.68798,-0.05796 -0.68798,-0.05796 -0.79295,0.63229c0.20966,0.12382 0.43075,0.25555 0.63935,0.37938c-0.51791,2.42906 6.16578,-0.09748 7.15616,-0.81934c-0.32393,-0.54535 -0.74219,-0.91946 -0.86788,-1.55175c-0.27716,-1.06172 -2.26058,-0.19232 -3.07984,-0.15544"/><path d="m94.26385,133.3453c-0.14323,-0.1449 -0.26786,-0.30297 -0.37043,-0.46631c-0.04385,0.4347 0.18787,0.94053 0.10895,1.36996c-0.06138,0.33195 -0.15891,0.83515 -0.2543,1.1592c0.54687,0.52954 0.87399,0.59014 1.478,0.3741c-0.07148,-0.84832 -0.28433,-1.84419 -0.96222,-2.43696"/><path d="m128.95118,116.25762c0.5211,0.32668 0.9104,1.83891 1.22396,2.05231c0.59258,0.77456 1.83302,2.84004 3.04741,2.41588l0.00106,-0.03161c0.36033,-0.14226 0.70499,-1.18554 0.72465,-1.33045c-0.01036,-0.04479 -0.21498,-0.22921 -0.44218,-0.40572c-1.14079,-0.98532 -1.83222,-1.95747 -1.85614,-2.85849c-0.04863,-0.29243 0.65211,-0.68762 0.5979,-0.96688c-0.02577,-1.03011 -0.88728,0.12646 -1.22688,-0.04215c-0.18575,-0.2977 -0.82935,-1.14076 -1.22582,-0.72977c-0.24394,0.11592 0.06112,0.72187 -0.13605,0.86677c-0.08928,0.11856 -0.14429,0.137 -0.41826,0.13436c-0.92076,-0.01581 -1.0422,0.55326 -0.28965,0.89574"/><path d="m133.8372,123.20756c0.30506,-0.30034 1.22582,-1.18818 1.32866,-1.38577c0.09035,-0.20022 0.12356,-0.21076 0.77115,-0.26609c1.7812,-0.25028 2.68124,-0.97215 3.1848,-2.86902c0.2458,-0.56643 -0.06962,-1.80203 -0.43394,-2.07076c-0.14111,-0.09748 -0.20355,-0.2819 -0.11533,-0.34513c0.33004,-0.04742 1.0236,-0.31351 1.14185,-0.70079c-0.19,-0.36357 -0.65184,-0.08958 -1.27764,-0.2898c-0.46317,-0.2134 -1.68899,-0.5875 -2.18618,-0.31615c-0.35289,0.42416 -2.43092,0.46895 -2.0573,1.0828c0.07998,0.22921 0.23145,0.74821 0.23145,0.74821l0.9476,0.11065l0.01461,0.67971c0,0 -0.68001,0.1449 -0.90615,0.19759c-0.56256,0.81671 1.35151,0.88257 1.84763,0.24502c0.33934,-0.39782 0.87505,-0.45578 0.85539,-0.01844c-0.25856,0.54272 -1.174,0.81934 -1.70759,1.07753c-0.79932,0.13436 -1.01217,1.69138 -1.62761,2.20775c-1.74294,0.31878 -2.36767,0.27926 -4.09094,-1.11178c-0.62899,-0.7166 -1.1283,-0.17651 -0.6529,0.38728c-0.30931,0.10011 -1.90769,-0.793 -1.18543,0.7324l0.11852,0.13963c-0.78896,1.12759 0.38505,0.74558 1.043,1.09334c1.40466,0.55589 2.94404,0.97478 4.75633,0.67181"/><path d="m139.41756,122.11949l0.74006,1.5175c0,0 1.58828,0.70343 1.80299,0.91155c0.89179,0.64547 0.74325,2.43432 -0.06112,2.2341c-1.3183,-0.53481 -2.10406,-2.379 -3.01765,-3.52239c-0.24394,-0.18442 -0.87293,-2.04968 -1.28694,-1.57809c-5.43528,1.20399 0.98507,2.58449 -0.00425,4.58675c-0.19,0.28453 -0.79507,1.68084 -0.54821,1.89161c0.45679,0.55852 1.48146,0.96161 2.02009,1.66767c0.88542,0.85886 0.08928,1.84682 -1.00473,1.04592c-0.62181,-0.46368 -1.36188,0.20549 -0.72784,0.82725c0.04278,0.11856 -0.37761,0.29243 -0.4544,0.34513c-0.64785,0.88257 0.42331,0.83779 0.99012,0.39518c0.31357,-0.15281 -0.00319,0.77192 0.52641,0.62175c0.99012,-0.21867 2.52631,-0.7166 2.80055,-2.25254c0.6165,-1.41212 -0.81075,-1.18291 -1.16258,-2.41588c-0.35608,-0.50584 -0.38106,-2.36583 0.39116,-1.68084c0.71642,0.89574 1.68368,1.41212 2.56511,0.61385c0.8158,-0.76138 0.07148,-2.60557 -0.34572,-3.42491c-0.78683,-1.62288 -1.69298,-3.18517 -1.62973,-5.12946c1.10146,-1.2962 2.38016,1.0143 3.15876,-2.58976c-2.57229,0.17388 -5.10285,1.8837 -3.83238,4.74746c0.78152,1.62025 0.61145,1.49379 -0.9197,1.18818"/><path d="m135.28118,125.1782c-1.36002,-0.0685 -2.40009,-0.17651 -2.01903,1.42529c0.07467,0.38464 0.21896,1.55438 0.44935,1.82311c0.09566,0.15281 0.08211,0.31351 -0.04039,0.41889c-0.549,0.30561 -2.62729,-0.53218 -2.37803,-1.23297c-0.00106,-0.58224 -0.58753,-0.7166 -0.76185,-0.30297c-0.09354,0.18442 -0.24102,0.17651 -0.44856,-0.05006c-0.38292,-0.54535 -0.91651,0.19232 -0.70073,0.60067c0.08424,0.16334 -0.01754,0.34249 -0.21471,0.37147c-0.57212,0.23184 -0.5389,1.0064 0.25537,1.03538c1.73337,0.79563 3.24486,1.61761 5.25857,1.33572l-0.03216,0.01054c2.19734,-0.17124 1.06293,-0.58224 0.96727,-2.09973c-0.37681,-1.63079 2.43224,-2.70041 -0.33509,-3.33534"/><path d="m137.34671,148.47551c-0.14323,-0.12909 -0.5025,0.01844 -0.54501,0.10538c0.01461,0.74031 -0.7754,0.52427 -1.01191,1.03011c0.15466,0.30561 0.37575,0.55062 0.71189,0.51901c0.42039,-0.03688 0.38717,0.47949 0.77036,0.50584c1.81016,-0.81671 3.961,-0.61912 5.49933,-2.0207c-0.57611,-0.49003 -0.71508,-1.15393 -0.83865,-1.85209c-1.04751,0.0764 -2.06155,-0.07113 -2.96557,0.42153c-0.09141,0.47685 0.24075,0.7245 0.47539,1.13286c-0.74325,0.31351 -1.40147,0.47158 -2.09583,0.15807"/><path d="m121.19526,182.70883c2.19123,-1.92849 3.70457,-2.60293 6.52186,-3.26684c-0.77753,1.73353 -1.51972,3.38539 -2.30336,5.12946c-1.4129,-0.62175 -2.79948,-1.2356 -4.21849,-1.86262l0,0zm-0.55751,-41.8656l30.92881,0c2.52738,23.43694 -11.32895,31.27999 -30.92881,39.44972l0,-39.44972zm45.68624,-12.55099c-0.71429,-1.51486 -2.36581,-10.00865 -4.7667,-8.16446c10.94178,20.25177 3.64345,46.88178 -15.34284,59.7094c-5.57107,3.3327 -12.48329,8.87052 -19.07132,5.17952c4.25357,-16.42904 24.6392,-9.49228 29.07055,-40.81705c-0.54501,-0.26345 -0.75149,-0.43206 -1.2508,-0.51901c-0.63749,4.37862 -1.74905,8.58336 -3.39951,12.62475c1.76871,-4.66315 0.6436,-19.25855 0.97683,-20.06209c-0.18389,-0.23974 -0.37681,-0.32932 -0.98002,-1.06699c0.11001,1.76251 -0.0093,2.40271 0.01036,4.73428l-30.9328,0l0,-31.98868l30.362,0l0,18.04666c-0.01461,0.09748 0.11825,0.95634 0.18256,1.26985c0.43288,-0.65864 0.46928,-0.63492 0.75893,-0.84832l0,-19.40081l-63.67922,0l-0.05713,16.35001l0.94149,0l0,-15.41738l30.54988,0l0,31.98868l-29.4641,0c-0.08716,0.08694 0.0178,-0.5032 -0.07998,-0.41626c-0.00505,-0.08958 -0.20222,0.5032 -0.20116,0.41626l-0.8243,0c-0.01568,-1.49116 0.01754,-2.40798 0.0186,-2.4554l-0.94042,-0.03688c-0.68506,2.40271 1.33291,22.47269 4.65562,25.99772c-6.64968,-6.39141 -8.74232,-17.73841 -7.49869,-26.28488c0,0 -0.62181,-0.47158 -1.30049,-1.0907c-2.08865,12.03988 2.50453,23.91643 11.01432,32.5314c0.74511,0.78773 1.55692,-0.0606 2.46201,-0.28453c-0.18362,-0.19496 -0.58328,-0.49793 -0.85938,-0.87994c0.33535,0.34513 0.63218,0.65073 0.85938,0.87994l-0.47221,-1.29356c-6.68077,-5.0636 -7.77984,-19.52464 -7.92307,-26.15052l30.55387,0c0,0 -0.01966,40.11363 -0.04146,40.20584c-6.49901,-0.31615 -10.89607,-7.30824 -17.16363,-7.38727c9.01097,5.29808 25.49353,18.06246 35.90384,12.46932c0.08105,0.10011 0.06431,0.07903 0.14535,0.17915c-1.09296,1.35943 -4.95032,3.93075 -6.6712,3.27211c-2.83377,-1.69138 -7.20506,1.39104 -5.19745,4.52879c0.25856,0.3662 0.41428,0.69552 0.11533,1.18028c-11.25933,-1.05118 -21.38,-7.71659 -30.86849,-13.42829c-0.09248,0.09748 -0.07494,0.07903 -0.16715,0.17915c3.63388,4.86864 16.62366,10.91757 16.62366,10.91757l-0.00717,7.2371c0,0 0.83254,0.55062 1.37649,0.91155l0,-7.82988c3.40775,1.1592 10.31253,3.30636 10.31253,3.30636l0.02073,4.88709l1.31431,-0.83252l-0.06962,-3.65939l1.84445,-0.50584c1.15965,-0.31615 1.90477,-1.42529 1.7626,-2.6003c-0.54501,-0.27136 -0.929,-0.82725 -0.75973,-1.59127c0.27184,-1.42529 2.0084,-1.45691 2.72056,-0.60067c1.41077,0.62175 2.7955,-1.05909 4.18209,-1.45691c1.95977,-1.17501 4.3774,-2.21829 5.28355,-4.45502c0.17352,-0.55326 0.47965,-0.89574 0.94972,-1.16974c3.95383,-2.22619 7.78302,-4.68423 11.00928,-7.89311c13.78803,-11.55776 18.6023,-31.41699 14.00912,-48.41509"/><path d="m52.17749,195.59441c-0.71216,-0.42943 -1.58616,-0.56379 -2.61985,-0.40045c0.22003,1.55438 0.78976,4.43394 1.24442,5.9409c2.91269,-0.41363 3.78881,-4.02295 1.37543,-5.54045"/><path d="m88.726,188.05696l1.31431,6.59954l-1.52902,0.27136l-1.34965,-6.56793c-0.94228,0.16861 -1.47082,0.16861 -2.7474,0.72187l-0.04464,-1.47798l6.60902,-0.84569l0.45865,1.24877c-0.60614,-0.21867 -2.71126,0.05006 -2.71126,0.05006l0,0zm-4.82357,7.73503l-4.57564,1.04592c0.08716,-0.68762 -1.44904,-7.04478 -1.84152,-7.62438l4.82171,-1.10124l-0.37999,1.60971c-0.67044,-0.18179 -1.45408,-0.17915 -2.34801,0.00527l0.55857,2.30787l2.66662,-0.60858l0.44112,1.11968c-0.53146,-0.07903 -2.13941,0.33195 -2.87203,0.46631l0.58222,2.41061c1.31298,-0.30034 2.3969,-0.74294 3.25096,-1.33045l0.02498,0.01317l-0.32898,1.68611l0,0.00001zm-13.28341,2.36055c-3.34052,0.0764 -3.82308,-4.65788 -4.60779,-6.98945l1.62017,-0.30297c0.77354,2.03387 0.55857,6.78923 3.99953,6.16221c2.48406,-1.10651 0.46928,-5.02145 0.21392,-6.91042l1.59758,-0.22394c0.60826,3.13775 2.03949,8.58599 -2.8234,8.26458l0,0zm-4.70027,0.7166l-4.58494,1.00113c0.09354,-0.68498 -1.38473,-7.05532 -1.7719,-7.63755l4.83207,-1.05645l-0.39461,1.60444c-0.66938,-0.18705 -1.45196,-0.19232 -2.34801,-0.01581l0.53678,2.31313l2.673,-0.58487l0.43075,1.12495c-0.53146,-0.08431 -2.1426,0.31088 -2.87655,0.43997l0.55963,2.41588c1.31617,-0.2898 2.40408,-0.7245 3.26239,-1.3041l0.02604,0.01581l-0.34465,1.68348l0,0zm-8.59377,1.84419c0.11426,-2.2499 -0.64254,-5.7881 -1.67013,-7.8009l2.23693,-0.46895c-0.11426,2.2499 0.6436,5.7881 1.67013,7.8009l-2.23693,0.46895zm-2.26085,-1.36733c-0.95185,2.24464 -3.80209,2.75574 -6.02441,3.14829c0.10682,-0.69815 -1.25293,-7.18968 -1.66827,-7.77982c3.85099,-1.63605 9.36094,-0.05533 7.69268,4.63154zm36.86633,-14.40044c0,0 0,0 -0.00106,0c-17.50828,0.02635 -34.95412,7.43733 -52.46958,7.43733c-2.10088,0 -4.19989,-0.10538 -6.3029,-0.34513c5.42465,4.24689 5.04678,12.76966 12.9369,12.76966c0.34147,0 0.69861,-0.01581 1.07329,-0.05006c10.72574,-1.13549 21.39143,-4.13361 31.94577,-5.79601c1.81655,-0.27136 10.55567,-2.39217 15.67208,-2.39217c1.84338,0 3.21669,0.27399 3.62671,1.01167c0.55538,0.9985 -2.92305,3.90704 -2.94883,4.02032c-0.00744,0.03161 0.01036,0.04742 0.04969,0.04742c0.33748,0 2.26616,-1.10388 3.70377,-2.04441c5.71217,-4.07038 -6.25613,-14.65863 -7.28584,-14.65863"/><path d="m173.05658,192.26961c-0.37176,1.449 -0.94468,4.17576 -1.13574,5.65901c3.43804,0.72187 4.50495,-4.98193 1.13574,-5.65901"/><path d="m186.52175,194.58274c-2.62623,-0.6402 -3.48056,4.78697 -1.29438,5.6511c2.68203,0.62966 3.49172,-4.75799 1.29438,-5.6511"/><path d="m179.65311,193.57107l-0.80145,2.87693c2.23693,0.40836 3.20127,-2.51336 0.80145,-2.87693"/><path d="m158.59173,189.448c-2.73837,-0.74558 -3.79598,4.87128 -1.49474,5.81972c2.79762,0.73768 3.80847,-4.8423 1.49474,-5.81972"/><path d="m195.07088,196.58236c0,0 -1.02041,5.71697 -0.95611,6.20172l-1.73257,-0.30824c-0.02897,0.03688 1.06612,-5.01355 1.33185,-6.10951c-0.61358,-0.12909 -1.3369,-0.06586 -2.01903,0.19232l-0.01222,-0.01844l0.69436,-1.43846l4.70532,0.83779l0.32579,1.586c-0.39328,-0.38201 -1.668,-0.81934 -2.33738,-0.94317l0,0zm-4.11486,0.32142c-0.17113,1.31991 -0.79401,4.00451 -0.55113,5.25592l-1.74294,-0.24765c0.7661,-1.94693 1.29146,-5.23485 1.16789,-7.31878l1.74267,0.25028c-0.28433,0.5796 -0.48975,1.26722 -0.6165,2.06022l0,0zm-4.64207,4.36018c-4.45287,0.82725 -4.44676,-6.62852 -0.87293,-7.6718c4.47174,-0.92736 4.4906,6.6496 0.87293,7.6718zm-3.84169,-5.88294c-0.21578,0.84306 -0.84078,1.42266 -1.87341,1.7388c0.45042,1.46217 0.71508,1.94693 1.47588,3.53556l-0.0093,0.03688l-1.17905,-0.18179c-0.24394,-0.14226 -1.72434,-2.19721 -2.16545,-3.31163c-0.25829,0.91682 -0.52216,2.0892 -0.41401,2.91644l-1.99937,-0.30561c0.37069,-0.57433 1.93187,-6.6496 1.87261,-7.28716c1.73257,0.21603 4.84031,0.52427 4.2921,2.85849l0,0.00001zm-8.62486,3.42228c-1.04619,0.36357 -2.53774,-0.04479 -3.62671,-0.25555l1.46259,-7.42679c4.8621,-0.31615 6.87581,5.92247 2.16412,7.68234zm-6.90159,-0.62966c-0.54289,-0.11592 -3.47019,-6.03048 -3.47019,-6.03048c0,0 -0.71402,4.59465 -0.89578,4.91607l-1.33185,-0.18969l1.51866,-7.21076l1.47614,0.19232c0.01143,0.18705 2.33233,5.0636 2.33233,5.0636c0,0 0.77647,-3.94919 0.84715,-4.30222l1.12724,0.31351l-1.60369,7.24764zm-6.10998,-4.66578c-1.58695,5.32969 -7.78382,2.41588 -5.93938,-2.33421c1.56835,-5.16635 7.77372,-2.43432 5.93938,2.33421zm-6.47403,-5.74331c-0.26467,0.24238 -1.19978,6.73391 -1.1376,7.36883l-1.7626,-0.34249c0.31569,-0.56379 0.73289,-5.08995 0.73289,-5.08995l-3.02483,4.66052l-1.77695,-5.25329c0,0 -0.7204,3.77267 -0.74963,4.9872l-1.72912,-0.23711c0.55512,-0.88784 1.64089,-7.56642 1.64089,-7.56642l1.78864,0.33195c0.04863,0.35303 1.4012,4.88709 1.4012,4.88709c0,0 2.38122,-3.95972 2.51941,-4.16259l2.103,0.38991l-0.00531,0.02635l0,0zm43.4214,4.58675c-2.19335,0 -4.27775,-0.03425 -5.29604,-0.11856c-11.54579,-1.11441 -22.97227,-4.38652 -34.49122,-6.19909c-3.32271,-0.51901 -6.04009,-1.0064 -8.39554,-1.0064c-4.89106,-0.00263 -8.2159,2.10501 -12.15511,10.42227c-1.67836,3.16673 3.94452,6.18329 5.18284,6.31238c-4.62028,-3.90967 -3.01021,-5.06887 0.63537,-5.06887c5.03855,0 13.96528,2.21302 15.71433,2.43169c10.55355,1.6624 21.22242,4.65788 31.94603,5.79601c0.37681,0.03161 0.73608,0.05006 1.07967,0.05006c7.88666,0 7.51091,-8.52803 12.93158,-12.76966c-0.96434,0.08694 -4.1595,0.15017 -7.15191,0.15017"/></g></svg>