<svg xmlns="http://www.w3.org/2000/svg" viewBox="0 0 32 32"><path fill="#0b0c0c" d="M0 0h32v32H0z"/><path stroke="null" fill-rule="nonzero" fill="#ffffff" d="m26.75775,16.4592c-0.09706,-0.00916 -0.17745,0.07611 -0.1451,0.1804c-0.00966,-0.00141 -0.019,-0.00423 -0.02767,-0.01022l-0.45186,-0.3083c-0.02932,-0.02008 -0.03827,-0.06096 -0.02231,-0.09337c0.08508,-0.00352 0.1772,-0.04757 0.1655,-0.1501c0.03482,0.04404 0.52094,0.30302 0.48143,0.38159l0,0zm-1.66099,-1.56829c-0.02657,0.03312 -0.08219,0.10324 -0.08219,0.10324c-0.50056,-0.57115 -2.18979,-1.22686 -2.91972,-1.11975c0,0 0.00895,-0.08456 0.01364,-0.13037l-0.00525,0.00282l0.27744,-0.17652l-0.23723,-0.19626c0.00236,-0.02748 -0.15172,-0.98833 -0.15172,-0.98833l0.41841,-0.01268c0,0 -0.1494,0.17547 -0.15585,0.31394c0.02368,0.01656 0.04377,0.04017 0.0578,0.06941c0.0837,-0.03559 0.17347,-0.20894 0.17347,-0.20894l0.03979,0.56798c0,0 -0.11634,-0.16384 -0.20085,-0.19308c-0.00649,0.02079 -0.01558,0.04017 -0.03041,0.05602c0.12085,0.37701 0.67153,0.39921 0.67224,0.07611c-0.01886,-0.16772 -0.20417,-0.13988 -0.19398,0.037c-0.30165,-0.23959 0.10615,-0.62154 0.27381,-0.23678c-0.02146,-0.22162 -0.00261,-0.34706 0.16949,-0.45629c0.11359,0.14376 0.09773,0.2787 -0.02548,0.49363c0.37034,-0.34354 0.51174,0.23924 0.16399,0.32521c0.16973,-0.30654 -0.31871,-0.21 -0.13932,0.11099c0.16409,0.25016 0.56196,0.21352 0.70156,-0.05849c-0.0099,-0.01656 -0.01709,-0.03418 -0.02079,-0.0525c-0.13865,-0.02643 -0.3457,0.09161 -0.3457,0.09161l0.19303,-0.52358c0,0 0.08011,0.22409 0.19631,0.29386c0.02093,-0.01973 0.04751,-0.03347 0.07627,-0.04052c0.02217,-0.13777 -0.11701,-0.35411 -0.11701,-0.35411l0.64305,0.24805c0,0 -0.25428,0.06448 -0.33577,0.1797c0.01597,0.02396 0.02573,0.05179 0.02682,0.07998c0.13396,0.02678 0.35092,-0.0828 0.35092,-0.0828l-0.23046,0.50949c0,0 -0.06689,-0.22409 -0.18654,-0.29703c-0.01568,0.01092 -0.03316,0.01903 -0.05202,0.02396c-0.09156,0.29562 0.17608,0.58243 0.46877,0.51019c0.35434,-0.10852 0.0731,-0.51125 -0.02301,-0.17335c-0.19162,-0.29632 0.32435,-0.62224 0.34926,-0.1272c0.06266,-0.23854 0.14679,-0.34706 0.33097,-0.3756c0.04779,0.19379 -0.02738,0.29773 -0.19976,0.44431c0.39772,-0.16772 0.41605,0.38406 0.0314,0.35481c0.13368,-0.12367 0.01582,-0.26532 -0.11482,-0.15609c-0.22979,0.23995 0.20004,0.58278 0.53637,0.41189c-0.00085,-0.02149 0.00522,-0.04228 0.01473,-0.06096c-0.08356,-0.05849 -0.28156,-0.06448 -0.28156,-0.06448l0.41207,-0.30548c0,0 -0.04902,0.18498 -0.0098,0.28152c0.03031,-0.00493 0.06157,-0.00141 0.09033,0.01022c0.08839,-0.08914 0.09361,-0.32839 0.09361,-0.32839l0.30743,0.383c0,0 -0.77191,0.35552 -0.90837,0.45875l-0.21474,-0.02114l0.10598,0.30196l-0.00659,0.00106l0,0l0,0zm-2.27046,-2.78881c0.12832,0.04581 0.25002,0.11346 0.3801,-0.0155c-0.12487,-0.00035 -0.16286,-0.08773 -0.19877,-0.17124c-0.06072,-0.42528 0.6334,-0.27518 0.8918,-0.24488c0.6512,0.39604 1.7589,0.14376 1.37397,-0.79806c0.30123,0.18604 0.19768,0.70222 -0.03098,0.90341c-0.60189,0.32557 -1.17213,0.08069 -1.77307,0.71737c-0.09153,-0.29104 -0.43737,-0.27483 -0.5614,0.04581c-0.11454,0.00775 -0.14429,0.00599 -0.25347,0.01304c-0.01995,-0.16913 0.11701,-0.29068 0.17181,-0.44994l0,0l0,0zm1.60841,-1.63382c-0.19261,0.13178 -0.36537,0.32627 -0.56157,0.06272c-0.04543,0.00916 -0.08286,0.01656 -0.12941,0.02572c0.29076,-0.4503 0.26683,-0.37278 0.69099,-0.08844l0,0zm0.65504,-1.02955c0.14302,0.15891 0.20554,0.33085 0.2054,0.52605c-0.1378,-0.04792 -0.19782,-0.19837 -0.2054,-0.52605zm-5.99529,2.55238l0.72789,-0.25933l0.26637,0.53733l-0.50511,0.32134l-0.48915,-0.59934l0,0zm-0.46779,-0.1272c-0.09266,0.55565 -1.33954,0.3157 -1.21922,-0.23466c0.09266,-0.5553 1.3394,-0.3157 1.21922,0.23466zm-2.47889,0.24171l-0.77825,-0.5486l0.77934,-0.55001l0.77825,0.5486l-0.77934,0.55001zm-1.78502,0.068c-0.78995,0.15996 -0.95736,-0.70927 -0.16438,-0.85373c0.78995,-0.15996 0.95736,0.70927 0.16438,0.85373zm-1.64877,0.41682l-0.50511,-0.32134l0.26655,-0.53733l0.72771,0.25933l-0.48915,0.59934l0,0zm9.59397,-1.74622c0.06252,-0.00669 0.11412,-0.01233 0.18408,-0.01973c-0.12075,-0.08773 -0.00261,-0.20824 0.09731,-0.12262c0.23941,0.18569 -0.24036,0.48941 -0.28138,0.14235zm4.82453,6.23333l-0.06721,-0.0081l-0.17812,-0.48412c0.08342,-0.10711 0.12843,-0.2787 -0.00317,-0.36573c-0.17414,-0.06871 -0.66508,-0.62999 -0.8106,-0.26672c-0.06263,0.0222 -0.45143,0.04475 -0.48171,0.11698c-0.18669,-0.29527 -0.34444,-0.60885 -0.46063,-0.95767c0.07556,-0.4052 1.14817,-0.91011 1.14817,-0.91011c0,0 -0.30468,-0.43796 -0.42624,-0.68461c-0.05396,0.1205 -0.1034,0.06906 -0.22084,0.12262c0.59586,-1.05809 0.72235,-2.45056 -0.06594,-3.45016c-0.08081,-0.17335 -0.04363,-0.40202 -0.12293,-0.57221c-0.13671,-0.18005 -0.23116,-0.53521 -0.47276,-0.57291c-0.00109,0.31429 -0.03345,0.62189 0.11838,0.91328c0.16177,0.20295 -0.22052,0.37489 -0.33961,0.21458c0.22824,-0.02643 0.26693,-0.07188 0.18806,-0.20084c-0.98407,-0.22057 -1.53408,0.47038 -2.47287,0.5789c-0.08258,-0.0007 -0.15638,0.02854 -0.2029,0.10429c-0.57835,0.77903 0.7196,0.24699 0.83263,0.76353c-0.21671,0.17899 -0.24671,0.06131 -0.44978,0.00951c-0.29242,0.01092 -0.57574,0.10253 -0.21104,0.34953c-0.22263,0.34953 -0.21174,0.47285 -0.66455,0.50244c0.19634,0.2773 0.15405,0.67791 0.2054,0.9922c-0.32255,0.0606 -0.54187,0.21599 -0.54832,0.56058c-0.14524,0.03242 -0.30179,-0.04334 -0.40502,0.1131c-0.20307,-0.16807 -0.43628,-0.19872 -0.67971,-0.2026c-0.11743,-0.08773 -0.40544,-0.29491 -0.71463,-0.45347c0.06111,-0.22867 0.11923,-0.4429 0.17428,-0.64338c0.09061,-0.05778 0.41563,-0.26461 0.50004,-0.31817c-0.04353,-0.08773 -0.21506,-0.43374 -0.26158,-0.52781c0.57972,-1.99462 0.76806,-2.10596 1.06143,-2.1493l0.01582,-0.05532l-1.07285,-0.34354l-0.01871,0.07012c0.27078,0.19661 0.35889,0.52323 0.23553,0.90553c-0.2866,-0.12367 -0.44988,-0.39498 -0.41891,-0.63739c-0.00553,-0.00176 -0.07091,-0.02044 -0.07091,-0.02044l-0.35906,1.19128c0,0 0.05177,0.0155 0.05727,0.01726c0.14112,-0.20401 0.38701,-0.31852 0.67128,-0.27131c-0.3315,1.05598 -1.82509,0.72653 -1.55773,-0.16983c0.19024,-0.36961 0.55163,-0.13248 0.37764,0.25474c0.83785,-0.2935 0.34363,-1.49887 -0.37309,-0.78009c0.23694,-0.48518 0.37157,-0.86606 0.07408,-1.33539c-0.38592,0.24805 -0.4846,0.69659 -0.41069,1.29451c-0.47276,-1.08135 -1.29781,0.03277 -0.62709,0.59582c-0.12212,-0.80229 0.86858,-0.27201 0.19825,0.37454c-0.63907,0.45241 -1.42486,-0.0673 -1.44759,-0.86536c0.36896,0.03277 0.65091,0.25193 0.68891,0.52535c0.00645,0.00035 0.06774,0.00247 0.06774,0.00247l0.04585,-1.36216c0,0 -0.07711,-0.00352 -0.0837,-0.00352c-0.05741,0.27553 -0.35698,0.50949 -0.73627,0.51654c0.02587,-0.41999 0.26665,-0.74732 0.57835,-0.80088c0,-0.0074 0,-0.07787 0,-0.07787l-1.57204,0c0,0 0,0.07047 0,0.07787c0.31166,0.05356 0.55244,0.38088 0.57835,0.80088c-0.37929,-0.00705 -0.67886,-0.241 -0.73627,-0.51654c-0.00659,0 -0.0837,0.00352 -0.0837,0.00352l0.04585,1.36216c0,0 0.06125,-0.00211 0.06774,-0.00247c0.03799,-0.27342 0.31994,-0.49258 0.68891,-0.52535c-0.02217,0.79771 -0.80895,1.31812 -1.44774,0.86536c-0.67005,-0.6469 0.32047,-1.17648 0.19835,-0.37454c0.67114,-0.56481 -0.15528,-1.67646 -0.62709,-0.59582c0.07394,-0.59793 -0.02478,-1.04646 -0.41066,-1.29451c-0.29749,0.46932 -0.16272,0.85021 0.07408,1.33539c-0.71784,-0.71914 -1.20998,0.488 -0.37309,0.78009c-0.17403,-0.38723 0.18721,-0.62435 0.37749,-0.25474c0.2675,0.89707 -1.22665,1.2251 -1.55763,0.16983c0.28445,-0.04721 0.53017,0.0673 0.67128,0.27131c0.0055,-0.00176 0.05727,-0.01726 0.05727,-0.01726l-0.35903,-1.19128c0,0 -0.06541,0.01867 -0.07091,0.02044c0.03098,0.24241 -0.1323,0.51372 -0.41894,0.63739c-0.12335,-0.38229 -0.03524,-0.70892 0.23557,-0.90553l-0.01871,-0.07012l-1.07288,0.34354l0.01582,0.05532c0.2934,0.04334 0.48171,0.15468 1.06147,2.1493c-0.04751,0.09619 -0.21724,0.43832 -0.26158,0.52781c0.08261,0.0525 0.41136,0.26179 0.5,0.31817c0.05026,0.18287 0.10298,0.37736 0.15831,0.58348c0.00208,-0.00106 0.0043,-0.00176 0.00634,-0.00317c-0.00247,0.0074 -0.00469,0.00951 -0.00634,0.00317c-1.44358,0.67474 -1.11634,1.13314 -2.22694,1.00136c-0.09953,0.22973 -0.19247,0.45734 -0.41838,0.61343c-0.04187,-0.35199 -0.19881,-0.62506 -0.40572,-0.87417c-0.10256,-0.11944 -0.24297,0.01268 -0.39621,0.02466c-0.30123,0.65677 -0.50952,0.06342 -1.0405,0.40696c0.0209,0.30619 0.06732,0.61061 0.23539,0.89319c-0.39497,-0.02784 -0.72098,-0.1346 -0.98199,-0.31993c-1.18052,1.31847 -2.41309,2.58445 -3.42275,4.0347c-0.53898,0.71209 -1.9808,0.29808 -1.60041,-0.6832c0.17442,-0.71632 1.20942,-0.56375 1.1439,0.14693c0.51156,-0.56833 0.18281,-1.1342 -0.59889,-1.00771c0.71756,-0.31006 1.14806,0.27694 1.79496,-0.52993c-0.49397,0.01198 -0.91316,-0.14481 -1.40548,-0.03101c0.62339,-0.37313 1.47956,0.18075 2.01177,-0.84915c-0.46381,0.04968 -0.88313,0.24347 -1.36308,0.31464c2.88035,-2.74512 0.10904,-2.88077 0.46134,-4.06747c-0.22507,0.19097 -0.35476,0.38229 -0.25069,0.63845c-0.64513,-0.26919 -1.60164,-0.18991 -1.86294,-0.97388c-0.06319,1.11623 0.42733,1.03625 1.27014,1.26597c-0.38905,-0.04651 -0.77303,-0.04933 -1.13731,-0.18392c0.07517,0.50033 0.45485,0.60674 0.9016,0.55882c-0.43723,0.24277 -0.33785,0.86536 0.10711,1.07923c-0.28385,-1.61444 2.13446,-1.06091 1.03006,0.42211c-0.51269,0.76388 -1.25446,1.33186 -1.87781,1.9992c-0.11757,-0.20295 -0.24026,-0.40696 -0.51255,-0.37807c0.4748,0.5479 -0.06115,1.14371 -0.18683,1.70922c-0.18337,0.6987 0.43392,1.29346 1.09572,1.3752c-0.26366,0.31218 -0.28484,0.59018 -0.0818,0.84563c0.19937,-1.02638 1.68813,-0.79489 1.82854,-1.90548c0.02534,-0.13072 0.08783,-0.2329 0.23391,-0.2928c-0.67086,0.75825 0.94234,2.36388 -0.57327,2.55133c-0.21625,0.00599 -0.27011,0.2336 -0.14979,0.39533c-0.62638,-0.03136 -0.79918,0.20683 -0.89469,0.79665c0.27627,-0.07153 0.53292,-0.13777 0.79242,-0.20471c-0.27272,0.7142 -0.89156,-0.04158 -0.78967,1.22898c0.25287,-0.12121 0.49066,-0.24946 0.72235,-0.39286c0.22369,0.71315 -1.13481,0.40484 -0.11496,1.54327c0.06499,-0.21246 0.33728,-0.64796 0.47621,-0.74486c-0.12596,0.35833 -0.09597,0.77304 0.30616,0.93371c0.01875,-0.09549 0.03538,-0.18005 0.05205,-0.26461c0.01829,-0.00035 0.01515,-0.00035 0.03359,-0.0007c0.05769,0.23642 0.06608,0.56763 0.29573,0.70398c0.07599,0.0303 0.11701,0.07223 0.14221,0.15221c0.04183,0.13213 0.16466,0.16736 0.28413,0.18322c0.15021,0.03101 0.1882,-0.13918 0.29862,-0.20788c0.03151,0.1878 0.25358,0.21775 0.36248,0.37771c0.0837,-0.92596 -1.14499,-0.58982 -0.86333,-1.20185c0.10876,0.37313 0.45746,0.29174 0.70103,0.44466c0.09428,0.15503 0.32463,0.28329 0.44217,0.068c0.11454,0.08597 0.21809,0.16349 0.31899,0.23924c-0.2398,-1.10002 -0.81018,-0.41964 -1.16935,-0.99714c0.25012,0.01128 0.51748,0.38229 0.78745,0.12896c0.14538,0.14939 0.2576,0.32486 0.36717,0.50139c0.0442,-0.35164 -0.08698,-0.61977 -0.36385,-0.81533c-0.31222,-0.19132 -0.73613,0.14834 -1.00307,-0.23325c-0.36481,-0.4503 -0.35437,-1.08205 -0.16452,-1.60317c0.17417,-0.40062 0.65958,-0.55036 0.88356,-0.93019c-0.06235,0.33543 -0.03094,0.91856 0.34888,1.02708c-0.09223,-0.62259 0.3505,-1.18353 0.44012,-1.78533c0.11553,-0.15186 0.12117,-0.2706 0.01653,-0.43479c-0.18848,-0.30901 -0.24011,-0.68143 -0.44869,-0.98586c-0.32322,-0.45312 -0.72151,-0.4658 -0.0622,-0.94358c-0.40037,0.62118 -0.07352,0.39498 0.2719,0.98022c0.06386,-0.19731 0.35836,-0.45452 -0.0098,-0.45347c-0.5811,-0.28505 0.75636,-1.02638 1.05844,-1.04541c0.29791,-0.02325 0.71601,0.01022 0.94178,-0.28434c-0.14126,-0.26813 -0.27835,-0.30619 -0.03785,-0.58489c-0.16244,-0.09478 -0.30577,-0.20788 -0.33386,-0.4214c-0.15472,0.05391 -0.29115,0.10148 -0.45168,0.15715c0.14619,-0.1656 0.5763,-0.49962 0.62297,-0.12931c0.01004,0.20788 0.21654,0.24523 0.37721,0.29703c-0.11715,0.17053 -0.31212,0.34213 -0.13452,0.54155c0.1242,0.13037 0.20142,0.37595 0.39237,0.40802c0.05177,-0.19308 0.10133,-0.37842 0.15239,-0.56904c0.42306,0.4436 -0.42483,0.69095 0.73737,1.08945c-0.0424,-0.23995 -0.08011,-0.47144 -0.04899,-0.71949c0.56016,0.46791 -0.24093,0.76142 1.04917,0.91433c-0.14372,-0.17053 -0.17689,-0.35939 -0.22989,-0.55001c0.21516,0.03523 0.3892,0.241 0.52823,0.39568c0.13287,0.20189 0.23074,0.31253 0.53429,0.11522c0.01364,0.03523 0.01695,0.08386 0.04268,0.10359c0.13629,0.10359 0.08166,0.22938 0.07877,0.3675l0.03729,0c0.17939,-0.18111 0.19204,-0.38864 0.13615,-0.61555c-0.12459,-0.42704 -0.64609,-0.08703 -0.82875,-0.52323c0.24614,0.16772 0.49119,0.26567 0.76214,0.12544c0.1513,0.14235 0.21463,0.24664 0.28787,0.44853c0.12378,-0.46016 -0.01861,-0.92984 -0.50472,-0.79172c-0.15116,0.05391 -0.21322,0.04158 -0.36523,-0.0902c0.22577,0.07822 0.37489,-0.03735 0.51889,-0.14059c0.03126,0.04017 0.04955,0.08597 0.07063,0.08738c0.13671,0.00775 0.22549,0.0902 0.30961,0.19097c0.04557,-0.39357 -0.34585,-0.71174 -0.73983,-0.61167c-0.09829,0.48236 -0.5036,0.20929 -0.82481,0.14517c-0.49905,-0.29209 -0.76116,-0.85126 -1.20255,-1.21594c0.04405,-0.5412 -0.40653,-0.97212 -0.9484,-0.94076c0.48848,-0.21317 1.06806,0.20647 1.10605,0.71596c0.01829,0.20824 0.14552,0.33966 0.2774,0.4954c1.65025,-3.31803 6.97728,-4.1855 10.03589,-2.07954l-0.00028,0c0.26048,0.23854 0.54381,0.43338 0.81392,0.68461c0.10531,-0.31676 0.04282,-0.69377 0.51558,-0.50174l0.0885,-0.0599c-0.0965,-0.26778 0.10383,-0.5708 0.38479,-0.59053l0,0.20894c-0.12307,0.02008 -0.21862,0.13953 -0.19877,0.26743c0.09417,-0.02008 0.18006,0.10394 0.12885,0.18533c0.08825,0.05003 0.21298,0.0296 0.28124,-0.04228c0.07863,0.00388 0.15698,0.01163 0.23529,0.01938c-0.10763,0.2558 -0.481,0.34283 -0.69095,0.15538l-0.00085,0.0007c0.04049,0.05567 -0.14069,0.61942 -0.14841,0.68637c-0.02132,0.08245 -0.09801,0.13636 -0.17992,0.13248c0.03359,0.05532 0.06139,0.10077 0.09181,0.1508c0.13382,-0.0747 0.32093,-0.07012 0.30359,-0.25968c0.0253,-0.10747 -0.04391,-0.60286 0.10985,-0.55882c0.06235,0.1878 -0.05523,0.40555 0.08427,0.59088c0.44121,-0.10887 0.24766,-0.50843 0.7829,-0.61273c0.21273,-0.01903 0.66057,-0.12191 0.77522,0.0902c-0.46751,-0.12544 -1.07162,0.00317 -1.17403,0.53697c-0.48668,0.11486 -0.89512,0.46192 -1.41306,0.46157c-0.4115,0.02255 -0.52203,0.51654 -0.53951,0.85514c-0.06844,0.38864 -0.08948,0.79172 -0.26271,1.15217c-0.08494,0.13777 -0.0136,0.29597 0.03292,0.42387c0.15779,0.0828 0.27011,0.62964 0.2927,0.82484c-0.00099,0.35657 0.61056,0.47567 0.85945,0.69764c0.06925,-0.44677 -0.77712,-0.31993 -0.65831,-0.94393c0.15045,0.41295 0.4791,0.49822 0.83922,0.70152c-0.1126,-0.41823 -0.14661,-1.11376 -0.73007,-1.02638c-0.22521,-0.31288 0.10411,-0.3305 -0.0019,-0.70328c0.16741,0.05215 0.24685,0.11028 0.29129,0.21458c-0.05202,-0.01691 -0.09745,-0.03136 -0.16917,-0.05426c0.01952,0.26461 0.24861,0.32698 0.42497,0.50879c-0.0296,-0.43303 -0.06827,-0.7068 -0.47124,-0.91786c-0.22852,-0.20929 0.03496,-0.69024 0.0197,-0.97917c-0.00744,-0.08527 0.53923,-0.35728 0.62282,-0.33297c0.40516,0.05285 0.82974,-0.01198 1.22182,0.0902c0.39096,0.12332 0.05533,-0.72583 0.68725,-0.27906c-0.45778,-0.1346 -0.179,0.36468 -0.50952,0.3904c-0.23088,0.00247 -0.42708,-0.01973 -0.66758,-0.02784c0.83059,1.84805 2.67287,1.30649 3.17964,2.95582c0.42387,-0.37419 0.13548,-0.36785 0.01692,-0.7593c0.95722,0.6381 -0.89113,1.37732 -0.19701,2.49495c-0.04391,-0.12544 0.3906,-0.64937 0.44002,-0.75613c0.07916,-0.11733 0.21351,-0.12508 0.30038,-0.03946l0.13823,-0.28751c-0.25745,-0.14094 0.20843,-0.74521 0.24258,-0.91715c0.04832,-0.10359 0.15779,-0.15257 0.24424,-0.10958l0.12871,-0.35833c-0.24339,-0.06554 -0.06097,-0.65642 -0.08025,-0.82096c-0.34225,-0.30901 -0.62282,-0.69694 -0.88824,-1.05562l0.16395,-0.02819c-0.01857,0.08104 0.01061,0.16913 0.0793,0.21634c0.11771,0.04651 0.56774,0.4806 0.70914,0.37736l0.07063,0.19203c-0.11373,0.03065 -0.13368,0.19062 -0.13477,0.29808c0.06055,0.05109 0.12582,0.09901 0.18489,0.15221c0.00853,-0.03841 0.00204,-0.21423 0.0369,-0.2403c0.05325,0.07047 0.15074,0.07082 0.20966,0.01445c0.05519,0.02889 -0.01378,0.41048 -0.00701,0.45875c0.06608,0.07188 0.12899,0.14622 0.18831,0.22374c-0.02478,-0.17547 0.1907,-0.84527 -0.10763,-0.87804"/><path stroke="null" fill-rule="nonzero" fill="#ffffff" d="m21.30476,14.26374c-0.03454,-0.04087 -0.04296,-0.10007 -0.01265,-0.14376c-0.05466,-0.01128 -0.14608,0.49751 -0.16466,0.5264c0.03676,0.03594 0.06954,0.07012 0.09995,0.1057c0.04737,0.01374 0.12857,0.04158 0.14538,-0.02819l0.11592,-0.44889c-0.05396,0.04898 -0.14069,0.05356 -0.18394,-0.01128"/><path stroke="null" fill-rule="nonzero" fill="#ffffff" d="m14.50715,26.97598c-1.27673,-0.50561 -2.20547,0.73112 -1.16276,0.94006c-1.14404,0.04968 -0.92321,-1.56018 -1.39543,-1.4647c0.41397,0.44572 0.41372,1.27654 0.79506,1.50627c0.76901,0.32662 1.56834,0.38018 2.39202,0.34177c-0.41482,-0.36785 -0.51572,-0.83189 -0.62889,-1.32341"/><path stroke="null" fill-rule="nonzero" fill="#ffffff" d="m18.40735,27.89842c1.04053,-0.20647 0.11867,-1.44532 -1.16276,-0.94006c-0.11317,0.49187 -0.21407,0.95556 -0.62875,1.32376c0.82354,0.03841 1.623,-0.01515 2.39188,-0.34177c0.38151,-0.22973 0.38109,-1.06056 0.79506,-1.50627c-0.47205,-0.09549 -0.25139,1.51402 -1.39543,1.46434"/><path stroke="null" fill-rule="nonzero" fill="#ffffff" d="m26.77921,17.91333c-0.00204,0.02502 0.00758,0.04757 0.02259,0.06342c0.05822,-0.04933 0.14936,-0.02889 0.19148,0.02995c0.06679,-0.01903 0.04476,-0.2255 0.05854,-0.27483c-0.0756,-0.08174 -0.15546,-0.15961 -0.23955,-0.2329l-0.03306,0.41436"/><path stroke="null" fill-rule="nonzero" fill="#ffffff" d="m26.45832,19.44497c0.00673,-0.05884 0.32861,-0.59088 0.24434,-0.63774c-0.0578,0.01163 -0.1254,-0.02008 -0.14964,-0.0754c-0.07845,-0.03242 -0.28262,0.54719 -0.318,0.58348c0.1027,-0.06307 0.2324,0.04158 0.19768,0.15996c0.01019,-0.00775 0.01956,-0.01726 0.02562,-0.0303"/><path stroke="null" fill-rule="nonzero" fill="#ffffff" d="m30.10987,16.9923c-0.2675,0.08139 -0.37746,0.30372 -0.4779,0.556c-0.67164,-1.04752 -1.94851,-1.77018 -2.14292,-3.05095c0.15035,-1.02462 1.5079,-0.79031 1.23243,0.2773c0.70403,-0.37877 0.36357,-1.08275 -0.29943,-1.20713c0.72084,0.05778 1.11475,0.66664 1.60746,-0.34565c-0.42645,0.15468 -1.07592,0.04475 -1.2995,0.01163c0.89737,-0.12156 1.3855,-0.1131 1.35801,-1.22722c-0.30556,0.66734 -1.15194,0.68002 -1.76718,0.89601c0.03954,-0.29597 -0.05311,-0.47778 -0.29185,-0.57397c0.24381,1.62818 -2.84412,1.09755 0.54917,4.61078c-0.4163,-0.22938 -0.90037,-0.15221 -1.30373,-0.40802c0.31402,0.84598 0.84447,0.70011 1.53873,0.99432c-0.74505,-0.00388 -0.97607,0.72266 -0.42444,1.07148c-0.14386,-0.56129 0.62709,-0.94745 1.01272,-0.50879c0.88112,1.13103 -0.73116,2.70248 -2.16131,-0.13248c0.01019,0.15679 -0.09911,0.29738 -0.25136,0.24981l-0.1611,0.44853c0.32724,0.12156 -0.17523,0.75331 -0.2098,0.93548c-0.05699,0.12156 -0.18408,0.15785 -0.27959,0.09161l-0.15807,0.32839c0.19839,0.18146 -0.33425,0.69659 -0.39455,0.85655c-0.06182,0.09231 -0.17238,0.12367 -0.25083,0.0747l-0.05713,0.11909c0.01184,0.01515 0.01981,0.02431 0.02146,0.02361c0.36139,0.42775 0.52714,0.75719 0.42994,1.21171c0.29323,-0.25157 0.4243,-0.94851 0.18958,-1.32834c0.26528,0.2773 0.65091,0.47496 0.80274,0.82836c0.15282,0.64303 0.03524,1.28113 -0.40114,1.78815c-0.18517,0.18674 -0.1359,0.28434 -0.15944,0.51266c-0.12321,0.36256 -0.55713,0.39251 -0.72056,0.69976c-0.11496,0.26884 -0.30454,0.48905 -0.38687,0.77128c0.49218,-0.07716 0.40794,-0.76353 0.87379,-0.90306c-0.18901,0.28787 -0.3721,0.55001 -0.50137,0.88403c0.38877,-0.10112 1.12325,-0.20612 1.00042,-0.75507c-0.09237,-0.25334 0.15324,-0.41964 0.14097,-0.66135c0.30813,-0.11064 0.23666,-0.23501 0.38412,-0.47531c0.06827,0.14552 0.07158,0.26813 0.06319,0.42598c-0.03799,-0.07893 -0.06168,-0.1279 -0.0891,-0.18463c-0.21749,0.29597 -0.03577,0.58348 -0.06633,0.89989c1.0737,-0.9619 -0.35258,-0.95485 0.76214,-3.08619c0.25633,-0.42457 -0.72912,-0.37666 -0.8025,-1.33574c-0.06897,-0.41471 0.29516,-0.75437 0.37267,-1.15005c0.42941,0.76353 1.92934,0.73746 1.72419,1.71275c0.30165,-0.22761 0.28872,-0.64479 0.16991,-0.95732c1.54719,-0.55706 0.32636,-1.98018 0.82435,-2.98859"/><path stroke="null" fill-rule="nonzero" fill="#ffffff" d="m25.50371,20.65774c0.03454,0.01445 0.06457,0.03876 0.07708,0.0754c0.02478,0.00388 0.05248,-0.00881 0.06968,-0.03453c0.01198,-0.03664 0.39332,-0.53627 0.34997,-0.57115c-0.04254,-0.01339 -0.08124,-0.04228 -0.09417,-0.08738c-0.03623,-0.03453 -0.08924,-0.05144 -0.12487,0.00211c-0.0142,0.06342 -0.43889,0.54296 -0.32988,0.60392c0.01776,-0.00035 0.03567,0.00317 0.0522,0.01163"/><path stroke="null" fill-rule="nonzero" fill="#ffffff" d="m25.28069,20.7564c0.00631,0.01092 0.01279,0.02185 0.01928,0.03277l0.00659,-0.01374l-0.02587,-0.01903"/><path stroke="null" fill-rule="nonzero" fill="#ffffff" d="m10.30696,22.92402c0.1549,0.02819 0.32685,0.05814 0.47677,-0.00987c-0.23363,-0.39744 -0.46342,-0.78855 -0.70212,-1.1948c-0.41591,0.5116 -1.13717,0.19943 -1.59051,-0.11486c-0.36925,-0.27236 0.42803,-0.69553 0.17181,-1.60246c0.35504,0.57221 -0.28995,1.06725 0.70611,1.38789c-0.28815,-0.42845 -0.24903,-0.98058 -0.35726,-1.47069c-0.01293,-0.08456 -0.05438,-0.16877 0.01364,-0.25369c0.03359,-0.11733 0.04159,-0.27624 -0.11824,-0.2935c-1.11306,-0.6388 -0.88881,-0.32874 -1.97227,-0.47707c-0.26531,0.46968 0.29943,0.88826 0.21009,1.34772c-0.07958,0.22515 0.26158,0.21563 0.25784,0.43479c0.07584,0.34213 0.03842,0.82167 -0.35215,0.95344c-0.19412,0.11733 -0.03856,0.36503 0.13093,0.42281c-0.345,0.62224 -0.08053,0.7216 0.44699,1.03272c0.00317,-0.23995 0.00744,-0.44959 0.10686,-0.65325c0.72799,0.48306 -0.35684,0.56375 1.08649,1.149c-0.14623,-0.24136 -0.14249,-0.50421 -0.16424,-0.74591c0.136,0.03206 0.26912,0.06342 0.40516,0.09549c0.15624,0.66769 0.51762,0.72618 1.15476,0.66734c-0.22757,-0.22656 -0.29242,-0.52147 -0.45788,-0.75648c0.1918,0.06483 0.3826,-0.06659 0.54723,0.08139"/><path stroke="null" fill-rule="nonzero" fill="#ffffff" d="m23.30649,19.20432c-0.19782,0.03171 -0.24244,0.11486 -0.20649,0.30724c-0.22013,0.47496 -0.22605,1.05245 -0.60164,1.45377c0.80884,-0.22832 0.62973,-0.53451 0.82632,-1.149c-0.04007,0.83365 0.00328,0.82272 0.30549,1.39317c-0.62381,0.43832 -1.64242,0.07082 -1.98411,0.92138c0.09498,0.10887 0.21724,-0.00176 0.34377,0.02784c-0.08166,0.0983 -0.11426,0.21423 -0.2441,0.29985c0.02809,-0.0821 0.04571,-0.13319 0.06305,-0.18392c-0.23349,-0.07822 -0.42525,0.45558 -0.59914,0.62753c1.66512,-0.33508 -0.20156,-0.82343 3.08135,-1.20608c0.58014,-0.27307 -0.54878,-0.70081 0.59033,-1.42171c0.10147,-0.39357 0.16272,-0.79982 0.37651,-1.15534c0.05096,-0.11663 -0.02932,-0.28117 -0.13643,-0.36292c-0.49919,0.35164 -0.73624,-0.21563 -1.8149,0.44818"/><path stroke="null" fill-rule="nonzero" fill="#ffffff" d="m6.4916,12.35967c0.00715,-0.11064 0.01417,-0.21669 0.02189,-0.33438c-0.12501,-0.02149 -0.2405,-0.04158 -0.36939,-0.06413c0.15116,-0.11381 0.33414,-0.14164 0.48241,-0.08456c-0.12737,0.53803 0.10048,0.91645 0.67513,0.94605c0.17565,-0.26144 0.33302,-0.30125 0.50402,-0.11663c-0.75911,-0.07822 -0.19564,0.72336 0.1919,0.45206c0.10312,-0.14904 0.43064,-0.27976 0.33591,-0.48976c-0.60228,-0.44008 -0.5603,0.20929 -0.67238,-0.87699c-0.02492,-0.00211 -0.05287,-0.00458 -0.07655,-0.00669c-0.05628,0.20647 -0.25908,0.36609 -0.42511,0.17124c-0.05755,-0.06518 -0.10781,-0.12508 -0.20212,-0.14164c0.41235,-0.32909 0.90217,0.14552 0.87256,-0.62753c0.45929,0.57538 0.49947,-0.06377 0.95394,-0.07329c-0.02108,0.45593 -0.11496,0.42105 -0.50761,0.39498c0.1279,0.09795 0.61814,0.5863 0.33249,0.63246c-0.11937,-0.30548 -0.31952,-0.60286 -0.65863,-0.66382c-0.27338,0.27307 -0.13956,0.57925 -0.09664,0.89425c0.243,-0.08245 0.45059,-0.23995 0.70762,-0.21986c0.08578,0.25122 -0.31786,0.3904 -0.08892,0.63951c0.39166,0.06342 0.81719,0.06589 0.69232,-0.48835c-0.12762,-0.07611 -0.25425,-0.12825 -0.38669,0.01198c0.00701,-0.21528 0.21766,-0.25228 0.3819,-0.21141c0.36177,-0.38511 0.24107,-0.8939 -0.14732,-1.20326c0.10256,-0.1508 0.21079,-0.25545 0.39758,-0.29245c-0.06319,0.13037 -0.19521,0.17829 -0.22492,0.29703c0.08645,0.1057 0.16712,0.20506 0.24671,0.30266c0.20868,-0.09196 0.26253,-0.41823 0.11465,-0.7519c-0.25689,0.06659 -0.709,0.27976 -0.709,0.27976c-0.22108,-0.08421 -0.12624,0.02466 -0.09431,0.13178c-0.70762,0.12966 -1.4016,0.31535 -1.96342,0.78467c-0.10066,0.07329 -0.14679,0.02889 -0.17981,-0.11381c-0.06703,-0.10289 -0.09787,0.07434 -0.10725,0.11804c0,0 -0.425,0.10359 -0.61028,0.26179c0.13104,0.21563 0.31539,0.55565 0.60933,0.44219"/><path stroke="null" fill-rule="nonzero" fill="#ffffff" d="m9.26728,12.1458c0.06499,0.31993 -0.02559,0.58701 -0.23553,0.83823c0.31483,0.56234 0.84736,0.98903 1.08289,1.59753c0.52552,-0.98128 -0.03563,-1.31107 -0.75827,-1.8484c0.46366,0.16666 0.93145,0.32521 1.18905,0.7667c0.05495,-0.84175 -0.318,-1.2621 -1.13509,-1.39176c0.00247,-0.01128 0.00511,-0.0229 0.00758,-0.03418c0.34073,-0.01586 0.67911,-0.01515 0.99796,0.19273c-0.08409,-0.26074 -0.29583,-0.64655 -0.6045,-0.61343c0.1107,-0.23149 0.10933,-0.38511 -0.00247,-0.52464c-0.05248,0.16208 -0.15518,0.26285 -0.32244,0.26884c0.03609,0.29139 -0.0603,0.53345 -0.21918,0.74838"/><path stroke="null" fill-rule="nonzero" fill="#ffffff" d="m6.66725,14.06326c0.09678,0.23501 0.24159,0.50808 0.481,0.60639c-0.1236,-0.46369 0.18986,-0.86782 0.33566,-1.28711c0.00275,0.96613 -0.5467,1.49042 0.77892,1.84558c-0.35311,-0.56868 -0.11933,-1.25928 -0.34278,-1.84347c-0.21312,-0.12226 -0.45362,-0.15292 -0.59777,-0.33156c-0.03965,-0.08421 -0.11207,-0.11522 -0.18862,-0.13178c-0.24903,-0.05426 -0.47921,-0.13671 -0.60408,-0.34389c-0.182,0.05708 -0.29256,0.05003 -0.45954,-0.01973c-0.01473,0.20612 0.16092,0.41365 0.39237,0.33473c-0.18545,0.27025 -0.08247,0.51266 -0.01473,0.79172c0.13255,-0.27835 0.33562,-0.44607 0.56277,-0.58736c-0.17386,0.29667 -0.48375,0.59546 -0.3432,0.96648"/><path stroke="null" fill-rule="nonzero" fill="#ffffff" d="m11.99136,23.93173c0.17939,-0.16666 -0.06443,-0.26391 -0.15997,-0.39251c-1.59971,-1.48866 -2.19582,-3.42268 -2.05569,-5.57127c-0.03866,-0.01973 -0.08702,-0.04369 -0.16631,-0.08315c-0.26817,2.27826 0.61127,4.57696 2.38197,6.04694"/><path stroke="null" fill-rule="nonzero" fill="#ffffff" d="m26.27453,11.54963c-0.15172,0.29315 0.28702,0.41471 0.29256,0.692c-0.11592,-0.09196 -0.21477,-0.17053 -0.32572,-0.25862c-0.1396,0.54296 0.50166,0.71702 0.69895,1.14442c0.25798,-0.79101 0.11796,-1.27161 -0.66579,-1.5778"/><path stroke="null" fill-rule="nonzero" fill="#ffffff" d="m8.69802,13.88427c-0.42387,0.02572 -0.36192,-0.50667 -0.48611,-0.8044c-0.07694,0.08703 -0.14112,0.15961 -0.2098,0.23713c0.0874,0.29562 0.17513,0.59264 0.26831,0.90764c0.07077,-0.05074 0.1297,-0.09267 0.19275,-0.13777c0.29573,0.20894 0.56636,0.06518 0.66385,-0.26109c0.08769,0.0222 0.16783,0.0599 0.23074,-0.00388c-0.13851,-0.28646 -0.2719,-0.56199 -0.40819,-0.84387c-0.08522,0.01726 -0.1648,-0.10218 -0.2657,-0.0074c0.0947,0.26391 0.44495,0.79066 0.01417,0.91363"/><path stroke="null" fill-rule="nonzero" fill="#ffffff" d="m26.19301,10.22376c-0.00219,0.01163 -0.00451,0.02361 -0.00673,0.03559c-0.13297,-0.0074 -0.26598,-0.01445 -0.40516,-0.0222c0.14869,0.47954 0.70554,0.2477 1.05593,0.4658c-0.20156,-0.38406 -0.34609,-0.75965 -0.81406,-0.83365c0.05012,-0.22867 -0.01142,-0.44395 -0.15349,-0.52887c0.00233,0.20013 -0.0811,0.346 -0.26394,0.42176c-0.08987,0.39744 0.32382,0.37736 0.58744,0.46157"/><path stroke="null" fill-rule="nonzero" fill="#ffffff" d="m26.07202,12.98367c-0.01103,0.00211 -0.02189,0.00423 -0.03292,0.00634c-0.09621,0.42317 0.19853,0.79454 0.3826,1.15534c0.31924,-0.56833 0.30672,-1.21383 -0.20473,-1.66377c-0.15638,0.30196 0.06125,0.59018 0.13851,0.87558c-0.01061,0.00423 -0.02122,0.00881 -0.03193,0.01268c-0.08384,-0.12861 -0.16769,-0.25721 -0.25153,-0.38617"/><path stroke="null" fill-rule="nonzero" fill="#ffffff" d="m25.95416,10.59619c0.18256,0.43515 0.47512,0.33085 0.66565,0.61555c-0.16039,-0.05285 -0.29957,-0.09866 -0.43861,-0.14411c-0.00909,0.46263 0.5738,0.51196 0.89649,0.68954c-0.05205,-0.75014 -0.41605,-1.03378 -1.12353,-1.16098"/><path stroke="null" fill-rule="nonzero" fill="#ffffff" d="m24.27417,9.81116c0.19934,0 0.48597,0.12755 0.65035,0.01233c0.00412,-0.63211 -0.76683,-0.54825 -1.20501,-0.56164c0.13107,0.23642 0.29721,0.47003 0.55466,0.54931"/><path stroke="null" fill-rule="nonzero" fill="#ffffff" d="m22.08191,18.81956c-0.16452,-0.01304 -0.31938,-0.02537 -0.49863,-0.03946c0.00701,0.08844 0.01209,0.15433 0.01762,0.22515c0.09953,0.02466 0.18475,0.04581 0.2756,0.06871c0.02752,0.52041 -0.25936,0.52922 -0.64732,0.31147c-0.11525,0.66029 0.9484,0.5937 0.85272,-0.56587"/><path stroke="null" fill-rule="nonzero" fill="#ffffff" d="m21.71365,16.71289c-0.58744,0.71878 -0.59241,0.82343 0.30274,1.13244c-0.00856,-0.08174 -0.01406,-0.1346 -0.02037,-0.19626c-0.17474,-0.05179 -0.34694,-0.11627 -0.50264,-0.22198c0.11289,-0.13988 0.21805,-0.2699 0.32695,-0.40484c-0.03165,-0.09161 -0.06457,-0.18709 -0.10668,-0.30936"/><path stroke="null" fill-rule="nonzero" fill="#ffffff" d="m18.97731,14.09391c0.09801,-0.00775 0.18461,-0.01445 0.27039,-0.02149c0.09417,-0.35058 -0.10517,-0.38934 -0.34514,-0.57785c-0.09734,0.29104 -0.35381,0.43268 -0.49961,0.67862c0.23571,-0.01621 0.37129,-0.09231 0.50634,-0.27589c0.02411,0.06941 0.04585,0.13283 0.06802,0.19661"/><path stroke="null" fill-rule="nonzero" fill="#ffffff" d="m20.32883,15.68545c0.0848,-0.23079 0.52605,-0.79982 0.28815,-0.97846c-0.10933,0.06448 -0.34007,0.03735 -0.31832,0.21105c-0.00152,0.25263 -0.00053,0.50561 -0.00053,0.7586c0.01019,0.00282 0.02037,0.00599 0.0307,0.00881"/><path stroke="null" fill-rule="nonzero" fill="#ffffff" d="m24.72575,9.2164c0.0092,-0.01268 0.01829,-0.02537 0.02752,-0.03805c-0.24864,-0.35446 -0.35504,-0.42704 -0.79383,-0.42916c0.00744,0.4288 0.45239,0.42986 0.7663,0.46721"/><path stroke="null" fill-rule="nonzero" fill="#ffffff" d="m23.60525,8.15444c-0.01709,0.30266 0.23666,0.47743 0.65807,0.45488c-0.10975,-0.30619 -0.32727,-0.47214 -0.65807,-0.45488"/><path stroke="null" fill-rule="nonzero" fill="#ffffff" d="m22.61857,11.30475c-0.34352,-0.15996 -0.62268,0.04334 -0.96729,-0.03206c0.09777,0.47813 0.6673,0.13002 0.96729,0.03206"/><path stroke="null" fill-rule="nonzero" fill="#ffffff" d="m23.27209,7.67102c0.0885,0.30513 0.20801,0.37031 0.52231,0.32557c-0.09995,-0.25052 -0.26186,-0.35129 -0.52231,-0.32557"/><path stroke="null" fill-rule="nonzero" fill="#ffffff" d="m23.44087,7.51317c-0.12159,-0.26038 -0.18478,-0.29386 -0.44167,-0.26602c0.10573,0.25721 0.25911,0.35305 0.44167,0.26602"/><path stroke="null" fill-rule="nonzero" fill="#ffffff" d="m21.87126,15.97473c0.08152,0.13953 0.1629,0.27906 0.24163,0.414c0.3161,0 0.0479,-0.26355 -0.02478,-0.37666c-0.04145,-0.04404 -0.12941,-0.04404 -0.19645,-0.06413c-0.00677,0.00881 -0.01364,0.01762 -0.02041,0.02678"/><path stroke="null" fill-rule="nonzero" fill="#ffffff" d="m20.96127,16.3394c0.16106,-0.09267 0.32822,-0.16454 0.47304,-0.28047c-0.03415,-0.04862 -0.05907,-0.08386 -0.0965,-0.13706c-0.13837,0.13636 -0.46493,0.1797 -0.37654,0.41753"/><path stroke="null" fill-rule="nonzero" fill="#ffffff" d="m23.05827,7.09106c0.04529,-0.1656 -0.19053,-0.38511 -0.35903,-0.31782c0.02256,0.18251 0.21435,0.34283 0.35903,0.31782"/><path stroke="null" fill-rule="nonzero" fill="#ffffff" d="m19.44443,16.26893c0,-0.0007 -0.00056,-0.0007 -0.00056,-0.00106l0,0.00211c0,-0.00035 0.00056,-0.00106 0.00056,-0.00106"/><path stroke="null" fill-rule="nonzero" fill="#ffffff" d="m7.21244,9.91827c0.08712,-0.08139 -0.04476,-0.21493 -0.12913,-0.13178c-0.08783,0.0821 0.04349,0.21634 0.12913,0.13178"/><path stroke="null" fill-rule="nonzero" fill="#ffffff" d="m7.32751,10.15963c0.08716,-0.08104 -0.04472,-0.21458 -0.12927,-0.13178c-0.08769,0.0821 0.04367,0.21669 0.12927,0.13178"/><path stroke="null" fill-rule="nonzero" fill="#ffffff" d="m6.72438,9.07159l-0.00042,0.0007l-0.20868,0.01515l0.10887,0.27342l0.14675,-0.17124c0.00871,0.00493 0.01776,0.00916 0.02742,0.01163c0.00014,0.00176 0.02132,0.36397 0.02146,0.36573l0,0c0.03732,0.31993 0.5252,0.12297 0.33013,-0.13319l-0.23458,-0.27906c0.00536,-0.00846 0.00909,-0.01762 0.01198,-0.02713l0.2244,0.02361l-0.1089,-0.27342l-0.16201,0.13213c-0.00842,-0.00493 -0.01737,-0.00881 -0.02671,-0.01163l-0.01871,-0.26426c-0.06679,0.02678 -0.20113,0.07998 -0.26792,0.10641l0.16797,0.20506c-0.00455,0.00846 -0.00867,0.01691 -0.01103,0.02607"/><path stroke="null" fill-rule="nonzero" fill="#ffffff" d="m6.12746,10.50105c0.13544,0.00388 0.13794,-0.20753 0.00275,-0.20753c-0.13329,-0.00317 -0.13685,0.20788 -0.00275,0.20753"/><path stroke="null" fill-rule="nonzero" fill="#ffffff" d="m6.10558,10.77165c0.13544,0.00388 0.13794,-0.20753 0.00275,-0.20753c-0.13315,-0.00317 -0.13685,0.20788 -0.00275,0.20753"/><path stroke="null" fill-rule="nonzero" fill="#ffffff" d="m6.53854,9.8464c0.13544,0.00352 0.13794,-0.20788 0.00275,-0.20788c-0.13315,-0.00317 -0.13685,0.20788 -0.00275,0.20788"/><path stroke="null" fill-rule="nonzero" fill="#ffffff" d="m6.21335,10.25476c0.13548,0.00352 0.13794,-0.20788 0.00275,-0.20788c-0.13311,-0.00317 -0.13685,0.20788 -0.00275,0.20788"/><path stroke="null" fill-rule="nonzero" fill="#ffffff" d="m7.47303,10.51303c-0.00701,-0.10359 0.06844,-0.3083 0.06844,-0.3083c-0.10492,0.04193 -0.31969,0.1272 -0.42514,0.16913c0,0 0.1955,0.09689 0.26158,0.17723c-0.08962,0.03242 -0.17636,0.04686 -0.30052,-0.00987l0.16519,0.32874c0.03567,-0.14552 0.11098,-0.23149 0.16727,-0.24277c0.17911,0.27448 -0.26609,0.57714 -0.45831,0.34213c-0.056,-0.0983 0.01019,-0.20436 0.12473,-0.12332c-0.01706,-0.2033 -0.19384,-0.2026 -0.24723,-0.05144c0.00441,-0.20894 -0.04832,-0.33543 -0.2675,-0.39709c-0.05685,0.20824 0.01293,0.33402 0.22179,0.42352c-0.11881,-0.01515 -0.24741,0.10183 -0.08592,0.24805c0.00152,-0.13142 0.11155,-0.14587 0.171,-0.05708c0.09473,0.24382 -0.19151,0.33719 -0.42652,0.0902c0.05234,-0.01938 0.10795,-0.01128 0.1827,0.00564l-0.22425,-0.28258c0.01156,0.09971 0.00398,0.17124 -0.01611,0.21634c-0.04807,-0.05638 -0.06361,-0.10465 -0.08399,-0.21352l-0.17086,0.1501c0.16314,0.10218 0.34613,0.26391 0.57095,0.58419c0.29749,-0.29245 1.49687,-0.79383 1.96,-0.77974c-0.0566,-0.38687 -0.03482,-0.62999 0.0135,-0.81638l-0.22718,0.00846c0.06002,0.09302 0.0818,0.13882 0.08564,0.21246c-0.04571,-0.01903 -0.10023,-0.06554 -0.16053,-0.14622l0.0314,0.35974c0.04268,-0.06413 0.0775,-0.10817 0.12871,-0.13002c-0.00081,0.34107 -0.27328,0.46968 -0.37171,0.22761c-0.01776,-0.10535 0.07186,-0.17053 0.16342,-0.07611c0.01681,-0.21704 -0.15694,-0.21352 -0.23278,-0.12121c0.09015,-0.20824 0.05452,-0.34776 -0.12998,-0.46016c-0.11701,0.19555 -0.06827,0.32345 0.07863,0.47249c-0.14291,-0.07329 -0.27162,0.04757 -0.14429,0.20718c0.02724,-0.13777 0.14841,-0.10606 0.17513,0.00388c0.02203,0.30302 -0.5098,0.38828 -0.56806,0.06624c0.0486,-0.03065 0.16261,-0.01973 0.28829,0.06166l-0.10573,-0.35234c-0.05135,0.12614 -0.12416,0.17512 -0.21174,0.21317"/><path stroke="null" fill-rule="nonzero" fill="#ffffff" d="m13.09399,21.66227c0.1605,0.09337 0.33947,0.19626 0.50317,0.28927c-0.40104,0.48729 0.31786,0.69764 0.27878,0.22233c0.26859,0.11522 1.32537,0.43973 0.90174,-0.19168c-1.38648,0.04581 -2.09273,-1.40867 -1.32618,-2.51997c0.46655,0.21246 2.10457,-0.58419 1.96842,0.22656c0.08603,0.09055 0.11038,0.09866 0.30479,0.09725c0.47399,-1.0891 -1.15821,-0.76353 -1.74413,-0.63598c-0.5222,0.15433 -1.00279,-0.60885 -1.46412,-0.19097c-0.18394,0.16243 -0.06414,0.52394 0.18517,0.53556c0.22094,0.00634 0.28375,-0.29738 0.08702,-0.39216c0.43008,-0.14517 0.22316,0.54508 0.06756,0.72195c-0.49341,-0.25474 -0.57475,0.54014 -0.0867,0.33156c0.0216,0.14235 0.02781,0.28258 -0.00606,0.41894c-0.5332,-0.11486 -0.39142,0.64972 0.00839,0.34213c0.11511,0.10923 0.16836,0.27941 0.18157,0.44219c-0.53429,0.07646 -0.10749,0.76177 0.14059,0.30302"/><path stroke="null" fill-rule="nonzero" fill="#ffffff" d="m14.64235,22.4931c-0.02231,-0.00846 -0.04543,-0.01445 -0.07461,-0.02396c-0.03732,0.10042 -0.09459,0.28329 -0.0055,0.34671l0.44907,0.19238l0.57711,-0.4281l0.15599,-2.3142l-0.17016,0.01268c-0.04585,0.00529 -0.36001,2.67289 -0.524,2.5168c0.03278,-0.17617 0.41633,-2.51645 0.41633,-2.51645c0,0 -0.11412,-0.01621 -0.16987,-0.02396c-0.00937,0.05391 -0.02164,0.12367 -0.02164,0.12367l-0.63657,-0.83611l-0.0837,0.03981l0.68161,0.89601l-0.04381,0.15855c-0.06277,-0.04052 -0.72056,-0.95344 -0.78621,-1.03836l-0.1341,-0.00987l0.88648,1.15569l-0.04709,0.15468l-0.99373,-1.30579l-0.12719,-0.00176l1.07588,1.41783l-0.05685,0.20436l-1.18122,-1.60634l-0.15638,0.00458l1.3069,1.72438l-0.04779,0.15926l-1.44234,-1.88399l-0.02453,0.14446c0,0 1.34243,1.76525 1.42518,1.88082c-0.06911,0.2174 -0.01611,0.23607 0.07831,0.41577c0.05177,0.20084 -0.08712,0.51407 -0.32558,0.44043"/><path stroke="null" fill-rule="nonzero" fill="#ffffff" d="m14.77782,21.75882l-1.38056,-1.82973c0,0 -0.02657,0.08597 -0.03827,0.12402c0.10312,0.1346 1.32287,1.75291 1.32287,1.75291l0.09597,-0.04721"/><path stroke="null" fill-rule="nonzero" fill="#ffffff" d="m13.39381,20.54569c0.31871,0.40414 0.63178,0.81638 0.94238,1.22475c0.04638,0.00564 0.13241,0.02396 0.13241,0.02396l-1.126,-1.49429c0,0 -0.01967,0.15292 0.05121,0.24558"/><path stroke="null" fill-rule="nonzero" fill="#ffffff" d="m15.80056,19.86567c-0.15278,-0.01233 -0.31497,-0.04263 -0.46409,-0.05708c-0.29062,0.25263 0.03609,0.39709 0.25305,0.37771c0.18612,0.04898 0.43448,-0.19696 0.21104,-0.32063"/><path stroke="null" fill-rule="nonzero" fill="#ffffff" d="m15.75403,26.39461c-0.04529,0.20647 0.28001,0.27307 0.31927,0.06518c0.04529,-0.20647 -0.28005,-0.27272 -0.31927,-0.06518"/><path stroke="null" fill-rule="nonzero" fill="#ffffff" d="m16.04645,25.15401c0.05618,-0.2558 -0.34722,-0.33825 -0.39579,-0.08069c-0.05618,0.2558 0.34718,0.33825 0.39579,0.08069"/><path stroke="null" fill-rule="nonzero" fill="#ffffff" d="m14.66878,24.47117c0.05632,-0.25615 -0.34718,-0.3386 -0.39579,-0.08104c-0.05618,0.2558 0.34718,0.33825 0.39579,0.08104"/><path stroke="null" fill-rule="nonzero" fill="#ffffff" d="m17.07814,26.72652c-0.22975,0.02325 -0.3487,0.17864 -0.46997,0.33755c-0.10767,-0.06695 -0.24921,-0.13389 -0.38165,-0.13389c-0.07102,0 -0.1396,0.01938 -0.19863,0.068c0.42113,0.16631 0.27011,0.80123 -0.13879,0.8037c-0.409,-0.00247 -0.55991,-0.63739 -0.13875,-0.8037c-0.05921,-0.04862 -0.12762,-0.068 -0.19881,-0.068c-0.13245,0 -0.27395,0.06695 -0.38162,0.13389c-0.12127,-0.15891 -0.24022,-0.31429 -0.47001,-0.33755c0.12582,1.1652 0.6575,1.74763 1.18905,1.74763c0.53168,0 1.06337,-0.58243 1.18919,-1.74763l0,0zm-0.19232,0.25157c-0.16381,0.9235 -0.6045,1.34067 -0.99686,1.34067c-0.39223,0 -0.83291,-0.41718 -0.99658,-1.34067c0.05012,0.04581 0.09787,0.10676 0.15405,0.18005l0.08578,0.1124l0.1199,-0.0747c0.05163,-0.03206 0.10161,-0.05778 0.14827,-0.07611c-0.05272,0.10676 -0.07049,0.2329 -0.04599,0.36432c0.05205,0.27694 0.27148,0.47144 0.53556,0.47285c0.26225,-0.00141 0.48171,-0.1959 0.53373,-0.47285c0.02449,-0.13142 0.00677,-0.25756 -0.04585,-0.36432c0.04656,0.01832 0.09653,0.04404 0.14813,0.07611l0.12007,0.0747l0.08561,-0.1124c0.05618,-0.07329 0.10397,-0.13424 0.15419,-0.18005"/><path stroke="null" fill-rule="nonzero" fill="#ffffff" d="m13.2768,23.67346c0.17555,-0.21141 -0.44164,-0.488 -0.53197,-0.60674c-0.07295,-0.04404 -0.1649,-0.03277 -0.21365,0.0303c-0.17608,0.20154 0.43089,0.48306 0.5142,0.59511c0.07503,0.05778 0.17868,0.04968 0.23141,-0.01867"/><path stroke="null" fill-rule="nonzero" fill="#ffffff" d="m13.19806,24.12375c0.682,0.00317 0.59336,-1.07888 -0.07877,-0.96401c0.31155,0.16877 0.58194,0.61414 0.0972,0.7438c-0.18242,0.0377 -0.36949,-0.15926 -0.50374,-0.25615c0.00483,0.26355 0.22041,0.47637 0.4853,0.47637"/><path stroke="null" fill-rule="nonzero" fill="#ffffff" d="m12.22858,24.30345c0.15007,0.2854 1.02742,1.06056 1.26574,0.69412c-0.4287,-0.21669 -1.15423,-0.7512 -0.87601,-1.43017c-0.62942,-0.38617 -0.07324,-1.00313 0.41728,-0.47919c0.52273,-0.3231 1.1033,-0.09196 1.61803,0.26567c0.18503,-0.39991 -0.71354,-0.6758 -0.92349,-0.79454c-0.26419,-0.08879 -1.09805,0.10007 -1.37764,0.1124c-0.18958,0.02431 -0.32628,0.19414 -0.30923,0.38441c0.04226,0.2033 0.0362,1.08487 0.18531,1.2473"/><path stroke="null" fill-rule="nonzero" fill="#ffffff" d="m19.95821,9.03072l0.38782,0.12402c-0.61331,-1.2917 -1.73656,-2.2617 -3.08864,-2.60982c-0.03302,0.0902 -0.06319,0.18674 -0.09058,0.28927c1.18767,0.29844 2.18979,1.10671 2.7914,2.19652"/><path stroke="null" fill-rule="nonzero" fill="#ffffff" d="m11.95161,9.15474l0.38779,-0.12402c0.60164,-1.0898 1.60372,-1.89808 2.79143,-2.19652c-0.02742,-0.10253 -0.05741,-0.19907 -0.09061,-0.28927c-1.35205,0.34812 -2.4753,1.31812 -3.08861,2.60982"/><path stroke="null" fill-rule="nonzero" fill="#ffffff" d="m19.07053,7.06463c0.27726,0.00388 0.27726,-0.43127 0,-0.42739c-0.27726,-0.00388 -0.27726,0.43162 0,0.42739"/><path stroke="null" fill-rule="nonzero" fill="#ffffff" d="m18.09016,6.50652c0.27726,0.00423 0.27726,-0.43127 0,-0.42704c-0.27712,-0.00423 -0.27712,0.43127 0,0.42704"/><path stroke="null" fill-rule="nonzero" fill="#ffffff" d="m17.55889,6.31379c0.27712,0.00388 0.27712,-0.43127 -0.00014,-0.42739c-0.27712,-0.00388 -0.27712,0.43127 0.00014,0.42739"/><path stroke="null" fill-rule="nonzero" fill="#ffffff" d="m18.59541,6.7581c0.27726,0.00388 0.27726,-0.43127 0,-0.42739c-0.27726,-0.00388 -0.27726,0.43127 0,0.42739"/><path stroke="null" fill-rule="nonzero" fill="#ffffff" d="m19.50899,7.42015c0.27726,0.00423 0.27726,-0.43127 0,-0.42704c-0.27712,-0.00423 -0.27712,0.43127 0,0.42704"/><path stroke="null" fill-rule="nonzero" fill="#ffffff" d="m20.61751,9.02614c-0.00398,0.2773 0.43145,0.2773 0.42733,0c0.00412,-0.2773 -0.43131,-0.2773 -0.42733,0"/><path stroke="null" fill-rule="nonzero" fill="#ffffff" d="m20.35924,8.52369c-0.00412,0.2773 0.43145,0.2773 0.42733,0c0.00398,-0.27694 -0.43145,-0.27694 -0.42733,0"/><path stroke="null" fill-rule="nonzero" fill="#ffffff" d="m19.9077,7.82077c0.27726,0.00388 0.27726,-0.43162 0,-0.42739c-0.27716,-0.00388 -0.2773,0.43127 0,0.42739"/><path stroke="null" fill-rule="nonzero" fill="#ffffff" d="m20.05005,8.04803c-0.00416,0.2773 0.43145,0.2773 0.42733,0c0.00412,-0.27694 -0.43149,-0.27694 -0.42733,0"/><path stroke="null" fill-rule="nonzero" fill="#ffffff" d="m13.22711,7.06463c0.27726,0.00388 0.27726,-0.43127 0,-0.42739c-0.27726,-0.00388 -0.27726,0.43162 0,0.42739"/><path stroke="null" fill-rule="nonzero" fill="#ffffff" d="m12.78864,7.42015c0.27726,0.00423 0.27726,-0.43127 0,-0.42704c-0.2773,-0.00423 -0.2773,0.43127 0,0.42704"/><path stroke="null" fill-rule="nonzero" fill="#ffffff" d="m11.46644,9.23966c0.27712,0.00423 0.27712,-0.43127 0,-0.42704c-0.27726,-0.00423 -0.27726,0.43127 0,0.42704"/><path stroke="null" fill-rule="nonzero" fill="#ffffff" d="m13.70219,6.7581c0.2773,0.00388 0.2773,-0.43127 0,-0.42739c-0.27726,-0.00388 -0.27726,0.43127 0,0.42739"/><path stroke="null" fill-rule="nonzero" fill="#ffffff" d="m12.0339,8.2619c0.2773,0.00388 0.2773,-0.43162 0,-0.42739c-0.27726,-0.00423 -0.27726,0.43127 0,0.42739"/><path stroke="null" fill-rule="nonzero" fill="#ffffff" d="m11.72471,8.73757c0.27726,0.00388 0.27726,-0.43162 0,-0.42739c-0.27726,-0.00423 -0.27726,0.43127 0,0.42739"/><path stroke="null" fill-rule="nonzero" fill="#ffffff" d="m14.73874,6.31379c0.27726,0.00388 0.27726,-0.43127 0,-0.42739c-0.2773,-0.00388 -0.2773,0.43127 0,0.42739"/><path stroke="null" fill-rule="nonzero" fill="#ffffff" d="m12.38979,7.82077c0.27726,0.00388 0.27726,-0.43162 0,-0.42739c-0.27712,-0.00388 -0.27712,0.43127 0,0.42739"/><path stroke="null" fill-rule="nonzero" fill="#ffffff" d="m14.20744,6.50652c0.2773,0.00423 0.2773,-0.43127 -0.00014,-0.42704c-0.27712,-0.00423 -0.27712,0.43127 0.00014,0.42704"/><path stroke="null" fill-rule="nonzero" fill="#ffffff" d="m16.51674,8.49128l0.28484,0c0.00053,-0.9013 0.13037,-1.68174 0.36608,-2.19757c0.07902,-0.16631 -0.1838,-0.28822 -0.25911,-0.11839c-0.34003,0.74415 -0.39152,1.76842 -0.3918,2.31596"/><path stroke="null" fill-rule="nonzero" fill="#ffffff" d="m15.49605,8.49128l0.28498,0c-0.00028,-0.54754 -0.05191,-1.57181 -0.3918,-2.31596c-0.07532,-0.16948 -0.33827,-0.04827 -0.25925,0.11839c0.23571,0.51583 0.36565,1.29628 0.36608,2.19757"/><path stroke="null" fill-rule="nonzero" fill="#ffffff" d="m16.14887,8.48775c0.30028,0.00423 0.30028,-0.46756 -0.00014,-0.46298c-0.30024,-0.00458 -0.30024,0.46721 0.00014,0.46298"/><path stroke="null" fill-rule="nonzero" fill="#ffffff" d="m16.14887,7.9078c0.30028,0.00423 0.30028,-0.46756 -0.00014,-0.46298c-0.30024,-0.00458 -0.30024,0.46721 0.00014,0.46298"/><path stroke="null" fill-rule="nonzero" fill="#ffffff" d="m16.14887,7.32748c0.30028,0.00458 0.30028,-0.46721 -0.00014,-0.46298c-0.30024,-0.00423 -0.30024,0.46756 0.00014,0.46298"/><path stroke="null" fill-rule="nonzero" fill="#ffffff" d="m15.98506,6.76162c0.09787,-0.05179 0.22975,-0.05179 0.32752,0c0.33192,-0.51125 -0.65958,-0.5109 -0.32752,0"/><path stroke="null" fill-rule="nonzero" fill="#ffffff" d="m16.33295,6.27468c0.25784,-0.47989 -0.62628,-0.47954 -0.36826,0c0.10739,-0.06624 0.26087,-0.06624 0.36826,0"/><path stroke="null" fill-rule="nonzero" fill="#ffffff" d="m16.00902,4.32551c-0.03775,0.29597 -0.19275,0.52499 -0.38521,0.56023l0,0.0754l0.3757,0c-0.01776,0.01339 -0.03331,0.02889 -0.04694,0.04651c-0.66991,0.14975 -0.7386,1.17119 -0.09844,1.41185c-0.25002,-0.24136 -0.05798,-0.70504 0.29474,-0.69306c0.35244,-0.01198 0.54462,0.45171 0.29464,0.69306c0.64045,-0.24065 0.57119,-1.26245 -0.09844,-1.41185c-0.01364,-0.01762 -0.02918,-0.03312 -0.0468,-0.04651l0.37556,0l0,-0.0754c-0.19247,-0.03523 -0.3475,-0.26426 -0.38521,-0.56023c0.29612,0.0377 0.52509,0.19273 0.56058,0.38511l0.07532,0l0,-1.04999l-0.07532,0c-0.03549,0.19273 -0.26447,0.34776 -0.56058,0.38546c0.03771,-0.29597 0.19275,-0.52499 0.38521,-0.56058l0,-0.0754l-1.05001,0l0,0.0754c0.19247,0.03559 0.34747,0.26461 0.38521,0.56058c-0.29615,-0.0377 -0.52495,-0.19273 -0.56062,-0.38546l-0.07528,0l0,1.04999l0.07528,0c0.03567,-0.19238 0.26447,-0.34741 0.56062,-0.38511"/><path stroke="null" fill-rule="nonzero" fill="#ffffff" d="m25.27932,20.75569l0.00137,0.0007c-0.02411,-0.04087 -0.04709,-0.08174 -0.06721,-0.1205c0.00582,0.04827 0.02784,0.09196 0.06584,0.1198"/><path stroke="null" fill-rule="nonzero" fill="#ffffff" d="m25.22561,21.56186c-0.03235,0.03629 -0.24297,0.63739 -0.31346,0.61378c-0.02893,-0.04862 -0.09431,-0.07963 -0.14964,-0.06342c-0.03235,-0.0155 -0.04462,-0.06025 -0.02742,-0.09866c0.04007,-0.04087 0.23599,-0.65501 0.32808,-0.61237c0.02397,0.05708 0.09512,0.09443 0.15528,0.07822c0.01639,0.02114 0.02009,0.05356 0.00715,0.08245zm-0.57257,2.09469c0.01942,-0.15151 -0.17675,-0.23501 -0.25537,-0.10606c0.02051,-0.05743 -0.05466,-0.63352 0.05287,-0.63246c0.04501,0.03242 0.10393,0.03805 0.15172,0.00388c0.03264,0.00529 0.05865,0.0377 0.05865,0.07716l0.00095,0.62118c0,0.01374 -0.0037,0.02537 -0.00881,0.03629l0,0zm0.30923,1.08275c-0.18351,1.05739 -1.54233,0.01022 -0.56929,-0.4362c0.0449,0.10183 0.19948,0.10641 0.24424,0.00247c0.1875,0.05532 0.32505,0.22867 0.32505,0.43374l0,0l0,0zm0.13999,-3.5393c-0.29696,-0.18569 -0.46134,0.63598 -0.57172,0.77657c-0.05329,0.1205 -0.00578,0.25016 0.10309,0.28857l-0.21876,0.45488c-0.11771,-0.01938 -0.21985,0.06976 -0.21999,0.20683c0.04434,0.17652 -0.13174,0.94605 0.18091,0.95485l0,0.21246c-0.75428,0.1353 -0.6421,1.32305 0.1341,1.30438c0.77053,0.01903 0.89015,-1.15816 0.14316,-1.30191l0,-0.20542c0.11771,0.01938 0.21985,-0.06976 0.21999,-0.20683c-0.04116,-0.17159 0.11909,-0.91257 -0.1568,-0.95133l0.1666,-0.346c0.28332,0.15362 0.44865,-0.64761 0.55576,-0.78432c0.04983,-0.1124 0.01117,-0.23995 -0.08712,-0.28082l0.12624,-0.26214c-0.03538,-0.04651 -0.10837,-0.15503 -0.17773,-0.2706l-0.19772,0.41083"/><path stroke="null" fill-rule="nonzero" fill="#ffffff" d="m9.98621,19.86954l0.06622,0.25651l1.17858,-0.14622l-0.05713,-0.23219c-0.05988,-0.01233 -0.79464,0.12297 -0.79464,0.12297c0,0 0.698,-0.81427 0.68038,-0.91116l-1.18933,0.13389l0.02534,0.20506c0.05766,-0.0081 0.69948,-0.09725 0.69948,-0.09725c0,0 -0.58152,0.65607 -0.6089,0.6684"/><path stroke="null" fill-rule="nonzero" fill="#ffffff" d="m10.47275,20.7719c0.2496,-0.45312 1.08194,-0.18287 0.73789,0.33297c-0.25869,0.43902 -1.07602,0.19132 -0.73789,-0.33297zm-0.06665,0.6092c0.56954,0.54508 1.4662,-0.32839 0.87626,-0.88897c-0.56996,-0.55107 -1.48062,0.32768 -0.87626,0.88897"/><path stroke="null" fill-rule="nonzero" fill="#ffffff" d="m11.19785,22.66751l0.19906,0.27483c0.21118,-0.25968 0.64665,-0.57467 0.95944,-0.69412l-0.19909,-0.27483c-0.07665,0.12614 -0.24681,0.24981 -0.37897,0.34177l-0.30549,-0.42176c0.12913,-0.09689 0.29915,-0.21986 0.44329,-0.25334l-0.19909,-0.27483c-0.21104,0.25968 -0.64647,0.57467 -0.95926,0.69412l0.19891,0.27483c0.07655,-0.12579 0.24505,-0.2484 0.37679,-0.34037l0.30539,0.42211c-0.12846,0.09654 -0.29753,0.21775 -0.44097,0.25157"/><path stroke="null" fill-rule="nonzero" fill="#ffffff" d="m11.08521,18.55741l0.01639,-0.25193c-0.33658,0.06307 -0.87957,0.06307 -1.21506,-0.00282l-0.01625,0.25193c0.33661,-0.06307 0.87943,-0.06307 1.21492,0.00282"/><path stroke="null" fill-rule="nonzero" fill="#ffffff" d="m19.64034,23.64738c0.72084,-0.31535 0.56002,-1.03202 -0.25386,-0.70398c-0.3413,-0.09689 0.08987,-0.44395 0.31606,-0.3675l0.00553,-0.00458l-0.17128,-0.2026c-0.25647,0.11169 -0.66452,0.45629 -0.44714,0.74838c0.15074,0.19238 0.45471,-0.01304 0.65366,-0.01022c0.32984,0.05919 -0.02506,0.40273 -0.22908,0.383l-0.00331,0.00458"/><path stroke="null" fill-rule="nonzero" fill="#ffffff" d="m21.61617,21.14468l0.20473,-0.69482c-0.1034,0.0074 -1.03983,-0.26496 -1.12286,-0.32662l-0.19423,0.65959l0.19521,0.16595l0.0037,-0.00247c-0.01487,-0.15186 0.00564,-0.3224 0.06139,-0.5116l0.35508,0.10324c-0.03538,0.10324 -0.09791,0.3379 -0.14675,0.39991l0.17745,0.02643l0.11331,-0.38441l0.34003,0.09901c-0.0406,0.1272 -0.09678,0.22691 -0.16864,0.29914l0.18157,0.16666"/><path stroke="null" fill-rule="nonzero" fill="#ffffff" d="m21.14341,22.06853l0.11028,-0.21493l-0.92363,-0.61872l-0.10175,0.19308c0.03471,0.0451 0.63742,0.40062 0.63742,0.40062c0,0 -0.99288,0.13002 -1.03969,0.20683l0.92349,0.63316l0.10781,-0.15503c-0.04571,-0.02995 -0.55442,-0.3601 -0.55442,-0.3601c0,0 0.81349,-0.09302 0.84049,-0.08491"/><path stroke="null" fill-rule="nonzero" fill="#ffffff" d="m18.59238,24.33269l0.64291,-0.37172c-0.08191,-0.06272 -0.58275,-0.88051 -0.60062,-0.98058l-0.61003,0.3527l0.02724,0.25016l0.00416,0.0007c0.09664,-0.1205 0.23236,-0.23149 0.40749,-0.33261l0.18986,0.31006c-0.09914,0.05179 -0.31155,0.18181 -0.39142,0.19449l0.11278,0.13671l0.35557,-0.20542l0.182,0.29703c-0.12004,0.06589 -0.23222,0.10148 -0.33644,0.10676l0.01649,0.24171"/><path stroke="null" fill-rule="nonzero" fill="#ffffff" d="m11.42281,16.21185c-0.1918,-0.15186 -0.43903,0.11909 -0.63287,0.16349c-0.33471,0.01973 -0.07038,-0.39744 0.13241,-0.42634l0.00222,-0.00529l-0.16163,-0.11839c-0.30317,0.15433 -0.53264,0.80969 -0.04363,0.82378c0.10365,0.00529 0.36907,-0.17829 0.45581,-0.19872c0.23021,-0.04299 0.15708,0.26567 0.01914,0.33896c0.0683,-0.00282 0.13946,-0.01268 0.20526,0.00493c0.12776,-0.18005 0.20956,-0.44149 0.0233,-0.58243"/><path stroke="null" fill-rule="nonzero" fill="#ffffff" d="m11.66042,15.85951c-0.53623,-0.03488 -0.64831,-0.96155 0,-0.82132l0,-0.22444c-0.84021,-0.05039 -0.8278,1.28253 0,1.25435l0,-0.20859"/><path stroke="null" fill-rule="nonzero" fill="#ffffff" d="m12.99182,14.2197c0.00222,-0.00106 0.36801,0 0.3702,-0.0007c-0.13974,-0.22127 -0.25234,-0.40308 -0.25234,-0.40308c0.12818,-0.07505 0.40157,-0.18463 0.5233,-0.17652l-0.29118,-0.22162l-0.89473,0.53451l0.10242,0.34354l0.00511,0.00176c0.07243,-0.142 0.18129,-0.25686 0.3008,-0.3231c0.02671,0.04933 0.07599,0.13777 0.13643,0.24523"/><path stroke="null" fill-rule="nonzero" fill="#ffffff" d="m14.92211,13.88497c0.44784,-0.17441 0.0596,-0.86677 -0.33732,-0.70363c-0.44329,0.16948 -0.06139,0.86782 0.33732,0.70363zm0.682,0.17899l0.00194,0.00529c-0.17801,0.14411 -0.4053,0.08456 -0.59696,-0.01762c-0.5566,0.31218 -1.15779,-0.41964 -0.71104,-0.88967c0.47011,-0.56058 1.40312,0.0754 0.95239,0.69377c0.1469,0.1124 0.26489,0.18181 0.35367,0.20824"/><path stroke="null" fill-rule="nonzero" fill="#ffffff" d="m15.77208,13.56786c-0.00398,-0.19203 0.02312,-0.53028 -0.05879,-0.69588l0.39744,0c-0.06372,0.17899 -0.17897,0.99925 0.16068,0.95732c0.13368,0.00247 0.26693,-0.0902 0.2639,-0.23043c-0.0055,-0.19555 0.02587,-0.55741 -0.05879,-0.72689l0.39758,0c-0.09304,0.30865 -0.09304,0.8495 0,1.15816l-0.33714,0c0.00744,-0.02361 0.01114,-0.06166 0.01114,-0.11451c-0.34415,0.24453 -0.80782,0.12262 -0.77603,-0.34776"/><path stroke="null" fill-rule="nonzero" fill="#ffffff" d="m17.45662,14.13972c0.0702,-0.28505 0.17016,-0.77093 0.32861,-1.01229l-0.3088,-0.10324c0.00331,0.30654 -0.16078,0.78361 -0.26433,1.07571c0.11867,0.0155 0.11867,0.0155 0.24452,0.03981"/><path stroke="null" fill-rule="nonzero" fill="#ffffff" d="m16.73948,16.57089l0,-0.00106l0.00014,0c-0.00056,0.00141 0.00042,0.02995 0.00014,0.03136c0.00536,-0.05919 0.09995,-0.01621 0.05258,0.02431l0.01501,0.01409c0.09569,0.01128 0.10957,-0.13178 0.01251,-0.13741l0,-0.00282l0.11539,-0.05039l0,-0.03453l-0.11539,-0.05074l0,-0.00352c0.0972,-0.00599 0.08303,-0.14869 -0.01251,-0.13777l-0.01501,0.01445c0.04737,0.04017 -0.04751,0.08315 -0.05258,0.02431c0.00014,0.00388 -0.00095,0.03242 0.00081,0.03559l-0.00109,0c0,-0.00317 0,-1.24166 0,-1.24589l0.09872,0l0,-0.09302l1.07355,0c0.05988,0.01022 0.00923,0.09196 -0.02893,0.04898l-0.01526,0.01445c-0.0117,0.09372 0.14841,0.10042 0.14704,0.00599l0.00014,0l0.05657,0.11451l0.0369,0l0.05495,-0.11416c-0.00085,0.09408 0.15846,0.08738 0.14742,-0.00634l-0.01554,-0.01445c-0.03785,0.04299 -0.08881,-0.03841 -0.02904,-0.04898l1.07518,0l0,0.09302l0.099,0c-0.01114,-0.02149 0.03909,1.52882 -0.05191,1.18599l-0.0154,-0.01445c-0.09488,-0.01128 -0.10862,0.13248 -0.01212,0.13777l0,0.00352l-0.11592,0.05074l0,0.03453l0.11592,0.05003l0,0.00317c-0.0965,0.00529 -0.08275,0.14869 0.01212,0.13741l0.0154,-0.01409c0.09086,-0.35234 0.04088,1.23215 0.05191,1.18811l-0.099,0l0,0.09267l-1.07327,0c-0.06139,-0.00846 -0.01265,-0.09337 0.02756,-0.04933l0.01512,-0.01445c0.0117,-0.09161 -0.14316,-0.10183 -0.14675,-0.00987l-0.00247,0l-0.05438,-0.11099l-0.03676,0l-0.05371,0.11099l-0.00233,0c-0.0037,-0.09126 -0.15652,-0.0821 -0.14661,0.00987l0.01526,0.01445c0.04049,-0.04404 0.08938,0.04122 0.02742,0.04933l-1.07204,0l0,-0.09267l-0.09872,0l0,-1.24272l0,0l0,0zm1.49126,-1.61303l0.00025,0c-0.00014,0 -0.00025,0.00035 -0.00025,0.00035l0,-0.00035zm1.20928,1.33891c0,-0.00035 0.00014,-0.0007 0.00014,-0.0007l0,0.0007l-0.00014,0zm-1.4962,1.60951l-0.00152,0c0.00056,0 0.00095,0 0.00152,0zm0.29171,0l-0.00152,0l0,0c0.00056,0 0.00099,0 0.00152,0zm1.10563,0.09302l0.19786,0c0,-0.17688 0,-2.95793 0,-3.13446c-0.88592,0 -2.01414,0 -2.89797,0l0,2.94877l0,0.18569l0.19715,0l2.50296,0"/><path stroke="null" fill-rule="nonzero" fill="#ffffff" d="m18.21464,14.74399l1.44911,0l0,3.37652l-3.14785,0l0,-1.69936l0.00056,-0.00035l-0.00056,0.00035l0,-1.67716c0.33097,0 1.38595,0 1.69874,0l0,0zm1.75171,3.37581c0.00152,-0.06483 -0.07119,-0.1131 -0.1334,-0.09161l0,0.01445c-0.11454,0.51724 -0.05879,-1.61057 -0.06911,-1.5327l0.10517,0.04334c0,-0.06166 0,-0.18533 0,-0.24735l-0.10506,0.04299l0.00042,-1.56793c0.01473,-0.07893 0.13741,-0.01163 0.06996,0.03911l0,0.01445c0.14467,0.04581 0.18665,-0.18533 0.03221,-0.1878l0.0965,-0.16701l-0.02287,-0.0222c-0.00176,0.00035 -0.17248,0.09513 -0.17442,0.09372c-0.00219,-0.1434 -0.24519,-0.10817 -0.1992,0.03101l0.01473,0c0.05135,-0.06236 0.12638,0.04898 0.04282,0.06554l-1.44707,0l0.0449,-0.09725c-0.06584,0 -0.19715,0 -0.26295,0l0.04501,0.0976l-1.44569,0c-0.08698,-0.01268 -0.01375,-0.12966 0.03979,-0.06589l0.01459,0c0.04737,-0.13882 -0.19673,-0.17476 -0.19849,-0.03101c-0.00166,0.00211 -0.17333,-0.09372 -0.17484,-0.09372l-0.02316,0.0222l0.09667,0.16701c-0.15475,0.00247 -0.11222,0.2336 0.03246,0.1878l0,-0.01445c0.11306,-0.51583 0.05907,1.60105 0.06901,1.52812l-0.10273,-0.04228c0,0.06201 0,0.18569 0,0.24735l0.10273,-0.04193c-0.00994,-0.03735 0.04405,2.03514 -0.06901,1.53129l0,-0.01445c-0.14467,-0.0451 -0.18736,0.18569 -0.03232,0.1878l-0.09681,0.16701l0.02316,0.0222c0.0019,-0.00035 0.17276,-0.09549 0.17484,-0.09372c0.00137,0.1434 0.24628,0.10782 0.19849,-0.03101l-0.01459,0c-0.02256,0.03383 -0.08219,0.01621 -0.08106,-0.02431c0,-0.02114 0.01748,-0.03805 0.03909,-0.04122l1.44883,0l-0.04596,0.09901c0.0658,0 0.19712,0 0.26295,0l-0.04518,-0.09901l1.44555,0c0.02175,0.00317 0.03884,0.02008 0.03884,0.04122c0.00137,0.04052 -0.05854,0.05814 -0.08081,0.02431l-0.01544,0c-0.04585,0.13953 0.19768,0.17406 0.19948,0.03101c0.00152,-0.00176 0.17238,0.09372 0.17375,0.09372l0.02382,-0.0222l-0.09653,-0.16701c0.05565,-0.00035 0.10094,-0.04299 0.10094,-0.09619"/><path stroke="null" fill-rule="nonzero" fill="#ffffff" d="m19.43741,16.6012l0,0.00211c0.00053,-0.00106 0.00042,-0.00141 0,-0.00211"/><path stroke="null" fill-rule="nonzero" fill="#ffffff" d="m19.43741,16.25907l0,0.00211c0.00042,-0.00106 0.00042,-0.00141 0,-0.00211"/><path stroke="null" fill-rule="nonzero" fill="#ffffff" d="m16.74374,16.60331l0,-0.00211c-0.00109,0.00106 -0.00137,0.0007 0,0.00211"/><path stroke="null" fill-rule="nonzero" fill="#ffffff" d="m16.74374,16.26118l0,-0.00211c-0.00137,0.00106 -0.00109,0.0007 0,0.00211"/><path stroke="null" fill-rule="nonzero" fill="#ffffff" d="m6.28014,10.66489l0.06978,-0.05778c0.02728,-0.28892 0.16357,-0.54684 0.38451,-0.70539c-0.01487,-0.02079 -0.02985,-0.03981 -0.04487,-0.05743c-0.25097,0.18251 -0.39801,0.48553 -0.40942,0.82061"/><path stroke="null" fill-rule="nonzero" fill="#ffffff" d="m6.95967,10.25793l0.06717,-0.0222c-0.04472,-0.12367 -0.14027,-0.35058 -0.281,-0.49187c-0.03151,-0.03242 -0.0837,0.0155 -0.05146,0.04686c0.09759,0.09795 0.19176,0.26391 0.26528,0.46721"/><path stroke="null" fill-rule="nonzero" fill="#ffffff" d="m6.35309,10.02962c0.13548,0.00388 0.13794,-0.20753 0.00275,-0.20753c-0.13311,-0.00317 -0.13685,0.20788 -0.00275,0.20753"/><path stroke="null" fill-rule="nonzero" fill="#ffffff" d="m8.32839,9.58319c-0.09223,0.09901 -0.24491,-0.04721 -0.15021,-0.14376c0.091,-0.09725 0.24438,0.04792 0.15021,0.14376"/><path stroke="null" fill-rule="nonzero" fill="#ffffff" d="m8.53696,9.7569c-0.09223,0.09936 -0.24491,-0.04686 -0.15021,-0.1434c0.091,-0.09725 0.24424,0.04792 0.15021,0.1434"/><path stroke="null" fill-rule="nonzero" fill="#ffffff" d="m7.57284,9.41759c-0.09223,0.09936 -0.24491,-0.04686 -0.15017,-0.1434c0.09114,-0.09725 0.24434,0.04792 0.15017,0.1434"/><path stroke="null" fill-rule="nonzero" fill="#ffffff" d="m8.09215,9.47185c-0.09213,0.09901 -0.2448,-0.04721 -0.15007,-0.1434c0.091,-0.0976 0.24424,0.04792 0.15007,0.1434"/><path stroke="null" fill-rule="nonzero" fill="#ffffff" d="m8.33843,9.80658l-0.09019,0.00951c-0.22549,-0.18322 -0.50497,-0.26637 -0.773,-0.21951c-0.00426,-0.02537 -0.00744,-0.04968 -0.00937,-0.07258c0.30606,-0.05109 0.62529,0.05602 0.87256,0.28258"/><path stroke="null" fill-rule="nonzero" fill="#ffffff" d="m7.55454,10.00671l-0.06291,0.03206c-0.05688,-0.11839 -0.15201,-0.3453 -0.15433,-0.54472c-0.00099,-0.04545 0.06964,-0.04898 0.0695,-0.00388c0.00166,0.13812 0.05413,0.32134 0.14774,0.51654"/><path stroke="null" fill-rule="nonzero" fill="#ffffff" d="m7.83374,9.41407c-0.09213,0.09901 -0.2448,-0.04721 -0.15007,-0.1434c0.091,-0.0976 0.24424,0.04757 0.15007,0.1434"/><path stroke="null" fill-rule="nonzero" fill="#ffffff" d="m18.9919,20.55239c0.30042,-0.00564 0.99813,-0.33578 0.49151,-0.6092c-0.28375,-0.04757 -0.56598,0.09091 -0.83911,0.15468c-1.09875,0.43655 -0.45499,-0.09725 -1.13703,-0.03911c0.23018,0.58243 0.81159,0.28188 1.24745,0.14587c0.01336,0.06413 -0.06717,0.07963 -0.0566,0.14376c0.14661,-0.03065 0.28678,-0.05955 0.42444,-0.08809c0.05988,-0.28575 0.58166,-0.28857 0.34281,-0.00247c-0.60136,0.26214 -1.31103,0.21352 -1.94062,0.39216c-0.42084,1.10213 -1.15271,0.35234 -1.14556,0.66805c-0.16462,0.0155 -0.16216,0.17371 0.00677,0.16032c0.00356,0.32063 0.81487,-0.05109 0.96507,-0.14939c0.03634,-0.07752 0.0695,-0.14869 0.10379,-0.22162c0.24671,0.12015 0.42017,-0.23466 0.63396,-0.29773c0.21298,-0.04263 0.49066,-0.25087 0.67199,-0.05814c0.20195,0.22339 0.50412,-0.11733 0.68242,0.10817c-0.06732,0.17406 0.02118,0.09725 0.05107,0.20612c-0.00303,0.09795 0.16011,0.09654 0.16286,-0.00176c-0.00067,-0.04299 0.00441,-0.06976 0.0468,-0.08738c0.09019,-0.13706 -0.10157,-0.28857 -0.16864,-0.40273c-0.14785,-0.1427 -0.39346,0.12896 -0.54339,-0.02149"/><path stroke="null" fill-rule="nonzero" fill="#ffffff" d="m16.27525,20.06756c0.04902,0.01621 0.03041,0.07399 0.05343,0.10359c0.25883,0.01762 0.5179,-0.05109 0.77906,-0.08351c0.19507,0 0.18792,-0.17159 0.33097,-0.1959c0.34486,0.01797 0.55963,-0.28646 0.8844,-0.33543c0.26045,-0.07364 0.61151,-0.17018 0.84158,0.01268c0.05576,0.06166 0.136,0.07364 0.21914,0.05814c0.11,-0.01938 0.24093,-0.04299 0.29876,0.08491c-0.01871,0.01938 -0.0369,0.03841 -0.06252,0.06518c0.01117,0.02361 0.02425,0.05144 0.03718,0.07928c0.0541,-0.00352 0.06182,0.03981 0.08328,0.07505c0.02922,0.04792 0.09777,0.04898 0.1089,-0.0007c0.01392,-0.06096 0.07669,-0.0303 0.09625,-0.08351c0.01047,-0.15926 -0.02453,-0.35622 -0.18351,-0.4362c-0.07835,-0.07364 -0.38768,0.07681 -0.39649,-0.07611c0.23032,0.05215 0.6728,-0.2484 0.36868,-0.44219c-0.51434,-0.12015 -1.07962,0.12825 -1.60168,0.18709c-0.20512,0.04581 -0.10228,-0.28857 -0.5559,-0.19872c0.29199,0.6092 0.92169,0.17793 1.41084,0.17265c0.00303,0.05497 -0.09266,0.05144 -0.06954,0.1198c0.1421,-0.0444 0.38398,0.03171 0.4656,-0.11028c0.0442,-0.17335 0.40918,-0.13213 0.30179,0.06765c-0.27328,0.17476 -0.68091,0.09478 -1.00212,0.13072c-0.39304,0.03312 -0.82216,0.04193 -1.19,0.17934c-0.07285,0.22797 -0.17403,0.46298 -0.43684,0.51759c-0.18404,-0.17899 -0.45129,0.03206 -0.64841,-0.14869c-0.06471,0.01304 -0.07697,0.05144 -0.1027,0.10042c-0.09678,0.03664 -0.1297,0.09161 -0.03017,0.15715"/><path stroke="null" fill-rule="nonzero" fill="#ffffff" d="m19.17185,21.66862c-0.51434,-0.06624 -0.43684,0.28787 -0.68989,0.20436c0.04571,-0.05602 0.17171,-0.08773 0.13068,-0.17265c-0.37682,0.16454 -0.77331,0.28223 -1.14901,0.45171c-0.19095,0.2026 -0.12818,0.60709 -0.55935,0.64409c-0.01558,0.21035 -0.31074,0.35234 -0.49288,0.25827c-0.07348,0.06871 -0.04183,0.08668 -0.03056,0.15045c-0.06168,0.05638 -0.14757,0.18604 -0.01293,0.18463c0.04212,-0.00881 0.07475,-0.07153 0.11852,-0.05144c-0.00314,0.02748 -0.00617,0.05461 -0.00976,0.08527c0.03553,-0.00035 0.08314,0.01163 0.09569,-0.00388c0.05921,-0.07434 0.144,-0.01304 0.21051,-0.07153c0.22151,-0.14869 0.53732,-0.2854 0.52023,-0.59476c0.39099,-0.17159 0.61747,-0.80405 1.12698,-0.58137c0.25164,0.136 0.32036,-0.27166 0.54585,-0.28047c0.06428,0.14904 0.09445,0.13671 0.17565,0.08773c0.1421,0.10852 0.11757,-0.06307 0.17322,-0.14305c0.00673,-0.07787 -0.07271,-0.16877 -0.15296,-0.16736"/><path stroke="null" fill-rule="nonzero" fill="#ffffff" d="m16.84549,19.19339c-0.08177,0.23325 0.00261,0.54367 0.21957,0.67333c0.24864,-0.11169 0.40794,-0.43655 0.32107,-0.70892c0.05917,-0.05003 0.13255,-0.0747 0.11052,-0.15855c-0.03923,-0.09408 -0.18654,-0.02396 -0.22468,-0.13389c-0.09347,-0.1279 -0.21724,-0.02361 -0.29323,0.06236c-0.05727,0.00669 -0.11317,-0.02185 -0.16617,0.00458c-0.05424,0.09971 0.09611,0.15926 0.03292,0.26109"/><path stroke="null" fill-rule="nonzero" fill="#ffffff" d="m16.7816,22.46703c0.24191,0.5789 0.60577,-0.1575 0.51505,-0.47108c0.16712,-0.13777 0.1206,-0.21916 -0.0811,-0.23255c-0.07105,-0.15257 -0.22454,-0.16807 -0.33055,-0.03946c-0.03746,0.04686 -0.09308,0.0303 -0.14178,0.03488c-0.1034,0.04827 -0.04613,0.16137 0.04444,0.18674c-0.04955,0.17512 -0.07517,0.35023 -0.00606,0.52147"/><path stroke="null" fill-rule="nonzero" fill="#ffffff" d="m17.44629,20.31878c-0.04694,-0.02713 -0.10601,-0.02854 -0.15821,-0.02431c-0.08575,-0.22515 -0.24131,-0.14023 -0.36703,-0.00564c-0.18736,-0.07434 -0.15927,0.09372 -0.0603,0.18533c-0.09361,0.22902 -0.02876,0.56833 0.21463,0.66664c0.25664,-0.10711 0.32752,-0.41894 0.31198,-0.67016c0.08011,-0.01233 0.14453,-0.10218 0.05893,-0.15186"/><path stroke="null" fill-rule="nonzero" fill="#ffffff" d="m19.28858,21.07632c-0.46021,-0.15433 -1.18408,0.84668 -1.48999,0.55212c-0.07447,-0.16137 -0.30274,-0.14376 -0.44647,-0.09971c0.17276,0.12438 0.26722,0.39815 0.52946,0.30901c0.29629,-0.05778 0.52865,-0.29667 0.78459,-0.40661c0.00687,0.08597 -0.08053,0.12297 -0.11662,0.20471c0.17569,-0.05532 0.33344,-0.10465 0.463,-0.21669c-0.02217,-0.48412 0.67086,-0.14481 0.00592,0.15327c0.11814,0.00247 0.20071,0.05602 0.2799,-0.04122c0.15278,-0.13636 0.16064,-0.33332 -0.0098,-0.45488"/><path stroke="null" fill-rule="nonzero" fill="#ffffff" d="m18.24297,22.19713c-0.13519,0.03418 -0.27025,0.04581 -0.35409,0.18392c0.03387,0.04545 0.06584,0.08844 0.10066,0.1353c-0.06443,0.16736 -0.23102,0.13882 -0.38673,0.14622c0.01445,0.0525 0.02245,0.08139 0.03207,0.11698c-0.06633,0.03488 -0.09167,0.09337 -0.07806,0.17617c0.01752,0.00599 0.03827,0.01268 0.05893,0.01973c0.04353,-0.05391 0.1217,-0.10887 0.1403,-0.0074c0.2829,-0.09231 0.53609,-0.26461 0.67058,-0.52852c-0.08053,-0.06201 -0.14894,-0.1353 -0.18365,-0.24241"/><path stroke="null" fill-rule="nonzero" fill="#ffffff" d="m17.87002,21.20035c-0.05974,-0.00035 -0.07324,0.07681 -0.03179,0.1124c0.04046,0.0451 0.08025,-0.00388 0.12638,0.00916c0.00152,0.02572 0.00275,0.04686 0.00398,0.0673c0.24671,0.01445 0.62075,-0.20577 0.75182,-0.40484c-0.05244,-0.08139 -0.10199,-0.1582 -0.15349,-0.23819c-0.13424,0.04334 -0.28692,0.04017 -0.36703,0.16067c0.04818,0.05144 0.09029,0.09619 0.13682,0.14587c-0.09058,0.05003 -0.19507,0.13495 -0.29337,0.05356c-0.04007,-0.03664 -0.15211,-0.01973 -0.12487,0.05109c0.00388,0.01057 -0.00219,0.02502 -0.00384,0.0377c-0.0172,0.00211 -0.03084,0.00388 -0.04462,0.00529"/><path stroke="null" fill-rule="nonzero" fill="#ffffff" d="m16.81948,22.70451c-0.09156,-0.17864 -0.23515,-0.34177 -0.30246,-0.52922c0.08191,-0.11416 0.04487,-0.26074 -0.10725,-0.16736c-0.03842,-0.07716 -0.0954,-0.09196 -0.16617,-0.07223c-0.02012,0.04933 -0.03098,0.09689 0.02241,0.13495c0.00331,0.00247 -0.00067,0.0148 -0.00137,0.02255c-0.01692,0.00564 -0.03373,0.01163 -0.04927,0.01656c-0.03799,0.0983 0.05921,0.15538 0.09445,0.23184c0.10626,0.16877 0.2639,0.57573 0.50966,0.36292"/><path stroke="null" fill-rule="nonzero" fill="#ffffff" d="m16.81934,19.76243c-0.01336,-0.24699 -0.29904,-0.40555 -0.21259,-0.65395c0.02273,-0.04581 0.01487,-0.10007 -0.03207,-0.13777c-0.08314,0.0222 -0.08314,0.0222 -0.14605,-0.01726c-0.10739,-0.05356 -0.12226,0.06518 -0.11289,0.14059c-0.02108,0.00987 -0.04092,0.01903 -0.06982,0.03206c0.07436,0.21211 0.2964,0.7438 0.57341,0.63633"/><path stroke="null" fill-rule="nonzero" fill="#ffffff" d="m16.26838,20.60101c0.10488,0.15996 0.13396,0.41471 0.31265,0.50738c0.08138,0 0.2072,0.07434 0.25509,-0.0222c-0.05216,-0.19097 -0.28787,-0.30125 -0.25428,-0.51865c0.01145,-0.05039 -0.0073,-0.10077 -0.04983,-0.14587c-0.091,0.02713 -0.28234,-0.18005 -0.21227,0.06624c-0.0566,0.01938 -0.09019,0.05919 -0.05135,0.1131"/><path stroke="null" fill-rule="nonzero" fill="#ffffff" d="m12.18509,15.66079c0.03909,0.00247 0.07859,-0.04334 0.11933,-0.00247c-0.00356,0.02079 -0.0073,0.04122 -0.01128,0.06377c0.25069,0.10887 0.52686,-0.01445 0.77522,-0.08174c0.09858,-0.0303 0.155,-0.12966 0.26338,-0.12755c0.25728,0.01867 0.40393,-0.19731 0.62459,-0.25933c0.27314,-0.05179 0.55001,-0.09513 0.82893,-0.0902c0.32008,0.43691 0.37778,0.06589 0.66494,0.21423c-0.00825,0.04228 -0.01639,0.08351 -0.02506,0.12896c0.02879,0.00951 0.0523,0.01762 0.07475,0.02537c-0.02809,0.10852 0.13315,0.17194 0.15504,0.03418c0.00289,-0.01621 -0.00455,-0.0377 0.019,-0.04052c0.17083,-0.09302 -0.09142,-0.54437 -0.27247,-0.42598c-0.09237,0.04334 -0.21393,0.08632 -0.28621,-0.02396c0.15902,-0.06483 0.35603,-0.04862 0.46437,-0.19767c0.0811,-0.09866 0.07394,-0.29597 -0.08081,-0.34847c-0.40118,-0.11134 -0.82562,0.09161 -1.23145,0.12649c-0.76119,0.20647 -0.21809,-0.16278 -0.82177,-0.15996c0.21615,0.61837 0.86555,0.22092 1.31628,0.17582c-0.03221,0.07258 -0.10629,0.10042 -0.13629,0.1656c0.15912,-0.03065 0.36921,0.02924 0.48774,-0.09408c0.06168,-0.16983 0.46465,-0.18956 0.36953,0.04122c-0.3801,0.37102 -1.57109,0.02325 -2.10087,0.26179c-0.07916,0.24171 -0.21957,0.40238 -0.45126,0.46827c-0.18958,-0.11733 -0.27522,0.01621 -0.46437,-0.03594c-0.05272,-0.05849 -0.10629,-0.12367 -0.18848,-0.05955c0.00042,0.02466 0.00085,0.0532 0.00137,0.08703c-0.08948,-0.02572 -0.19024,0.0983 -0.09414,0.15468"/><path stroke="null" fill-rule="nonzero" fill="#ffffff" d="m12.8445,14.71756c-0.14041,0.25756 -0.09953,0.48941 0.06774,0.70504c0.3124,0.01128 0.43959,-0.41506 0.38867,-0.67298c0.0326,-0.0229 0.06305,-0.04404 0.0954,-0.06624c-0.00909,-0.03383 -0.01667,-0.06201 -0.0252,-0.09372c-0.05674,-0.00211 -0.10809,-0.00423 -0.15708,-0.00634c-0.11331,-0.14517 -0.18133,-0.14834 -0.3161,-0.01762c-0.09195,-0.03453 -0.09195,-0.03453 -0.15391,0.04651c0.02259,0.04721 0.05216,0.0821 0.10048,0.10535"/><path stroke="null" fill-rule="nonzero" fill="#ffffff" d="m14.36879,15.27039c-0.01403,0.07188 0.05191,0.10324 0.06376,0.15926c-0.0837,0.05426 -0.17414,0.05708 -0.26323,0.06906c-0.04694,-0.04721 -0.06594,-0.13142 -0.14785,-0.10676c-0.04638,0.01092 -0.02051,0.06025 -0.05519,0.07963c-0.09061,-0.00775 -0.09061,-0.00775 -0.10436,0.08386c0.02767,0.01656 0.05671,0.03418 0.08423,0.05039c-0.06827,0.32275 0.81212,-0.01268 0.94248,-0.10887c-0.04254,-0.07223 -0.09759,-0.12191 -0.11426,-0.20577c-0.03634,-0.14164 -0.29763,-0.02572 -0.40558,-0.02079"/><path stroke="null" fill-rule="nonzero" fill="#ffffff" d="m12.72266,15.3102c-0.00948,-0.1131 -0.03757,-0.24523 -0.12677,-0.3238c-0.10009,-0.10324 -0.13245,-0.24453 -0.03056,-0.35481c-0.0511,-0.04827 -0.11884,-0.00881 -0.16868,-0.07752c-0.06386,-0.07329 -0.10199,0.01092 -0.11729,0.08809c-0.1795,0.02607 -0.07584,0.08456 -0.03563,0.1804c0.05946,0.16525 0.27134,0.56164 0.47893,0.48764"/><path stroke="null" fill-rule="nonzero" fill="#ffffff" d="m15.38014,16.51452c-0.09322,0.04404 -0.21587,0.08738 -0.28857,-0.02396c0.16025,-0.06518 0.35892,-0.04898 0.46811,-0.19943c0.08177,-0.09936 0.07447,-0.29844 -0.08152,-0.35129c-0.40435,-0.11205 -0.83221,0.09267 -1.24153,0.1279c-0.76736,0.20788 -0.21971,-0.16419 -0.82833,-0.16137c0.21791,0.6233 0.87238,0.22303 1.32685,0.17723c-0.03235,0.07329 -0.10711,0.10112 -0.13738,0.16666c0.1605,-0.03065 0.37238,0.02995 0.49189,-0.09443c0.06206,-0.17159 0.46835,-0.19132 0.37252,0.04158c-0.38327,0.37384 -1.58402,0.02325 -2.11807,0.26355c-0.07983,0.24382 -0.22136,0.4059 -0.45499,0.47214c-0.16205,-0.10007 -0.24889,-0.01903 -0.38782,-0.02396c0.0055,0.04545 0.01914,0.08914 0.03041,0.13389c0.0116,0.0451 0.01667,0.09161 0.0197,0.13812c0.1612,-0.01762 0.32406,-0.07963 0.4766,-0.12085c0.09928,-0.03065 0.15627,-0.13107 0.26545,-0.12896c0.25936,0.01867 0.4072,-0.19872 0.6297,-0.26144c0.27532,-0.05215 0.55438,-0.09584 0.83566,-0.09055c0.32255,0.44008 0.38091,0.06624 0.6703,0.21563c-0.00825,0.04263 -0.01635,0.08456 -0.02516,0.13002c0.02904,0.00987 0.05272,0.01797 0.07542,0.02572c-0.02837,0.10958 0.1341,0.17335 0.15627,0.03418c0.00289,-0.01621 -0.00469,-0.0377 0.01914,-0.04087c0.1722,-0.09372 -0.09223,-0.5486 -0.27465,-0.42951"/><path stroke="null" fill-rule="nonzero" fill="#ffffff" d="m12.80224,16.12976c-0.1415,0.25968 -0.10034,0.49328 0.0683,0.71103c0.31483,0.01092 0.44315,-0.41859 0.39194,-0.67897c0.03278,-0.02255 0.06347,-0.04404 0.09607,-0.06659c-0.0092,-0.03418 -0.01678,-0.06236 -0.02545,-0.09443c-0.05713,-0.00211 -0.1089,-0.00423 -0.15831,-0.00634c-0.11429,-0.14622 -0.18284,-0.14975 -0.31871,-0.01762c-0.09266,-0.03488 -0.09266,-0.03488 -0.15518,0.04686c0.02287,0.04757 0.05272,0.08245 0.10133,0.10606"/><path stroke="null" fill-rule="nonzero" fill="#ffffff" d="m14.33908,16.68717c-0.01434,0.07258 0.05216,0.10394 0.06414,0.16032c-0.08441,0.05497 -0.17551,0.05778 -0.26542,0.06976c-0.04723,-0.04757 -0.06636,-0.13248 -0.14897,-0.10782c-0.0468,0.01128 -0.02065,0.06096 -0.05561,0.08033c-0.09142,-0.00775 -0.09142,-0.00775 -0.10531,0.08491c0.02795,0.01656 0.05727,0.03418 0.08494,0.05074c-0.06883,0.32521 0.81885,-0.01304 0.95034,-0.10993c-0.04296,-0.07258 -0.09858,-0.12297 -0.11525,-0.20753c-0.03676,-0.1427 -0.30024,-0.02572 -0.40886,-0.02079"/><path stroke="null" fill-rule="nonzero" fill="#ffffff" d="m12.67946,16.72698c-0.00966,-0.11381 -0.03785,-0.24699 -0.1279,-0.32627c-0.10076,-0.10394 -0.13354,-0.24664 -0.0307,-0.35763c-0.05149,-0.04862 -0.11979,-0.00916 -0.17001,-0.07822c-0.06443,-0.07364 -0.10298,0.01128 -0.11828,0.08879c-0.18105,0.02643 -0.07655,0.08527 -0.03605,0.18181c0.06016,0.16701 0.27367,0.56657 0.48294,0.49152"/><path stroke="null" fill-rule="nonzero" fill="#ffffff" d="m15.4115,17.84074c-0.09304,0.04404 -0.21559,0.08703 -0.28812,-0.02396c0.15997,-0.06483 0.35836,-0.04862 0.46736,-0.19907c0.08166,-0.09901 0.0745,-0.29808 -0.08134,-0.35094c-0.40379,-0.11205 -0.83111,0.09267 -1.23987,0.1279c-0.76641,0.20753 -0.21946,-0.16419 -0.82727,-0.16102c0.21752,0.62224 0.87133,0.22233 1.32509,0.17652c-0.03235,0.07329 -0.10696,0.10112 -0.13713,0.16701c0.16025,-0.03101 0.37171,0.0296 0.49122,-0.09478c0.06196,-0.17124 0.46765,-0.19097 0.372,0.04158c-0.38275,0.37349 -1.58198,0.02325 -2.11518,0.2632c-0.07986,0.24347 -0.22122,0.4052 -0.45447,0.47144c-0.19095,-0.11768 -0.27698,0.01656 -0.46751,-0.03594c-0.01861,-0.02044 -0.03732,-0.04193 -0.05727,-0.05814c-0.00539,-0.00247 -0.01047,-0.00564 -0.01406,-0.01057c-0.0073,-0.00493 -0.01473,-0.00881 -0.02227,-0.01163c0.00095,0.00282 0.0019,0.00529 0.00204,0.00881c0.00331,0.11169 -0.02382,0.22057 -0.06717,0.3224c0.24822,0.0983 0.51998,-0.02149 0.76489,-0.08809c0.09914,-0.0303 0.15613,-0.13037 0.26514,-0.12825c0.25911,0.01867 0.40671,-0.19872 0.62889,-0.26109c0.27508,-0.05215 0.55371,-0.09584 0.83457,-0.09091c0.32216,0.43973 0.38038,0.06624 0.66935,0.21563c-0.00825,0.04263 -0.01639,0.08421 -0.0252,0.12966c0.02904,0.00987 0.05272,0.01797 0.07546,0.02572c-0.02837,0.10958 0.13396,0.173 0.15599,0.03453c0.00303,-0.01656 -0.00455,-0.03805 0.01914,-0.04087c0.17195,-0.09372 -0.09213,-0.54825 -0.27427,-0.42916"/><path stroke="null" fill-rule="nonzero" fill="#ffffff" d="m12.8371,17.45634c-0.1414,0.25933 -0.10023,0.49293 0.06813,0.71033c0.31444,0.01092 0.44262,-0.41823 0.39142,-0.67826c0.03274,-0.02255 0.06344,-0.04369 0.09593,-0.06624c-0.0092,-0.03418 -0.01678,-0.06236 -0.02534,-0.09408c-0.05713,-0.00247 -0.10887,-0.00458 -0.15817,-0.00669c-0.11412,-0.14622 -0.18253,-0.14939 -0.31814,-0.01762c-0.09266,-0.03488 -0.09266,-0.03488 -0.15504,0.04686c0.02273,0.04721 0.05262,0.08245 0.10122,0.1057"/><path stroke="null" fill-rule="nonzero" fill="#ffffff" d="m14.37168,18.01304c-0.01417,0.07258 0.05234,0.10394 0.06432,0.16032c-0.08441,0.05461 -0.17541,0.05743 -0.26517,0.06941c-0.04723,-0.04721 -0.06636,-0.13213 -0.1488,-0.10747c-0.0467,0.01128 -0.02065,0.0606 -0.05551,0.08033c-0.09125,-0.00775 -0.09125,-0.00775 -0.10517,0.08456c0.02781,0.01656 0.05713,0.03418 0.0848,0.05074c-0.06869,0.32486 0.81776,-0.01304 0.94911,-0.10958c-0.04296,-0.07294 -0.09844,-0.12297 -0.11511,-0.20753c-0.03676,-0.142 -0.29982,-0.02572 -0.40847,-0.02079"/><path stroke="null" fill-rule="nonzero" fill="#ffffff" d="m12.58666,17.72694c-0.019,-0.01938 -0.03553,-0.04052 -0.04913,-0.06236c-0.00582,0.05814 0.02492,0.12579 0.01445,0.18322c-0.00814,0.0444 -0.02108,0.11169 -0.03373,0.15503c0.07253,0.07082 0.11592,0.07893 0.19603,0.05003c-0.00948,-0.11346 -0.03771,-0.24664 -0.12762,-0.32592"/><path stroke="null" fill-rule="nonzero" fill="#ffffff" d="m17.18718,15.44163c0.06911,0.04369 0.12075,0.24594 0.16233,0.27448c0.07859,0.10359 0.24311,0.37983 0.40417,0.3231l0.00014,-0.00423c0.04779,-0.01903 0.0935,-0.15855 0.09611,-0.17793c-0.00137,-0.00599 -0.02851,-0.03065 -0.05865,-0.05426c-0.1513,-0.13178 -0.243,-0.26179 -0.24618,-0.38229c-0.00645,-0.03911 0.08649,-0.09196 0.0793,-0.12931c-0.00342,-0.13777 -0.11768,0.01691 -0.16272,-0.00564c-0.02464,-0.03981 -0.11,-0.15257 -0.16258,-0.0976c-0.03235,0.0155 0.00811,0.09654 -0.01804,0.11592c-0.01184,0.01586 -0.01914,0.01832 -0.05547,0.01797c-0.12212,-0.00211 -0.13823,0.07399 -0.03842,0.1198"/><path stroke="null" fill-rule="nonzero" fill="#ffffff" d="m17.8352,16.37111c0.04046,-0.04017 0.16258,-0.15891 0.17622,-0.18533c0.01198,-0.02678 0.01639,-0.02819 0.10228,-0.03559c0.23624,-0.03347 0.35561,-0.13002 0.42239,-0.3837c0.0326,-0.07575 -0.00923,-0.241 -0.05755,-0.27694c-0.01871,-0.01304 -0.027,-0.0377 -0.0153,-0.04616c0.04377,-0.00634 0.13576,-0.04193 0.15144,-0.09372c-0.0252,-0.04862 -0.08645,-0.01198 -0.16945,-0.03876c-0.06143,-0.02854 -0.22401,-0.07857 -0.28995,-0.04228c-0.0468,0.05673 -0.32241,0.06272 -0.27286,0.14481c0.01061,0.03065 0.0307,0.10007 0.0307,0.10007l0.12568,0.0148l0.00194,0.09091c0,0 -0.09019,0.01938 -0.12018,0.02643c-0.07461,0.10923 0.17925,0.11804 0.24505,0.03277c0.04501,-0.0532 0.11606,-0.06096 0.11345,-0.00247c-0.03429,0.07258 -0.15571,0.10958 -0.22648,0.14411c-0.10601,0.01797 -0.13424,0.22621 -0.21587,0.29527c-0.23116,0.04263 -0.31402,0.03735 -0.54257,-0.14869c-0.08342,-0.09584 -0.14964,-0.02361 -0.08659,0.05179c-0.04102,0.01339 -0.25301,-0.10606 -0.15722,0.09795l0.01572,0.01867c-0.10464,0.1508 0.05107,0.09971 0.13833,0.14622c0.1863,0.07434 0.39046,0.13037 0.63082,0.08985"/><path stroke="null" fill-rule="nonzero" fill="#ffffff" d="m18.57532,16.2256l0.09815,0.20295c0,0 0.21065,0.09408 0.23913,0.12191c0.11828,0.08632 0.09858,0.32557 -0.00811,0.29879c-0.17484,-0.07153 -0.27906,-0.31817 -0.40023,-0.47108c-0.03235,-0.02466 -0.11578,-0.27412 -0.17068,-0.21105c-0.72087,0.16102 0.13065,0.34565 -0.00056,0.61343c-0.0252,0.03805 -0.10545,0.2248 -0.07271,0.25298c0.06058,0.0747 0.19648,0.12861 0.26792,0.22303c0.11743,0.11486 0.01184,0.24699 -0.13326,0.13988c-0.08247,-0.06201 -0.18062,0.02748 -0.09653,0.11064c0.00567,0.01586 -0.05008,0.03911 -0.06027,0.04616c-0.08592,0.11804 0.05614,0.11205 0.13132,0.05285c0.04159,-0.02044 -0.00042,0.10324 0.06982,0.08315c0.13132,-0.02924 0.33506,-0.09584 0.37143,-0.30125c0.08177,-0.18886 -0.10753,-0.1582 -0.15419,-0.3231c-0.04723,-0.06765 -0.05054,-0.31641 0.05188,-0.2248c0.09502,0.1198 0.2233,0.18886 0.34021,0.0821c0.1082,-0.10183 0.00948,-0.34847 -0.04585,-0.45805c-0.10436,-0.21704 -0.22454,-0.42598 -0.21615,-0.68601c0.14608,-0.17335 0.31568,0.13565 0.41894,-0.34635c-0.34116,0.02325 -0.67678,0.25193 -0.50828,0.63493c0.10365,0.21669 0.0811,0.19978 -0.12198,0.15891"/><path stroke="null" fill-rule="nonzero" fill="#ffffff" d="m18.02672,16.63467c-0.18038,-0.00916 -0.31832,-0.02361 -0.26778,0.19062c0.0099,0.05144 0.02904,0.20788 0.0596,0.24382c0.01269,0.02044 0.01089,0.04193 -0.00536,0.05602c-0.07281,0.04087 -0.34845,-0.07117 -0.31539,-0.1649c-0.00014,-0.07787 -0.07792,-0.09584 -0.10104,-0.04052c-0.01241,0.02466 -0.03197,0.02361 -0.05949,-0.00669c-0.05079,-0.07294 -0.12156,0.02572 -0.09294,0.08033c0.01117,0.02185 -0.00233,0.04581 -0.02848,0.04968c-0.07588,0.03101 -0.07147,0.1346 0.03387,0.13847c0.22989,0.10641 0.43036,0.21634 0.69744,0.17864l-0.00426,0.00141c0.29143,-0.0229 0.14097,-0.07787 0.12829,-0.28082c-0.04998,-0.2181 0.32258,-0.36115 -0.04444,-0.44607"/><path stroke="null" fill-rule="nonzero" fill="#ffffff" d="m18.30067,19.75045c-0.019,-0.01726 -0.06665,0.00247 -0.07228,0.01409c0.00194,0.09901 -0.10284,0.07012 -0.13421,0.13777c0.02051,0.04087 0.04983,0.07364 0.09442,0.06941c0.05576,-0.00493 0.05135,0.06413 0.10217,0.06765c0.24008,-0.10923 0.52534,-0.0828 0.72937,-0.27025c-0.07641,-0.06554 -0.09484,-0.15433 -0.11123,-0.2477c-0.13893,0.01022 -0.27342,-0.00951 -0.39332,0.05638c-0.01212,0.06377 0.03193,0.09689 0.06305,0.15151c-0.09858,0.04193 -0.18587,0.06307 -0.27797,0.02114"/><path stroke="null" fill-rule="nonzero" fill="#ffffff" d="m16.15852,24.32882c0.29062,-0.25792 0.49133,-0.34812 0.86498,-0.43691c-0.10312,0.23184 -0.20156,0.45276 -0.30549,0.68601c-0.18739,-0.08315 -0.37129,-0.16525 -0.55949,-0.24911l0,0zm-0.07394,-5.59911l4.10204,0c0.3352,3.13446 -1.50254,4.18339 -4.10204,5.27601l0,-5.27601zm6.05929,-1.67857c-0.09473,-0.2026 -0.31377,-1.33856 -0.6322,-1.09192c1.45119,2.70847 0.48322,6.26997 -2.03489,7.98554c-0.73888,0.44572 -1.65564,1.18634 -2.5294,0.69271c0.56414,-2.19722 3.26786,-1.2695 3.85558,-5.45888c-0.07228,-0.03523 -0.09967,-0.05778 -0.16589,-0.06941c-0.08455,0.5856 -0.23197,1.14794 -0.45087,1.68844c0.23458,-0.62365 0.08536,-2.57564 0.12956,-2.6831c-0.02439,-0.03206 -0.04998,-0.04404 -0.12998,-0.1427c0.01459,0.23572 -0.00123,0.32134 0.00137,0.63316l-4.10256,0l0,-4.27817l4.02686,0l0,2.41356c-0.00194,0.01304 0.01568,0.1279 0.02421,0.16983c0.05741,-0.08809 0.06224,-0.08491 0.10066,-0.11346l0,-2.59467l-8.44567,0l-0.00758,2.18665l0.12487,0l0,-2.06192l4.05178,0l0,4.27817l-3.90777,0c-0.01156,0.01163 0.00236,-0.0673 -0.01061,-0.05567c-0.00067,-0.01198 -0.02682,0.0673 -0.02668,0.05567l-0.10933,0c-0.00208,-0.19943 0.00233,-0.32204 0.00247,-0.32839l-0.12473,-0.00493c-0.09086,0.32134 0.17678,3.0055 0.61747,3.47694c-0.88194,-0.85479 -1.15948,-2.37234 -0.99454,-3.51534c0,0 -0.08247,-0.06307 -0.17248,-0.14587c-0.27701,1.61021 0.33217,3.19858 1.46081,4.35075c0.09882,0.10535 0.20649,-0.0081 0.32653,-0.03805c-0.02435,-0.02607 -0.07736,-0.06659 -0.11398,-0.11768c0.04448,0.04616 0.08384,0.08703 0.11398,0.11768l-0.06263,-0.173c-0.88606,-0.67721 -1.03183,-2.61123 -1.05082,-3.49737l4.05231,0c0,0 -0.00261,5.3648 -0.0055,5.37713c-0.86195,-0.04228 -1.44513,-0.9774 -2.27638,-0.98797c1.19511,0.70857 3.38116,2.41567 4.76187,1.66765c0.01075,0.01339 0.00853,0.01057 0.01928,0.02396c-0.14496,0.18181 -0.65655,0.5257 -0.88479,0.43761c-0.37584,-0.22621 -0.95559,0.18604 -0.68933,0.60568c0.03429,0.04898 0.05495,0.09302 0.0153,0.15785c-1.49331,-0.14059 -2.83559,-1.03202 -4.09404,-1.7959c-0.01227,0.01304 -0.00994,0.01057 -0.02217,0.02396c0.48196,0.65113 2.20477,1.46012 2.20477,1.46012l-0.00095,0.96789c0,0 0.11042,0.07364 0.18256,0.12191l0,-1.04717c0.45196,0.15503 1.36773,0.44219 1.36773,0.44219l0.00275,0.6536l0.17431,-0.11134l-0.00923,-0.48941l0.24463,-0.06765c0.1538,-0.04228 0.25263,-0.19062 0.23377,-0.34776c-0.07228,-0.03629 -0.12321,-0.11064 -0.10076,-0.21282c0.03605,-0.19062 0.26637,-0.19485 0.36082,-0.08033c0.18711,0.08315 0.37076,-0.14164 0.55466,-0.19485c0.25992,-0.15715 0.58057,-0.29667 0.70075,-0.59582c0.02301,-0.07399 0.06361,-0.1198 0.12596,-0.15644c0.52439,-0.29773 1.03225,-0.62647 1.46014,-1.05562c1.82868,-1.54574 2.46719,-4.20171 1.85801,-6.47504"/><path stroke="null" fill-rule="nonzero" fill="#ffffff" d="m7.00482,26.05214c-0.09445,-0.05743 -0.21037,-0.0754 -0.34747,-0.05356c0.02918,0.20788 0.10474,0.593 0.16505,0.79454c0.38631,-0.05532 0.5025,-0.53803 0.18242,-0.74098"/><path stroke="null" fill-rule="nonzero" fill="#ffffff" d="m11.85218,25.04408l0.17431,0.88262l-0.20279,0.03629l-0.179,-0.8784c-0.12497,0.02255 -0.19507,0.02255 -0.36438,0.09654l-0.00592,-0.19767l0.87654,-0.1131l0.06083,0.16701c-0.08039,-0.02924 -0.35959,0.00669 -0.35959,0.00669l0,0l0,0zm-0.63974,1.03448l-0.60686,0.13988c0.01156,-0.09196 -0.19218,-0.94217 -0.24424,-1.01969l0.63949,-0.14728l-0.0504,0.21528c-0.08892,-0.02431 -0.19285,-0.02396 -0.31141,0.0007l0.07408,0.30865l0.35367,-0.08139l0.0585,0.14975c-0.07049,-0.01057 -0.28375,0.0444 -0.38091,0.06236l0.07722,0.3224c0.17414,-0.04017 0.3179,-0.09936 0.43117,-0.17793l0.00331,0.00176l-0.04363,0.2255l0,0zm-1.76176,0.3157c-0.44305,0.01022 -0.50705,-0.62295 -0.61112,-0.93477l0.21488,-0.04052c0.10259,0.27201 0.07408,0.90799 0.53045,0.82413c0.32946,-0.14798 0.06224,-0.67157 0.02837,-0.9242l0.21188,-0.02995c0.08067,0.41964 0.27049,1.14829 -0.37446,1.10531l0,0zm-0.62339,0.09584l-0.60809,0.13389c0.01241,-0.09161 -0.18365,-0.94358 -0.235,-1.02145l0.64087,-0.14129l-0.05234,0.21458c-0.08878,-0.02502 -0.19257,-0.02572 -0.31141,-0.00211l0.07119,0.30936l0.35452,-0.07822l0.05713,0.15045c-0.07049,-0.01128 -0.28417,0.04158 -0.38151,0.05884l0.07422,0.3231c0.17456,-0.03876 0.31885,-0.09689 0.43269,-0.17441l0.00345,0.00211l-0.04571,0.22515l0,0l0,0zm-1.13978,0.24664c0.01515,-0.3009 -0.08522,-0.7741 -0.22151,-1.04329l0.29668,-0.06272c-0.01515,0.3009 0.08536,0.7741 0.22151,1.04329l-0.29668,0.06272zm-0.29985,-0.18287c-0.12624,0.3002 -0.50427,0.36855 -0.79901,0.42105c0.01417,-0.09337 -0.16617,-0.96155 -0.22126,-1.04047c0.51075,-0.21881 1.24153,-0.0074 1.02027,0.61942l0,0zm4.88952,-1.92592c0,0 0,0 -0.00014,0c-2.32209,0.00352 -4.63591,0.99467 -6.95895,0.99467c-0.27864,0 -0.55702,-0.01409 -0.83594,-0.04616c0.71946,0.56798 0.66935,1.70781 1.7158,1.70781c0.04529,0 0.09266,-0.00211 0.14235,-0.00669c1.42254,-0.15186 2.83711,-0.55283 4.23691,-0.77516c0.24093,-0.03629 1.39998,-0.31993 2.07856,-0.31993c0.24448,0 0.42662,0.03664 0.481,0.1353c0.07366,0.13354 -0.38768,0.52253 -0.3911,0.53768c-0.00099,0.00423 0.00137,0.00634 0.00659,0.00634c0.04476,0 0.30056,-0.14763 0.49122,-0.27342c0.7576,-0.54437 -0.82974,-1.96045 -0.96631,-1.96045"/><path stroke="null" fill-rule="nonzero" fill="#ffffff" d="m23.0368,25.60748c-0.04931,0.19379 -0.12529,0.55847 -0.15063,0.75684c0.45598,0.09654 0.59748,-0.66628 0.15063,-0.75684"/><path stroke="null" fill-rule="nonzero" fill="#ffffff" d="m24.82267,25.91684c-0.34831,-0.08562 -0.46162,0.64021 -0.17167,0.75578c0.35571,0.08421 0.4631,-0.63633 0.17167,-0.75578"/><path stroke="null" fill-rule="nonzero" fill="#ffffff" d="m23.91169,25.78154l-0.10629,0.38476c0.29668,0.05461 0.42458,-0.33614 0.10629,-0.38476"/><path stroke="null" fill-rule="nonzero" fill="#ffffff" d="m21.11835,25.23012c-0.36319,-0.09971 -0.50345,0.65148 -0.19825,0.77833c0.37104,0.09866 0.50511,-0.64761 0.19825,-0.77833"/><path stroke="null" fill-rule="nonzero" fill="#ffffff" d="m25.95652,26.18426c0,0 -0.13534,0.76459 -0.12681,0.82942l-0.22979,-0.04122c-0.00384,0.00493 0.1414,-0.67051 0.17664,-0.81709c-0.08138,-0.01726 -0.17731,-0.00881 -0.26778,0.02572l-0.00162,-0.00247l0.09209,-0.19238l0.62406,0.11205l0.04321,0.21211c-0.05216,-0.05109 -0.22122,-0.10958 -0.31,-0.12614l0,0zm-0.54575,0.04299c-0.0227,0.17652 -0.10531,0.53556 -0.0731,0.70293l-0.23116,-0.03312c0.10161,-0.26038 0.17128,-0.70011 0.1549,-0.97881l0.23113,0.03347c-0.03771,0.07752 -0.06495,0.16948 -0.08177,0.27553l0,0zm-0.61567,0.58313c-0.59058,0.11064 -0.58977,-0.8865 -0.11578,-1.02603c0.59308,-0.12402 0.59558,0.88932 0.11578,1.02603zm-0.50952,-0.78679c-0.02862,0.11275 -0.11151,0.19027 -0.24847,0.23255c0.05974,0.19555 0.09484,0.26038 0.19574,0.47285l-0.00123,0.00493l-0.15638,-0.02431c-0.03235,-0.01903 -0.2287,-0.29386 -0.2872,-0.4429c-0.03426,0.12262 -0.06925,0.27941 -0.05491,0.39004l-0.26517,-0.04087c0.04916,-0.07681 0.25622,-0.88932 0.24836,-0.97459c0.22979,0.02889 0.64196,0.07012 0.56925,0.38229l0,0zm-1.1439,0.4577c-0.13875,0.04862 -0.33658,-0.00599 -0.481,-0.03418l0.19398,-0.99326c0.64485,-0.04228 0.91193,0.79207 0.28702,1.02744zm-0.91535,-0.08421c-0.072,-0.0155 -0.46025,-0.80652 -0.46025,-0.80652c0,0 -0.0947,0.61449 -0.11881,0.65748l-0.17664,-0.02537l0.20142,-0.96437l0.19578,0.02572c0.00152,0.02502 0.30933,0.67721 0.30933,0.67721c0,0 0.10298,-0.52816 0.11236,-0.57538l0.1495,0.04193l-0.21269,0.9693l0,0zm-0.81036,-0.624c-0.21047,0.71279 -1.03235,0.3231 -0.78773,-0.31218c0.20801,-0.69095 1.03102,-0.32557 0.78773,0.31218zm-0.85864,-0.76811c-0.0351,0.03242 -0.15912,0.90059 -0.15088,0.98551l-0.23377,-0.04581c0.04187,-0.0754 0.0972,-0.68073 0.0972,-0.68073l-0.40118,0.6233l-0.23567,-0.70257c0,0 -0.09555,0.50456 -0.09942,0.66699l-0.22933,-0.03171c0.07362,-0.11874 0.21763,-1.01193 0.21763,-1.01193l0.23723,0.0444c0.00645,0.04721 0.18584,0.6536 0.18584,0.6536c0,0 0.31582,-0.52957 0.33414,-0.5567l0.27892,0.05215l-0.0007,0.00352l0,0l0,0zm5.75891,0.61343c-0.2909,0 -0.56735,-0.00458 -0.7024,-0.01586c-1.5313,-0.14904 -3.04677,-0.58665 -4.57451,-0.82907c-0.44069,-0.06941 -0.80109,-0.1346 -1.11349,-0.1346c-0.64869,-0.00035 -1.08966,0.28152 -1.61211,1.39388c-0.2226,0.42352 0.52316,0.82695 0.68739,0.84422c-0.61278,-0.52288 -0.39924,-0.67791 0.08427,-0.67791c0.66825,0 1.85219,0.29597 2.08416,0.32521c1.3997,0.22233 2.81469,0.62295 4.23695,0.77516c0.04998,0.00423 0.09763,0.00669 0.14319,0.00669c1.04599,0 0.99616,-1.14054 1.71509,-1.70781c-0.1279,0.01163 -0.55167,0.02008 -0.94855,0.02008"/></svg>